<?xml version="1.0" standalone="no"?>
<!DOCTYPE svg PUBLIC "-//W3C//DTD SVG 20010904//EN"
 "http://www.w3.org/TR/2001/REC-SVG-20010904/DTD/svg10.dtd">
<svg version="1.0" xmlns="http://www.w3.org/2000/svg"
 width="500.000000pt" height="500.000000pt" viewBox="0 0 500.000000 500.000000"
 preserveAspectRatio="xMidYMid meet">
<metadata>
Created by potrace 1.14, written by Peter Selinger 2001-2017
</metadata>
<g transform="translate(0.000000,500.000000) scale(0.100000,-0.100000)"
fill="#000000" stroke="none">
<path d="M0 3852 c1 -664 5 -1153 10 -1162 5 -9 5 -19 -2 -27 -5 -7 -8 -20 -4
-28 6 -17 36 -21 36 -5 0 6 8 18 18 28 41 44 51 89 17 76 -22 -9 -29 22 -16
67 9 31 9 44 1 54 -7 8 -9 19 -5 25 11 18 25 11 25 -15 0 -14 5 -25 10 -25 6
0 13 0 18 0 14 -1 18 74 4 85 -8 6 -10 18 -6 29 6 15 10 12 26 -20 10 -20 18
-49 18 -64 0 -14 7 -35 15 -46 9 -12 12 -31 9 -52 -4 -18 -2 -38 4 -45 5 -6
12 -49 15 -94 4 -65 2 -83 -8 -83 -8 0 -16 8 -18 18 -4 16 -5 16 -6 0 0 -10
-5 -18 -11 -18 -5 0 -14 8 -19 18 -7 11 -10 13 -11 3 0 -10 -14 -12 -60 -9
l-60 4 0 -143 0 -143 158 0 c86 -1 256 -4 377 -7 121 -4 285 -7 365 -7 l145
-1 3 37 3 36 -53 6 c-29 3 -258 10 -508 16 -250 6 -458 14 -462 18 -4 4 8 31
25 61 l32 53 424 -7 c234 -4 434 -9 445 -11 35 -7 104 7 110 22 9 24 -5 44
-31 44 l-24 0 20 29 21 29 -31 6 c-43 8 -61 8 -55 -3 3 -4 -3 -16 -14 -26 -18
-16 -24 -14 -22 6 1 4 -12 9 -28 13 -17 3 -30 11 -30 17 0 6 7 8 17 5 11 -5
23 0 33 12 14 18 19 19 64 7 49 -13 86 -10 86 6 0 10 0 10 -62 12 -27 0 -48 4
-48 9 0 4 -7 5 -16 1 -9 -3 -20 0 -25 8 -14 23 -11 29 16 29 14 0 25 -4 25
-10 0 -17 77 -12 84 6 9 22 8 24 -9 24 -8 0 -15 5 -15 10 0 6 8 10 18 10 10 0
25 9 35 20 9 11 24 20 32 20 8 0 15 4 15 9 0 13 -76 24 -131 19 -24 -3 -55 -2
-68 1 -23 6 -24 11 -25 76 l-1 69 98 -3 c66 -2 97 1 97 9 0 6 -15 10 -32 10
-101 -3 -157 2 -168 15 -6 7 -13 49 -16 93 -5 76 -4 80 18 87 l23 8 -22 4
c-18 3 -23 13 -28 51 -3 26 -7 61 -10 79 -3 24 2 35 18 47 l22 15 -22 0 c-18
1 -23 7 -23 27 0 14 4 23 10 19 6 -3 10 1 10 10 0 9 -4 14 -9 11 -5 -3 -12 1
-15 10 -8 20 2 33 12 18 5 -7 15 -6 32 4 23 13 23 13 3 9 -17 -4 -23 0 -23 11
0 15 -2 15 -10 2 -5 -8 -11 -12 -14 -9 -10 9 -19 156 -12 176 7 17 8 17 22 -1
13 -18 14 -17 15 20 0 21 3 33 6 27 2 -7 21 -14 41 -14 24 -1 29 -3 15 -6 -33
-6 -28 -18 7 -21 22 -2 28 1 24 12 -4 10 1 12 19 9 34 -7 43 13 9 22 -43 11
-132 11 -136 0 -3 -5 -5 0 -5 12 -1 30 -21 40 -22 11 -1 -23 -1 -23 -8 2 -9
29 -3 53 10 44 5 -3 9 6 9 20 0 19 5 24 20 23 11 -1 20 -7 20 -14 0 -11 5 -11
21 -3 11 7 28 9 36 5 14 -5 14 -7 -2 -19 -17 -12 -16 -14 10 -20 31 -8 46 1
25 14 -18 11 -13 12 97 15 69 1 94 8 81 21 -4 3 -14 7 -25 8 -13 3 -17 11 -16
30 2 27 -21 38 -30 14 -3 -10 -7 -10 -18 -1 -20 16 -149 15 -149 -2 0 -24 -30
-26 -40 -2 -7 17 -9 18 -9 5 -1 -23 -21 -24 -21 -1 0 15 -1 15 -14 -2 -12 -17
-13 -16 -20 10 -4 15 -3 31 1 35 4 3 134 4 288 1 l280 -6 -24 -22 c-13 -12
-31 -19 -40 -16 -11 3 -12 2 -4 -4 9 -6 2 -29 -27 -90 -38 -77 -41 -80 -70
-77 -16 2 -30 0 -30 -5 0 -15 27 -20 39 -8 20 20 12 -17 -18 -84 -24 -55 -63
-195 -60 -217 5 -30 -3 -38 -30 -34 -30 4 -121 -30 -121 -46 0 -14 114 -2 126
14 10 12 13 11 18 -8 3 -13 6 -33 6 -46 0 -51 38 -107 100 -151 33 -24 66 -41
73 -38 7 2 28 40 46 83 45 105 53 113 76 78 20 -31 92 -104 97 -99 2 2 37 -1
78 -6 41 -5 113 -12 160 -15 47 -3 88 -8 92 -10 3 -2 9 2 12 8 3 7 3 -30 0
-82 -7 -114 6 -192 46 -277 79 -171 277 -271 475 -243 154 22 281 109 347 237
50 96 62 157 53 267 -3 50 -7 104 -7 119 -1 17 -4 24 -8 17 -5 -7 -9 0 -12 18
-3 25 -1 30 14 29 10 -1 18 -4 18 -7 0 -3 31 -6 69 -7 47 -1 78 -7 93 -17 13
-9 41 -21 63 -27 60 -16 157 -83 193 -134 18 -25 32 -48 32 -51 0 -3 9 -17 20
-31 14 -18 20 -21 20 -10 0 29 19 28 25 0 10 -45 27 -73 45 -73 31 0 80 -31
80 -51 0 -12 12 -24 35 -33 23 -10 35 -22 35 -34 0 -11 7 -23 16 -26 8 -3 13
-10 10 -14 -3 -5 3 -22 13 -38 15 -24 16 -40 10 -99 -4 -38 -8 -80 -8 -93 -1
-15 -5 -21 -13 -16 -8 5 -9 -2 -4 -27 14 -67 15 -88 2 -99 -10 -7 -12 -26 -9
-62 5 -51 -16 -120 -43 -143 -7 -5 -15 -26 -18 -45 -11 -72 -19 -100 -27 -100
-5 0 -9 -9 -9 -20 0 -39 -24 -97 -44 -106 -12 -5 -23 -18 -24 -29 -2 -11 -20
-37 -41 -57 -20 -20 -38 -47 -41 -59 -3 -13 -18 -27 -35 -33 -35 -13 -125 -76
-125 -88 0 -4 -9 -8 -20 -8 -11 0 -20 5 -20 11 0 14 -25 6 -26 -9 -1 -7 -2
-15 -3 -19 0 -3 -11 5 -23 18 -14 16 -19 18 -15 7 4 -11 0 -19 -14 -23 -10 -4
-19 -11 -19 -16 0 -5 -4 -9 -10 -9 -5 0 -10 7 -10 16 0 19 -39 9 -56 -14 -14
-19 -62 -22 -68 -5 -3 7 -1 15 4 18 14 8 12 35 -1 35 -6 0 -9 -7 -5 -15 6 -16
3 -17 -59 -19 -31 -1 -42 -6 -49 -22 -7 -15 -22 -24 -50 -28 -23 -3 -66 -12
-96 -21 -30 -8 -84 -20 -121 -25 -36 -5 -90 -15 -120 -21 -43 -9 -50 -14 -34
-20 15 -6 9 -8 -22 -8 -50 -1 -57 -18 -10 -24 17 -2 7 -3 -23 -1 -41 2 -50 0
-35 -7 21 -10 21 -10 -64 7 -18 4 -32 0 -40 -10 -17 -20 -98 -22 -126 -3 -25
17 -65 28 -65 17 0 -4 -17 -4 -37 1 -21 5 -45 11 -54 13 -9 3 -25 9 -35 14
-11 5 -53 27 -94 47 -41 21 -83 44 -92 53 -10 8 -19 13 -19 11 -5 -15 -11 -63
-15 -114 -2 -33 -7 -76 -10 -96 -4 -25 -1 -39 10 -48 9 -8 16 -29 16 -47 0
-64 61 -93 125 -60 33 17 45 33 45 63 0 11 14 33 30 46 16 14 30 30 30 36 0
20 18 20 42 1 18 -14 25 -29 26 -57 2 -58 13 -112 28 -141 8 -15 14 -36 14
-47 0 -11 12 -42 25 -70 29 -59 30 -72 9 -173 -20 -100 -24 -113 -33 -107 -9
5 -26 -88 -22 -114 4 -21 -31 -80 -51 -87 -22 -7 -23 -27 -3 -48 44 -44 -29
-144 -81 -108 -39 27 -54 86 -32 122 11 17 10 22 -1 30 -13 7 -10 19 17 74 38
77 38 77 13 98 -20 17 -71 21 -71 6 0 -5 -4 -7 -9 -4 -4 3 -16 -17 -25 -45
-16 -50 -67 -111 -89 -106 -7 1 -10 -12 -8 -35 4 -55 -33 -118 -76 -132 -27
-9 -63 24 -63 55 0 38 23 100 41 109 13 8 16 18 12 47 -4 34 -1 43 41 87 25
28 46 53 46 58 0 18 -47 7 -72 -17 -15 -14 -29 -25 -32 -25 -12 0 -56 -49 -56
-62 0 -18 -52 -68 -71 -68 -23 0 -39 21 -39 50 0 28 34 90 50 90 5 0 7 6 4 14
-8 20 61 74 129 101 94 39 173 92 232 158 82 89 135 187 102 187 -14 0 -46
-24 -304 -228 -85 -68 -167 -131 -181 -140 -15 -9 -83 -62 -152 -117 -70 -55
-155 -120 -189 -145 -35 -25 -82 -62 -105 -83 -33 -30 -47 -37 -72 -34 -23 3
-38 -3 -63 -25 -18 -16 -30 -35 -28 -43 7 -18 -26 -47 -46 -40 -10 4 -15 1
-14 -10 2 -21 -30 -45 -41 -30 -4 6 -14 10 -22 10 -20 0 -54 -31 -47 -42 4 -5
-4 -9 -16 -9 -17 1 -23 -7 -30 -41 -4 -24 -12 -43 -16 -43 -4 0 -18 -9 -31
-20 -13 -11 -29 -20 -37 -20 -7 0 -23 -10 -35 -22 l-22 -22 -7 24 -7 25 -1
-26 c-1 -15 -7 -29 -14 -31 -6 -3 -64 -3 -127 -2 -63 2 -137 0 -165 -5 -29 -5
1022 -9 2455 -9 1965 0 2496 2 2465 12 -29 8 -41 18 -43 34 -2 12 -8 20 -13
16 -12 -7 -68 35 -163 122 -74 69 -92 92 -61 80 9 -3 15 0 15 9 0 21 -15 26
-43 16 -21 -8 -29 -4 -66 35 -22 24 -41 41 -41 38 0 -8 -84 63 -205 171 -49
45 -106 94 -125 109 -19 16 -60 51 -90 80 -30 28 -71 64 -90 80 -19 15 -75 64
-123 109 l-88 81 28 11 c24 10 32 9 55 -6 29 -21 132 -27 143 -9 4 6 10 8 15
5 4 -2 18 4 31 14 13 10 39 22 58 26 29 6 85 42 132 84 8 7 32 22 54 34 63 35
84 75 84 162 0 54 5 84 20 114 12 22 24 42 29 45 9 5 110 -63 158 -106 18 -16
65 -55 106 -86 41 -31 113 -87 160 -124 47 -38 89 -68 92 -68 3 0 6 266 6 590
l0 590 -57 0 c-40 0 -53 3 -43 10 8 5 34 6 57 3 l43 -6 0 1362 0 1361 -2500 0
-2500 0 0 -1148z m1960 544 c0 -2 -11 -6 -25 -8 -13 -3 -22 -1 -19 3 5 9 44
13 44 5z m-549 -97 c6 -9 12 -10 17 -4 4 6 13 11 21 13 27 6 331 14 331 9 0
-3 -23 -24 -50 -47 -56 -47 -40 -45 -260 -41 -74 2 -141 8 -147 13 -7 6 -21 7
-30 3 -21 -9 -183 -13 -183 -4 0 3 14 19 31 37 25 26 40 32 87 35 100 7 173 2
183 -14z m1042 -59 c16 -27 39 -25 68 6 24 26 25 26 129 19 58 -3 123 -10 145
-13 l40 -7 3 -53 c3 -48 1 -52 -19 -52 -20 0 -21 -3 -15 -52 14 -107 17 -116
43 -123 18 -4 23 -11 21 -28 -3 -25 -38 -37 -38 -13 0 9 -11 18 -25 22 -19 5
-25 13 -25 33 0 14 -7 61 -15 104 -16 85 -14 97 16 97 21 0 28 39 7 42 -47 5
-68 4 -68 -6 0 -7 -3 -7 -8 1 -4 6 -39 14 -78 18 -68 7 -72 6 -91 -19 -12 -14
-25 -26 -31 -26 -5 0 -12 -6 -15 -14 -4 -10 11 -17 55 -26 34 -6 72 -18 84
-27 21 -13 27 -13 54 0 16 9 30 11 30 6 0 -5 -11 -11 -25 -15 -17 -4 -24 -12
-22 -26 1 -14 -8 -27 -28 -38 -24 -14 -29 -23 -27 -46 2 -16 9 -32 15 -36 9
-6 9 -8 0 -8 -7 0 -13 -7 -13 -15 0 -21 -27 -30 -44 -16 -10 8 -16 9 -21 1 -8
-12 -45 -13 -65 0 -13 8 -13 11 -1 22 11 11 13 11 6 -1 -5 -9 -3 -12 6 -9 8 3
13 12 11 22 -2 9 4 16 13 16 12 0 13 4 6 19 -8 14 -27 19 -83 24 -40 4 -86 10
-102 13 l-29 7 41 -59 c23 -33 42 -63 42 -67 0 -15 -35 -6 -56 14 l-22 21 -16
-30 c-17 -33 -7 -31 -218 -48 l-78 -6 0 37 c0 48 13 71 49 83 23 8 32 21 49
69 11 32 23 65 26 74 5 11 1 18 -14 22 -15 4 -20 11 -17 24 3 10 8 30 11 45 7
32 22 36 181 47 115 7 137 3 158 -29z m1321 12 c7 -11 -90 -61 -102 -53 -17
10 14 43 50 51 46 11 46 11 52 2z m206 -7 c0 -8 -9 -15 -20 -15 -11 0 -20 -3
-20 -7 0 -5 33 -8 72 -8 83 0 99 -16 23 -21 -66 -5 -176 8 -175 21 1 6 8 9 17
8 8 0 30 7 47 17 38 23 56 24 56 5z m-155 -25 c4 -6 -8 -10 -29 -10 -20 0 -36
5 -36 10 0 6 13 10 29 10 17 0 33 -4 36 -10z m385 -5 c0 -18 17 -20 23 -2 3 9
7 9 19 -1 9 -7 22 -10 30 -7 8 3 21 -1 28 -10 11 -13 4 -15 -61 -15 -93 0
-119 7 -119 31 0 15 7 19 40 19 29 0 40 -4 40 -15z m-1139 -30 c110 -37 171
-63 179 -76 3 -4 4 -26 2 -48 -4 -36 -7 -39 -30 -38 -25 2 -27 -1 -34 -63 -10
-80 1 -103 53 -119 21 -6 41 -16 44 -21 8 -13 -87 20 -107 38 -19 16 -22 44
-11 141 6 60 7 63 30 58 18 -3 27 1 33 17 13 36 11 37 -157 91 l-103 33 0 -28
c0 -19 7 -30 26 -39 l26 -11 -7 -118 c-4 -64 -8 -118 -10 -120 -1 -1 -10 0
-19 4 -15 6 -16 18 -10 114 l7 107 -27 7 c-23 6 -26 11 -26 50 0 68 0 68 141
21z m-1481 -31 c0 -13 -117 -126 -147 -143 -30 -16 -199 -25 -208 -11 -4 6 5
11 22 12 46 2 51 3 57 9 8 8 -137 19 -254 19 -127 0 -133 5 -86 68 20 28 44
52 54 54 9 3 140 4 289 4 190 -1 273 -4 273 -12z m2209 -39 c97 -6 124 -16
114 -41 -4 -10 2 -14 21 -14 29 0 35 15 9 24 -15 6 -15 8 -3 17 25 15 122 -1
140 -24 9 -11 23 -17 31 -14 10 4 8 8 -8 12 -30 9 -29 21 1 29 27 7 56 -1 56
-15 0 -6 9 -5 21 1 21 12 75 5 97 -13 9 -7 17 -5 27 9 9 12 14 14 15 6 0 -10
10 -12 40 -7 32 5 40 4 40 -8 0 -14 20 -27 41 -27 15 0 6 34 -11 43 -8 4 12 4
45 1 38 -4 64 -12 72 -22 11 -15 12 -15 13 6 0 38 26 26 64 -31 37 -55 34 -67
-16 -68 -79 -1 -242 2 -308 6 -36 2 -184 6 -330 10 -281 6 -274 5 -320 56 -3
3 -26 20 -52 38 -27 17 -48 33 -48 34 0 3 151 -1 249 -8z m-459 -78 c0 -31 5
-45 20 -55 17 -11 20 -23 20 -96 0 -85 -7 -103 -37 -92 -11 5 -12 10 -4 19 6
8 14 46 17 85 7 71 6 72 -20 81 -27 11 -32 32 -20 79 10 37 24 25 24 -21z
m240 -154 c0 -27 -4 -43 -9 -37 -8 8 -4 84 5 84 2 0 4 -21 4 -47z m-37 -55
c-12 -98 -22 -115 -20 -36 1 51 6 78 14 78 7 0 9 -14 6 -42z m767 22 c228 -5
416 -10 418 -10 2 0 1 -4 -2 -9 -7 -11 -520 -5 -726 8 -124 8 -147 7 -157 -6
-10 -13 -13 -12 -22 6 -17 31 -14 34 31 27 24 -4 229 -11 458 -16z m450 -20
c0 -5 -4 -10 -10 -10 -5 0 -10 5 -10 10 0 6 5 10 10 10 6 0 10 -4 10 -10z
m-545 -240 c3 -5 1 -10 -4 -10 -6 0 -11 5 -11 10 0 6 2 10 4 10 3 0 8 -4 11
-10z m365 -10 c0 -5 -4 -10 -10 -10 -5 0 -10 5 -10 10 0 6 5 10 10 10 6 0 10
-4 10 -10z m-650 -31 c0 -6 -4 -7 -10 -4 -5 3 -10 11 -10 16 0 6 5 7 10 4 6
-3 10 -11 10 -16z m310 -19 c0 -5 -2 -10 -4 -10 -3 0 -8 5 -11 10 -3 6 -1 10
4 10 6 0 11 -4 11 -10z m-3550 -19 c0 -5 6 -16 13 -23 24 -26 37 -57 27 -63
-15 -9 -12 -25 4 -25 14 0 18 -20 31 -135 10 -90 18 -131 28 -143 6 -8 12 -61
13 -118 3 -109 8 -129 29 -120 14 5 30 -38 20 -54 -3 -6 -6 -32 -7 -60 0 -27
-4 -50 -8 -50 -12 0 -19 26 -13 49 3 12 1 21 -6 21 -6 0 -11 -9 -11 -19 0 -11
-11 -32 -25 -47 -26 -28 -32 -44 -15 -44 6 0 10 -7 10 -15 0 -8 6 -15 13 -16
9 0 9 -2 0 -6 -8 -3 -4 -12 12 -27 14 -13 22 -26 18 -29 -3 -4 7 -7 23 -7 29
0 54 -15 54 -32 0 -4 -46 -8 -102 -7 -62 1 -93 4 -78 8 23 7 21 8 -17 15 -47
8 -74 0 -52 -16 9 -6 -14 -7 -66 -3 -44 4 -119 7 -166 6 -82 -1 -87 0 -103 24
-9 14 -24 25 -33 25 -13 0 -14 -3 -5 -12 17 -17 15 -30 -5 -26 -11 2 -19 13
-19 28 -1 14 -11 49 -23 79 -11 30 -20 64 -20 75 0 12 -4 41 -9 65 -6 25 -8
49 -6 55 2 6 6 33 8 59 2 27 7 51 9 54 10 9 27 -8 27 -26 0 -10 9 -21 20 -24
12 -3 20 -14 20 -26 0 -12 5 -21 10 -21 6 0 10 11 10 25 0 14 7 28 15 31 32
13 15 32 -27 30 -32 -1 -43 3 -43 14 0 9 11 16 29 18 28 4 29 4 23 54 l-6 50
30 -6 c21 -4 31 -1 35 9 4 8 15 15 25 15 10 0 24 9 31 20 19 29 25 25 32 -22
5 -32 9 -39 16 -28 5 8 10 29 11 45 0 27 1 28 10 9 6 -11 26 -26 45 -33 19 -7
34 -17 34 -22 0 -23 27 -6 35 24 12 40 39 43 43 4 2 -16 10 -31 18 -34 8 -3
14 -19 14 -42 0 -20 5 -43 10 -51 7 -11 10 0 10 36 0 38 4 53 16 58 12 5 15
16 12 41 -3 24 0 35 9 35 7 0 13 3 13 8 -1 15 -28 42 -44 42 -9 0 -16 8 -16
19 0 10 -10 26 -22 35 l-23 16 22 16 c18 13 20 20 12 41 -10 27 -33 53 -46 53
-4 0 -14 -9 -21 -20 -16 -25 -42 -26 -42 -1 0 11 -2 25 -5 33 -3 7 -1 20 5 28
8 12 13 11 33 -8 29 -27 54 -28 61 -2 3 11 9 29 12 40 4 14 1 20 -10 20 -19 0
-20 6 -3 25 14 16 37 20 37 6z m3613 -28 c-13 -2 -33 -2 -45 0 -13 2 -3 4 22
4 25 0 35 -2 23 -4z m-63 -28 c0 -17 -2 -18 -25 -9 -13 5 -14 8 -3 15 19 13
28 11 28 -6z m157 -1 c-3 -3 -12 -4 -19 -1 -8 3 -5 6 6 6 11 1 17 -2 13 -5z
m-26 -83 c-12 -8 -51 -4 -51 5 0 2 15 4 33 4 22 0 28 -3 18 -9z m88 -27 c2 -2
-10 -4 -27 -4 -18 0 -32 5 -32 10 0 9 47 4 59 -6z m-3642 -16 c-3 -8 -6 -5 -6
6 -1 11 2 17 5 13 3 -3 4 -12 1 -19z m3743 -23 c0 -8 -12 -17 -27 -21 -16 -3
-34 -7 -40 -10 -8 -2 -13 6 -13 21 0 22 4 25 40 25 29 0 40 -4 40 -15z m-4050
-56 c0 -5 -7 -9 -15 -9 -9 0 -15 9 -15 21 0 18 2 19 15 9 8 -7 15 -16 15 -21z
m108 8 c2 -12 -3 -17 -17 -17 -12 0 -21 6 -21 13 0 31 32 34 38 4z m211 -24
l-1 -48 -8 40 c-7 37 -5 55 6 55 2 0 3 -21 3 -47z m-413 -18 c-7 -19 -21 -19
-41 1 -14 15 -14 17 2 29 14 10 19 10 31 -1 8 -8 11 -21 8 -29z m204 -24 c15
-28 13 -31 -20 -31 -16 0 -30 3 -30 6 0 12 21 44 30 44 5 0 14 -9 20 -19z
m1446 -72 c10 -17 -13 -36 -27 -22 -12 12 -4 33 11 33 5 0 12 -5 16 -11z
m-1826 -14 c0 -16 -35 -21 -44 -6 -8 12 4 21 26 21 10 0 18 -7 18 -15z m1945
-19 c0 -36 -27 -56 -52 -40 -40 25 -20 77 26 72 21 -2 26 -8 26 -32z m-1344
-13 c-12 -20 -14 -14 -5 12 4 9 9 14 11 11 3 -2 0 -13 -6 -23z m3864 -78 c-15
-53 -20 -29 -8 39 4 25 9 33 14 25 4 -8 1 -36 -6 -64z m-4595 33 c0 -18 -2
-20 -9 -8 -6 8 -7 18 -5 22 9 14 14 9 14 -14z m4660 12 c0 -5 -4 -10 -10 -10
-5 0 -10 5 -10 10 0 6 5 10 10 10 6 0 10 -4 10 -10z m130 -69 c0 -5 -5 -11
-11 -13 -8 -3 -8 -10 2 -26 12 -20 12 -24 -1 -32 -21 -14 -30 -12 -30 5 0 8 5
15 10 15 6 0 5 8 -2 20 -11 17 -10 22 2 30 19 12 30 13 30 1z m-4023 -153 c-3
-8 -6 -5 -6 6 -1 11 2 17 5 13 3 -3 4 -12 1 -19z m1183 -8 c0 -5 -5 -10 -11
-10 -5 0 -7 5 -4 10 3 6 8 10 11 10 2 0 4 -4 4 -10z m-16 -35 c-4 -8 -10 -15
-15 -15 -4 0 -6 7 -3 15 4 8 10 15 15 15 4 0 6 -7 3 -15z m-1109 -33 c0 -18
-20 -15 -23 4 -3 10 1 15 10 12 7 -3 13 -10 13 -16z m1263 -37 c-6 -29 6 -33
22 -7 9 13 10 9 6 -22 -5 -36 -18 -55 -39 -56 -4 0 -4 12 -1 28 l7 27 -23 -20
-23 -20 12 22 c6 12 10 26 10 30 -3 14 13 43 23 43 6 0 8 -11 6 -25z m-2138
-15 c0 -5 -5 -10 -11 -10 -5 0 -7 5 -4 10 3 6 8 10 11 10 2 0 4 -4 4 -10z
m2433 -2 c4 -10 8 -9 16 2 8 12 13 12 30 -4 24 -22 18 -40 -9 -26 -14 7 -19 6
-24 -6 -5 -13 -9 -14 -21 -4 -11 9 -15 5 -21 -24 -3 -20 -10 -33 -16 -30 -5 3
-15 0 -23 -6 -11 -10 -15 -10 -15 -1 0 7 -3 10 -7 8 -5 -3 -6 18 -4 46 3 36 6
45 10 29 7 -27 26 -30 26 -4 0 9 5 17 12 17 6 0 15 3 19 8 11 11 22 9 27 -5z
m-213 -23 c0 -14 5 -25 10 -25 6 0 10 11 10 25 0 14 4 25 8 25 7 0 8 -57 3
-113 -2 -20 -21 7 -21 30 0 20 -4 24 -20 20 -21 -5 -24 3 -14 41 8 30 24 28
24 -3z m96 -59 c-3 -14 -11 -26 -16 -26 -11 0 -14 73 -3 84 12 12 26 -31 19
-58z m2573 -235 c21 -14 -5 -24 -42 -15 -28 6 -30 8 -12 15 27 10 37 10 54 0z
m-72 -97 c-3 -3 -12 -4 -19 -1 -8 3 -5 6 6 6 11 1 17 -2 13 -5z m-895 -654
c11 0 18 -7 18 -20 0 -11 4 -20 9 -20 5 0 12 -15 16 -32 4 -18 11 -47 17 -64
13 -36 -10 -89 -42 -99 -11 -3 -20 -10 -20 -14 0 -4 -14 -17 -31 -30 -26 -19
-35 -21 -61 -12 -27 10 -35 8 -53 -9 -12 -11 -27 -20 -33 -20 -7 0 -12 -11
-12 -25 0 -14 -4 -25 -10 -25 -10 0 -14 15 -11 34 1 6 -3 20 -10 33 -10 19
-10 26 3 40 8 10 21 38 28 63 8 25 32 80 53 122 32 66 43 79 70 86 18 5 36 5
42 1 5 -5 17 -9 27 -9z m-203 -393 c-9 -7 -14 -18 -12 -24 3 -7 0 -13 -6 -13
-6 0 -11 11 -11 25 0 19 5 25 23 25 19 -1 20 -2 6 -13z m-746 -357 c6 -17 21
-33 32 -36 41 -12 135 -58 135 -66 0 -4 7 -8 15 -8 8 0 15 -9 15 -21 0 -11 22
-42 50 -69 54 -53 94 -131 86 -167 -5 -17 0 -25 21 -35 37 -17 69 -82 57 -116
-21 -57 -80 -54 -122 8 -18 26 -22 43 -17 67 5 26 2 33 -10 33 -8 0 -15 -6
-16 -12 0 -10 -2 -10 -6 0 -2 6 -9 9 -15 6 -5 -3 -12 3 -15 14 -3 11 -11 23
-18 26 -7 2 -16 18 -20 34 -7 34 -70 106 -84 98 -5 -4 -12 -2 -16 4 -12 19
-38 11 -32 -10 3 -10 0 -21 -6 -23 -6 -2 -1 -15 11 -33 26 -34 40 -94 23 -94
-18 0 -13 -13 18 -47 33 -36 32 -73 -2 -110 -18 -21 -19 -23 -3 -23 9 0 32 10
49 23 18 12 38 23 45 22 6 0 12 5 11 10 -1 6 -5 9 -10 7 -12 -3 -11 15 1 23
14 8 154 -131 145 -145 -3 -5 -13 -10 -21 -10 -8 0 -14 -4 -14 -9 0 -5 -3 -16
-6 -25 -4 -11 -1 -16 10 -16 9 0 16 7 16 15 0 8 4 15 9 15 5 0 16 2 23 5 16 6
69 -39 87 -73 10 -19 10 -27 -1 -39 -11 -15 -10 -16 11 -10 27 7 71 -18 71
-39 0 -8 9 -14 21 -14 11 0 18 -4 15 -9 -3 -4 -37 -8 -75 -7 -60 1 -72 4 -90
26 -14 17 -20 20 -21 10 0 -13 -1 -13 -10 0 -7 12 -10 11 -16 -5 -4 -11 -11
-22 -16 -26 -10 -7 -597 -3 -605 4 -2 3 0 13 5 23 7 12 6 24 -2 36 -9 15 -8
21 4 28 13 8 13 10 -1 10 -9 0 -28 9 -41 20 -27 21 -68 26 -105 15 -31 -10
-29 9 2 23 14 6 25 16 25 22 0 18 -30 11 -54 -14 l-24 -23 5 59 c4 49 2 59
-11 56 -8 -2 -21 5 -28 15 -12 16 -16 14 -46 -24 -37 -49 -40 -59 -13 -52 24
6 35 -11 18 -29 -8 -7 -19 -24 -26 -37 -12 -21 -11 -22 8 -16 13 4 21 2 21 -6
0 -8 13 -10 41 -6 39 5 42 3 52 -24 6 -16 17 -29 25 -29 7 0 20 -6 28 -14 12
-13 12 -17 -2 -30 -28 -29 -96 -17 -112 19 -7 15 -23 25 -47 29 -44 9 -54 2
-37 -24 17 -28 -3 -35 -23 -8 l-17 23 5 -22 c5 -22 3 -23 -81 -24 -48 -1 -109
-1 -137 -2 -27 0 -69 0 -92 1 l-43 2 0 53 -1 52 -15 -28 c-9 -16 -17 -41 -18
-55 -3 -27 -4 -27 -81 -26 -93 2 -110 16 -62 51 l32 24 17 -22 c10 -12 18 -16
18 -11 0 6 -4 14 -10 17 -17 11 -11 25 11 25 14 0 19 5 16 14 -7 17 43 66 69
67 11 0 14 3 6 6 -10 4 -9 9 4 24 9 10 22 19 27 19 6 0 33 24 61 53 45 47 233
218 333 302 19 17 92 81 161 143 70 61 133 112 140 112 8 0 33 -20 56 -45 24
-25 48 -45 54 -45 6 0 13 -6 15 -12 3 -7 4 8 3 34 -1 26 0 45 2 43 3 -2 19 7
37 20 17 14 37 25 43 25 6 0 16 9 22 20 16 29 40 24 53 -10z m352 -125 c57
-21 85 -38 85 -52 0 -10 6 -13 16 -9 12 5 15 0 13 -23 -4 -30 18 -60 38 -54
18 6 45 -42 41 -74 -2 -20 -9 -29 -25 -31 -32 -5 -73 26 -73 54 0 16 -6 24
-16 24 -9 0 -27 10 -39 23 -44 44 -84 75 -103 81 -10 4 -24 18 -30 32 -15 31
-15 37 -2 29 6 -3 10 -1 10 5 0 11 49 8 85 -5z m-875 -505 c0 -5 -4 -10 -10
-10 -5 0 -10 5 -10 10 0 6 5 10 10 10 6 0 10 -4 10 -10z m-1950 -69 c0 -5 -7
-11 -15 -15 -9 -3 -15 0 -15 9 0 8 7 15 15 15 8 0 15 -4 15 -9z m2100 -40 c0
-6 -4 -13 -10 -16 -5 -3 -10 1 -10 9 0 9 5 16 10 16 6 0 10 -4 10 -9z m10 -61
c0 -5 -2 -10 -4 -10 -3 0 -8 5 -11 10 -3 6 -1 10 4 10 6 0 11 -4 11 -10z m0
-34 c0 -3 -4 -8 -10 -11 -5 -3 -10 -1 -10 4 0 6 5 11 10 11 6 0 10 -2 10 -4z
m737 -12 c-3 -3 -12 -4 -19 -1 -8 3 -5 6 6 6 11 1 17 -2 13 -5z"/>
<path d="M2237 4240 c-52 -4 -81 -11 -88 -21 -13 -22 -11 -27 14 -31 29 -4 26
-26 -19 -122 -19 -41 -34 -78 -34 -83 0 -5 -13 -14 -30 -20 -23 -9 -30 -17
-30 -38 0 -21 4 -26 17 -21 29 11 163 27 173 21 6 -3 19 15 30 42 11 26 25 56
30 66 8 13 7 19 -5 22 -8 3 -22 7 -30 10 -8 2 -15 13 -15 24 0 20 56 53 105
63 12 2 19 10 17 20 -1 10 8 17 28 22 31 6 31 6 13 29 -19 26 -36 28 -176 17z
m103 -25 c0 -2 -6 -5 -13 -8 -8 -3 -14 1 -14 8 0 7 6 11 14 8 7 -3 13 -6 13
-8z m37 9 c-3 -3 -12 -4 -19 -1 -8 3 -5 6 6 6 11 1 17 -2 13 -5z m-87 -178 c0
-3 -4 -8 -10 -11 -5 -3 -10 -1 -10 4 0 6 5 11 10 11 6 0 10 -2 10 -4z"/>
<path d="M2435 4128 c-43 -24 -40 -60 7 -79 41 -17 82 4 86 44 3 21 -2 29 -23
37 -33 13 -45 12 -70 -2z"/>
<path d="M2565 4020 c-3 -5 -2 -10 4 -10 5 0 13 5 16 10 3 6 2 10 -4 10 -5 0
-13 -4 -16 -10z"/>
<path d="M3920 4036 c0 -9 5 -16 10 -16 6 0 10 4 10 9 0 6 -4 13 -10 16 -5 3
-10 -1 -10 -9z"/>
<path d="M743 3040 c0 -25 2 -35 4 -22 2 12 2 32 0 45 -2 12 -4 2 -4 -23z"/>
<path d="M320 3046 c0 -9 5 -16 10 -16 6 0 10 4 10 9 0 6 -4 13 -10 16 -5 3
-10 -1 -10 -9z"/>
<path d="M561 2974 c0 -11 3 -14 6 -6 3 7 2 16 -1 19 -3 4 -6 -2 -5 -13z"/>
<path d="M450 2960 c0 -7 -8 -9 -20 -5 -14 5 -20 2 -20 -10 0 -12 6 -15 20
-10 14 4 20 2 20 -8 0 -8 7 -18 16 -21 12 -5 15 1 12 26 -3 29 -28 54 -28 28z"/>
<path d="M605 2868 c4 -49 35 -52 35 -4 0 29 -4 36 -19 36 -15 0 -18 -6 -16
-32z"/>
<path d="M655 2890 c-4 -7 -3 -16 3 -22 14 -14 47 -6 47 12 0 18 -40 26 -50
10z"/>
<path d="M705 2830 c3 -5 8 -10 11 -10 2 0 4 5 4 10 0 6 -5 10 -11 10 -5 0 -7
-4 -4 -10z"/>
<path d="M705 2770 c-3 -5 -1 -10 4 -10 6 0 11 5 11 10 0 6 -2 10 -4 10 -3 0
-8 -4 -11 -10z"/>
<path d="M280 2669 c0 -5 5 -7 10 -4 6 3 10 8 10 11 0 2 -4 4 -10 4 -5 0 -10
-5 -10 -11z"/>
<path d="M778 2553 c7 -3 16 -2 19 1 4 3 -2 6 -13 5 -11 0 -14 -3 -6 -6z"/>
<path d="M2997 429 c-9 -5 -21 -8 -26 -5 -20 13 -18 -24 5 -64 29 -51 30 -71
4 -88 -11 -7 -20 -19 -20 -27 0 -8 9 -15 20 -15 11 0 20 -7 20 -15 0 -8 -5
-15 -11 -15 -5 0 -8 -4 -5 -9 3 -5 -1 -14 -9 -21 -19 -16 -19 -31 -1 -24 8 3
26 -2 39 -11 24 -15 26 -15 36 2 8 14 12 16 22 5 7 -6 21 -12 31 -12 23 0 24
30 1 30 -15 1 -13 5 10 25 15 13 27 29 27 35 0 16 -27 12 -34 -5 -6 -17 -15
-19 -33 -7 -8 5 -9 19 -4 45 7 27 6 37 -4 37 -6 0 -20 9 -31 21 -24 26 -26
105 -4 119 13 9 13 10 0 10 -8 -1 -23 -5 -33 -11z m30 -185 c-9 -9 -28 6 -21
18 4 6 10 6 17 -1 6 -6 8 -13 4 -17z"/>
<path d="M3208 299 c-2 -6 -15 -12 -28 -13 -14 0 -25 -7 -25 -15 0 -22 21 -24
40 -5 14 15 18 15 26 3 5 -8 9 -23 9 -34 0 -12 3 -16 10 -9 13 13 0 84 -15 84
-8 0 -15 -5 -17 -11z"/>
<path d="M2635 260 c-3 -5 -2 -10 4 -10 5 0 13 5 16 10 3 6 2 10 -4 10 -5 0
-13 -4 -16 -10z"/>
<path d="M2365 200 c-3 -5 -2 -10 4 -10 5 0 13 5 16 10 3 6 2 10 -4 10 -5 0
-13 -4 -16 -10z"/>
<path d="M2920 192 c0 -12 19 -26 26 -19 2 2 -2 10 -11 17 -9 8 -15 8 -15 2z"/>
<path d="M2410 166 c0 -9 5 -16 10 -16 6 0 10 4 10 9 0 6 -4 13 -10 16 -5 3
-10 -1 -10 -9z"/>
<path d="M3145 170 c-3 -5 1 -10 10 -10 9 0 13 5 10 10 -3 6 -8 10 -10 10 -2
0 -7 -4 -10 -10z"/>
<path d="M3185 170 c-3 -5 -1 -10 4 -10 6 0 11 5 11 10 0 6 -2 10 -4 10 -3 0
-8 -4 -11 -10z"/>
<path d="M2866 162 c-4 -6 -12 -9 -20 -6 -7 3 -18 -7 -24 -21 -7 -14 -17 -23
-22 -20 -6 3 -10 -4 -10 -17 1 -21 2 -22 14 -5 8 10 20 15 30 11 18 -7 22 -24
6 -24 -5 0 -10 -7 -10 -16 0 -13 3 -14 15 -4 8 6 18 9 23 6 5 -3 7 6 4 19 -2
14 1 32 8 40 8 9 8 20 2 31 -6 11 -12 13 -16 6z"/>
<path d="M2150 135 c0 -8 5 -15 10 -15 6 0 10 7 10 15 0 8 -4 15 -10 15 -5 0
-10 -7 -10 -15z"/>
<path d="M3400 120 c19 -13 30 -13 30 0 0 6 -10 10 -22 10 -19 0 -20 -2 -8
-10z"/>
<path d="M2195 90 c3 -5 10 -10 16 -10 5 0 9 5 9 10 0 6 -7 10 -16 10 -8 0
-12 -4 -9 -10z"/>
<path d="M2253 70 c3 -39 21 -39 24 0 2 20 -2 30 -12 30 -10 0 -14 -10 -12
-30z"/>
<path d="M1952 68 c6 -18 28 -21 28 -4 0 9 -7 16 -16 16 -9 0 -14 -5 -12 -12z"/>
<path d="M2080 60 c0 -5 4 -10 9 -10 6 0 13 5 16 10 3 6 -1 10 -9 10 -9 0 -16
-4 -16 -10z"/>
<path d="M2930 40 c0 -5 5 -10 10 -10 6 0 10 5 10 10 0 6 -4 10 -10 10 -5 0
-10 -4 -10 -10z"/>
<path d="M1197 3821 c-3 -15 2 -20 24 -25 16 -3 36 -3 46 1 15 6 15 7 -3 14
-18 7 -17 8 3 8 12 1 25 6 28 11 4 6 -13 10 -43 10 -40 0 -51 -4 -55 -19z"/>
<path d="M850 3791 c0 -6 5 -13 10 -16 6 -3 10 1 10 9 0 9 -4 16 -10 16 -5 0
-10 -4 -10 -9z"/>
<path d="M1040 3700 c0 -5 5 -10 10 -10 6 0 10 5 10 10 0 6 -4 10 -10 10 -5 0
-10 -4 -10 -10z"/>
<path d="M880 3669 c0 -5 5 -7 10 -4 6 3 10 8 10 11 0 2 -4 4 -10 4 -5 0 -10
-5 -10 -11z"/>
<path d="M1125 3591 c-3 -5 -1 -12 5 -16 5 -3 10 1 10 9 0 18 -6 21 -15 7z"/>
<path d="M870 3558 c0 -5 -4 -6 -10 -3 -5 3 -10 -2 -10 -13 0 -20 3 -20 128
-25 34 -1 62 -5 62 -9 0 -5 6 -8 14 -8 8 0 17 -4 20 -9 3 -5 -29 -9 -71 -10
-42 -1 -79 -3 -81 -6 -3 -3 45 -5 106 -5 100 0 112 2 112 18 0 14 -2 15 -10 2
-8 -13 -10 -13 -10 1 0 23 -103 65 -146 60 -11 -1 -39 2 -62 7 -27 6 -42 6
-42 0z"/>
<path d="M1140 3535 c0 -8 5 -15 10 -15 6 0 10 7 10 15 0 8 -4 15 -10 15 -5 0
-10 -7 -10 -15z"/>
<path d="M870 3290 c0 -12 8 -12 35 0 18 8 17 9 -7 9 -16 1 -28 -3 -28 -9z"/>
<path d="M960 3260 c0 -15 70 -24 83 -11 9 9 8 11 -4 6 -10 -4 -20 -2 -24 4
-8 14 -55 15 -55 1z"/>
<path d="M1110 3156 c0 -9 40 -13 46 -5 3 5 -6 9 -20 9 -14 0 -26 -2 -26 -4z"/>
<path d="M950 3010 c0 -5 7 -10 15 -10 8 0 15 5 15 10 0 6 -7 10 -15 10 -8 0
-15 -4 -15 -10z"/>
<path d="M988 2843 c6 -2 18 -2 25 0 6 3 1 5 -13 5 -14 0 -19 -2 -12 -5z"/>
<path d="M1058 2843 c12 -2 32 -2 45 0 12 2 2 4 -23 4 -25 0 -35 -2 -22 -4z"/>
<path d="M1088 2753 c7 -3 16 -2 19 1 4 3 -2 6 -13 5 -11 0 -14 -3 -6 -6z"/>
<path d="M88 2593 c7 -3 16 -2 19 1 4 3 -2 6 -13 5 -11 0 -14 -3 -6 -6z"/>
<path d="M25 2580 c-4 -6 6 -10 22 -10 22 0 25 2 13 10 -19 12 -27 12 -35 0z"/>
<path d="M0 2050 l0 -130 108 -1 c59 -1 139 -4 177 -8 l70 -6 -105 -68 c-58
-38 -138 -90 -177 -115 l-73 -47 0 -432 c0 -238 1 -433 3 -433 3 0 136 95 207
147 13 10 153 109 310 220 157 111 290 206 295 210 6 5 55 39 110 77 105 73
117 84 108 100 -4 5 -14 39 -24 75 -20 75 -17 125 13 224 17 54 22 98 23 177
l0 105 -120 2 c-239 4 -881 24 -902 29 -23 4 -23 4 -23 -126z"/>
<path d="M1181 2118 c1 -43 21 -148 30 -154 5 -3 9 -14 9 -24 0 -10 14 -30 31
-44 33 -28 55 -27 39 2 -5 9 -20 49 -34 87 -47 138 -75 187 -75 133z"/>
<path d="M2966 2090 c-27 -12 -61 -29 -75 -39 -53 -36 -210 -79 -396 -107 -81
-12 -144 -15 -240 -10 -160 7 -183 10 -366 47 -169 34 -165 33 -150 15 7 -8
31 -18 54 -21 65 -11 95 -36 61 -49 -10 -4 -30 4 -51 20 -56 43 -48 21 17 -42
57 -56 138 -115 191 -140 13 -7 58 -28 99 -48 100 -48 135 -55 143 -27 9 35
91 22 147 -24 15 -13 95 -8 221 13 102 18 308 142 234 142 -8 0 -19 9 -25 20
-8 15 -8 18 3 14 8 -3 19 2 26 10 7 9 28 18 47 22 19 3 34 11 34 16 0 6 -13 8
-32 4 -18 -4 -50 -10 -71 -13 -36 -5 -38 -4 -35 18 2 15 11 25 23 27 11 2 29
7 40 12 11 4 36 11 55 13 19 3 43 9 53 12 13 6 20 2 24 -14 3 -11 8 -21 12
-20 9 0 91 115 91 128 0 6 5 11 12 11 8 0 9 3 2 10 -21 21 -97 21 -148 0z
m-841 -177 c22 -3 47 -11 55 -18 8 -7 46 -15 85 -19 38 -4 76 -13 85 -21 12
-11 50 -13 188 -10 94 3 172 1 172 -3 0 -19 -43 -74 -72 -92 -53 -32 -128 -45
-174 -30 -57 18 -101 55 -114 95 -8 24 -18 35 -31 35 -10 0 -19 -5 -19 -10 0
-6 -14 -26 -31 -45 -57 -62 -179 -67 -227 -8 -26 31 -62 97 -62 112 0 6 19 8
48 4 45 -5 46 -4 27 12 -20 16 -20 16 5 10 14 -3 43 -9 65 -12z m369 -28 c4
-12 -3 -15 -32 -14 -21 1 -28 3 -17 6 11 3 24 9 30 14 12 12 12 12 19 -6z m89
0 c8 -20 -5 -26 -43 -18 -31 6 -32 7 -15 20 25 17 51 17 58 -2z m117 5 c0 -5
-19 -14 -41 -20 -33 -9 -44 -9 -50 1 -4 7 -5 17 -3 21 7 11 94 10 94 -2z
m-480 -190 c0 -5 -4 -10 -10 -10 -5 0 -10 5 -10 10 0 6 5 10 10 10 6 0 10 -4
10 -10z m240 -20 c12 -8 11 -10 -7 -10 -12 0 -25 5 -28 10 -8 13 15 13 35 0z"/>
<path d="M1300 1841 c0 -5 5 -13 10 -16 6 -3 10 -2 10 4 0 5 -4 13 -10 16 -5
3 -10 2 -10 -4z"/>
<path d="M1325 1770 c4 -25 13 -55 21 -67 8 -12 14 -28 14 -34 0 -7 15 -30 34
-53 41 -51 44 -94 6 -113 -48 -24 -65 -17 -91 39 -13 28 -36 65 -52 81 -27 29
-28 29 -41 11 -8 -10 -19 -45 -26 -77 -23 -103 8 -155 107 -175 28 -6 39 -13
41 -29 5 -32 -34 -66 -69 -61 -41 6 -36 -10 5 -17 39 -8 73 0 98 22 13 12 15
21 7 40 -15 39 -12 46 40 87 87 69 93 115 25 181 -25 25 -49 45 -54 45 -11 0
-30 57 -30 92 0 16 -9 39 -21 51 l-21 22 7 -45z m34 -299 c16 -10 6 -51 -13
-51 -22 0 -36 22 -25 42 11 20 18 22 38 9z"/>
<path d="M1540 1541 c0 -5 7 -15 17 -22 15 -13 15 -12 4 9 -12 23 -21 28 -21
13z"/>
<path d="M36 582 c-10 -17 5 -42 25 -42 24 0 24 12 0 34 -11 10 -22 13 -25 8z"/>
<path d="M140 519 c0 -11 44 -19 53 -10 5 5 -5 11 -22 13 -17 3 -31 1 -31 -3z"/>
<path d="M10 481 c0 -6 5 -13 10 -16 6 -3 10 1 10 9 0 9 -4 16 -10 16 -5 0
-10 -4 -10 -9z"/>
<path d="M90 420 c-8 -16 -4 -26 27 -56 39 -39 57 -32 29 11 -9 13 -16 31 -16
39 0 23 -29 27 -40 6z"/>
<path d="M4520 410 c0 -5 5 -10 10 -10 6 0 10 5 10 10 0 6 -4 10 -10 10 -5 0
-10 -4 -10 -10z"/>
<path d="M4750 354 c0 -8 5 -12 10 -9 6 3 10 10 10 16 0 5 -4 9 -10 9 -5 0
-10 -7 -10 -16z"/>
<path d="M341 344 c0 -11 3 -14 6 -6 3 7 2 16 -1 19 -3 4 -6 -2 -5 -13z"/>
<path d="M450 344 c0 -8 5 -12 10 -9 6 3 10 10 10 16 0 5 -4 9 -10 9 -5 0 -10
-7 -10 -16z"/>
<path d="M4820 303 c0 -5 11 -13 24 -19 20 -9 23 -9 18 8 -4 17 -42 27 -42 11z"/>
<path d="M4786 279 c3 -5 14 -14 25 -19 15 -8 19 -7 19 3 0 8 -11 17 -25 19
-13 3 -22 1 -19 -3z"/>
<path d="M4725 240 c-3 -5 -1 -10 4 -10 6 0 11 5 11 10 0 6 -2 10 -4 10 -3 0
-8 -4 -11 -10z"/>
<path d="M175 221 c-3 -5 -1 -12 5 -16 12 -7 30 2 30 16 0 12 -27 12 -35 0z"/>
<path d="M330 210 c0 -5 5 -10 10 -10 6 0 10 5 10 10 0 6 -4 10 -10 10 -5 0
-10 -4 -10 -10z"/>
<path d="M277 181 c-9 -16 -17 -41 -17 -56 0 -23 2 -26 15 -15 8 7 15 27 15
44 0 18 5 37 12 44 7 7 8 12 2 12 -5 0 -17 -13 -27 -29z"/>
<path d="M215 170 c-3 -5 -1 -10 4 -10 6 0 11 5 11 10 0 6 -2 10 -4 10 -3 0
-8 -4 -11 -10z"/>
<path d="M340 160 c0 -5 5 -10 10 -10 6 0 10 5 10 10 0 6 -4 10 -10 10 -5 0
-10 -4 -10 -10z"/>
<path d="M6 142 c-5 -8 42 -57 48 -51 3 2 -6 16 -19 31 -13 16 -26 24 -29 20z"/>
<path d="M75 122 c-12 -13 -3 -21 25 -20 17 1 30 4 30 8 0 9 -47 19 -55 12z"/>
<path d="M290 99 c0 -24 23 -21 28 4 2 10 -3 17 -12 17 -10 0 -16 -9 -16 -21z"/>
<path d="M210 55 c0 -8 5 -15 10 -15 6 0 10 7 10 15 0 8 -4 15 -10 15 -5 0
-10 -7 -10 -15z"/>
<path d="M275 61 c-3 -5 -1 -12 5 -16 5 -3 10 1 10 9 0 18 -6 21 -15 7z"/>
</g>
</svg>
