<svg id="kity_svg_6" xmlns="http://www.w3.org/2000/svg" xmlns:xlink="http://www.w3.org/1999/xlink" version="1.1" width="1019" height="242" style="background: rgb(251, 251, 251); visibility: visible;" viewBox="0 0 1019 242"><defs id="kity_defs_7"><linearGradient id="kity_linearGradient_17" x1="0" y1="0" x2="0" y2="1"><stop id="kity_stop_18" offset="0" stop-color="rgb(255, 255, 255)"></stop><stop id="kity_stop_19" offset="1" stop-color="rgb(204, 204, 204)"></stop></linearGradient><marker id="kity_marker_2" orient="auto" refX="6" refY="0" viewBox="-7 -7 14 14" markerWidth="7" markerHeight="7" markerUnits="userSpaceOnUse"><path id="kity_path_3" fill="rgb(115, 161, 191)" stroke="none" d="M6,0A6,6,0,1,1,-6,0A6,6,0,1,1,6,0"></path></marker></defs><g id="kity_g_8"><g id="minder1" text-rendering="optimize-speed"><g id="minder_connect_group1"><path id="kity_path_31" fill="none" stroke="rgb(115, 161, 191)" stroke-width="1" d="M55.00000738352537,140.50000569969416A152.5,0,0,0,1,207.50000738352537,140.50000569969416"></path><path id="kity_path_33" fill="none" stroke="rgb(115, 161, 191)" stroke-width="1" d="M362.50000738352537,140.50000569969416C382.50000738352537,140.50000569969416,382.50000738352537,69.50000569969416,402.50000738352537,69.50000569969416"></path><path id="kity_path_35" fill="none" stroke="rgb(115, 161, 191)" stroke-width="1" d="M567.5000073835254,69.50000569969416C587.5000073835254,69.50000569969416,587.5000073835254,37.50000569969416,607.5000073835254,37.50000569969416"></path><path id="kity_path_37" fill="none" stroke="rgb(115, 161, 191)" stroke-width="1" d="M567.5000073835254,69.50000569969416C587.5000073835254,69.50000569969416,587.5000073835254,101.50000569969416,607.5000073835254,101.50000569969416"></path><path id="kity_path_39" fill="none" stroke="rgb(115, 161, 191)" stroke-width="1" d="M362.50000738352537,140.50000569969416C382.50000738352537,140.50000569969416,382.50000738352537,159.50000569969416,402.50000738352537,159.50000569969416"></path><path id="kity_path_41" fill="none" stroke="rgb(115, 161, 191)" stroke-width="1" d="M362.50000738352537,140.50000569969416C382.50000738352537,140.50000569969416,382.50000738352537,211.50000569969416,402.50000738352537,211.50000569969416"></path></g><g id="minder_node1"><path id="node_outline1" fill="rgb(115, 161, 191)" stroke="rgb(115, 161, 191)" d="M25.50000738352537,120.50000569969416h59a5,5,0,0,1,5,5v30a5,5,0,0,1,-5,5h-59a5,5,0,0,1,-5,-5v-30a5,5,0,0,1,5,-5z" stroke-width="3"></path><g id="node_text1" fill="white"><text id="kity_text_22" text-rendering="inherit" font-size="16" dy=".8em" y="130.10000566393137" x="44.50000738352537">All</text></g></g><g id="kity_g_12"><path id="kity_path_13" fill="none" stroke="none" d="M44.50000738352537,140.50000569969416h0v0h0z"></path></g><g id="kity_g_14"><path id="kity_path_15" fill="none" stroke="none" d="M44.50000738352537,140.50000569969416h0v0h0z"></path><path id="kity_path_16" fill="none" stroke="none"></path></g><g id="minder_node2"><g id="node_expander1" style="cursor: pointer;"><path id="kity_path_46" fill="white" stroke="gray" d="M208.50000973790884,140.50000569969416A6,6,0,1,1,196.50000973790884,140.50000569969416A6,6,0,1,1,208.50000973790884,140.50000569969416"></path><path id="kity_path_47" fill="none" stroke="gray" d="M198.00000973790884,140.50000569969416L207.00000973790884,140.50000569969416"></path></g><path id="node_outline2" fill="rgb(238, 243, 246)" stroke="rgb(115, 161, 191)" d="M212.5000101402402,127.50000569969416h147a3,3,0,0,1,3,3v20a3,3,0,0,1,-3,3h-147a3,3,0,0,1,-3,-3v-20a3,3,0,0,1,3,-3z" stroke-width="1"></path><g id="node_text2" fill="black"><text id="kity_text_43" text-rendering="inherit" font-size="14" dy=".8em" y="131.40000566840172" x="229.5000101402402">BaseObject[属性]</text></g></g><g id="minder_node3"><g id="node_expander4" style="cursor: pointer;"><path id="kity_path_70" fill="white" stroke="gray" d="M402.5000126287341,69.50000464171171A6,6,0,1,1,390.5000126287341,69.50000464171171A6,6,0,1,1,402.5000126287341,69.50000464171171"></path><path id="kity_path_71" fill="none" stroke="gray" d="M392.0000126287341,69.50000464171171L401.0000126287341,69.50000464171171"></path></g><path id="node_outline5" fill="none" stroke="none" d="M407.5000128671527,58.50000464171171h155a5,5,0,0,1,5,5v12a5,5,0,0,1,-5,5h-155a5,5,0,0,1,-5,-5v-12a5,5,0,0,1,5,-5z" stroke-width="3"></path><g id="node_text5" fill="black"><text id="kity_text_53" text-rendering="inherit" font-size="12" dy=".8em" y="61.70000461488962" x="412.5000128671527">Component[+事件、行为]</text></g></g><g id="minder_node4"><g id="node_expander2" style="cursor: pointer;" display="none"><path id="kity_path_64" fill="white" stroke="gray" d="M607.5000156834722,37.500004164874554A6,6,0,1,1,595.5000156834722,37.500004164874554A6,6,0,1,1,607.5000156834722,37.500004164874554"></path><path id="kity_path_65" fill="none" stroke="gray"></path></g><path id="node_outline3" fill="none" stroke="none" d="M612.5000159218907,20.500004164874554h382a5,5,0,0,1,5,5v24a5,5,0,0,1,-5,5h-382a5,5,0,0,1,-5,-5v-24a5,5,0,0,1,5,-5z" stroke-width="3"></path><g id="node_text3" fill="black"><text id="kity_text_49" text-rendering="inherit" font-size="12" dy=".8em" y="29.700004138052464" x="617.5000159218907">Container[+实例、依赖]&#xa0;用来解析依赖，创建实例</text></g><g id="kity_g_82"><g id="kity_g_83"><path id="kity_path_84" fill="rgb(255, 179, 251)" stroke="none" d="M891.5000200048089,24.500004149973392h98v24h-98z"></path><text id="kity_text_85" text-rendering="geometricPrecision" font-size="12" dy="5" x="899.5000200048089" fill="rgb(77, 0, 73)" y="36.50000414997339">Yii::$container</text></g></g></g><g id="minder_node5"><g id="node_expander3" style="cursor: pointer;" display="none"><path id="kity_path_67" fill="white" stroke="gray" d="M607.5000156834722,101.50000511854887A6,6,0,1,1,595.5000156834722,101.50000511854887A6,6,0,1,1,607.5000156834722,101.50000511854887"></path><path id="kity_path_68" fill="none" stroke="gray"></path></g><path id="node_outline4" fill="none" stroke="none" d="M612.5000159218907,84.50000511854887h235a5,5,0,0,1,5,5v24a5,5,0,0,1,-5,5h-235a5,5,0,0,1,-5,-5v-24a5,5,0,0,1,5,-5z" stroke-width="3"></path><g id="node_text4" fill="black"><text id="kity_text_51" text-rendering="inherit" font-size="12" dy=".8em" y="93.70000509172678" x="617.5000159218907">ServiceLocator[+服务/组件]</text></g><g id="kity_g_78"><g id="kity_g_79"><path id="kity_path_80" fill="rgb(255, 244, 179)" stroke="none" d="M776.5000182911754,88.50000510364771h66v24h-66z"></path><text id="kity_text_81" text-rendering="geometricPrecision" font-size="12" dy="5" x="784.5000182911754" fill="rgb(77, 65, 0)" y="100.50000510364771">Yii::$app</text></g></g></g><g id="minder_node6"><g id="node_expander5" style="cursor: pointer;" display="none"><path id="kity_path_73" fill="white" stroke="gray" d="M402.5000126287341,159.50000598281622A6,6,0,1,1,390.5000126287341,159.50000598281622A6,6,0,1,1,402.5000126287341,159.50000598281622"></path><path id="kity_path_74" fill="none" stroke="gray"></path></g><path id="node_outline6" fill="none" stroke="none" d="M407.5000128671527,148.50000598281622h42a5,5,0,0,1,5,5v12a5,5,0,0,1,-5,5h-42a5,5,0,0,1,-5,-5v-12a5,5,0,0,1,5,-5z" stroke-width="3"></path><g id="node_text6" fill="black"><text id="kity_text_55" text-rendering="inherit" font-size="12" dy=".8em" y="151.70000595599413" x="412.5000128671527">Event</text></g></g><g id="minder_node7"><g id="node_expander6" style="cursor: pointer;" display="none"><path id="kity_path_76" fill="white" stroke="gray" d="M402.5000126287341,211.5000067576766A6,6,0,1,1,390.5000126287341,211.5000067576766A6,6,0,1,1,402.5000126287341,211.5000067576766"></path><path id="kity_path_77" fill="none" stroke="gray"></path></g><path id="node_outline7" fill="none" stroke="none" d="M407.5000128671527,200.5000067576766h60a5,5,0,0,1,5,5v12a5,5,0,0,1,-5,5h-60a5,5,0,0,1,-5,-5v-12a5,5,0,0,1,5,-5z" stroke-width="3"></path><g id="node_text7" fill="black"><text id="kity_text_57" text-rendering="inherit" font-size="12" dy=".8em" y="203.7000067308545" x="412.5000128671527">Behavior</text></g></g></g></g></svg>