<svg id="kity_svg_6" xmlns="http://www.w3.org/2000/svg" xmlns:xlink="http://www.w3.org/1999/xlink" version="1.1" width="1229" height="1309" style="background: rgb(251, 251, 251); visibility: visible;" viewBox="0 0 1229 1309"><defs id="kity_defs_7"><linearGradient id="kity_linearGradient_17" x1="0" y1="0" x2="0" y2="1"><stop id="kity_stop_18" offset="0" stop-color="rgb(255, 255, 255)"></stop><stop id="kity_stop_19" offset="1" stop-color="rgb(204, 204, 204)"></stop></linearGradient><marker id="kity_marker_2" orient="auto" refX="6" refY="0" viewBox="-7 -7 14 14" markerWidth="7" markerHeight="7" markerUnits="userSpaceOnUse"><path id="kity_path_3" fill="rgb(115, 161, 191)" stroke="none" d="M6,0A6,6,0,1,1,-6,0A6,6,0,1,1,6,0"></path></marker></defs><g id="kity_g_8"><g id="minder1" text-rendering="optimize-speed"><g id="minder_connect_group1"><path id="kity_path_31" fill="none" stroke="rgb(115, 161, 191)" stroke-width="1" d="M62.000011183321476,884.5000043287873A159.5,0,0,0,1,221.50001118332148,884.5000043287873"></path><path id="kity_path_33" fill="none" stroke="rgb(115, 161, 191)" stroke-width="1" d="M339.5000111833215,884.5000043287873C359.5000111833215,884.5000043287873,359.5000111833215,543.5000043287873,379.5000111833215,543.5000043287873"></path><path id="kity_path_35" fill="none" stroke="rgb(115, 161, 191)" stroke-width="1" d="M424.5000111833215,543.5000043287873C444.5000111833215,543.5000043287873,444.5000111833215,121.50000432878733,464.5000111833215,121.50000432878733"></path><path id="kity_path_37" fill="none" stroke="rgb(115, 161, 191)" stroke-width="1" d="M733.5000111833215,121.50000432878733C753.5000111833215,121.50000432878733,753.5000111833215,56.50000432878733,773.5000111833215,56.50000432878733"></path><path id="kity_path_39" fill="none" stroke="rgb(115, 161, 191)" stroke-width="1" d="M819.5000111833215,56.50000432878733C839.5000111833215,56.50000432878733,839.5000111833215,30.500004328787327,859.5000111833215,30.500004328787327"></path><path id="kity_path_41" fill="none" stroke="rgb(115, 161, 191)" stroke-width="1" d="M819.5000111833215,56.50000432878733C839.5000111833215,56.50000432878733,839.5000111833215,82.50000432878733,859.5000111833215,82.50000432878733"></path><path id="kity_path_43" fill="none" stroke="rgb(115, 161, 191)" stroke-width="1" d="M733.5000111833215,121.50000432878733C753.5000111833215,121.50000432878733,753.5000111833215,186.50000432878733,773.5000111833215,186.50000432878733"></path><path id="kity_path_45" fill="none" stroke="rgb(115, 161, 191)" stroke-width="1" d="M819.5000111833215,186.50000432878733C839.5000111833215,186.50000432878733,839.5000111833215,134.50000432878733,859.5000111833215,134.50000432878733"></path><path id="kity_path_47" fill="none" stroke="rgb(115, 161, 191)" stroke-width="1" d="M819.5000111833215,186.50000432878733C839.5000111833215,186.50000432878733,839.5000111833215,186.50000432878733,859.5000111833215,186.50000432878733"></path><path id="kity_path_49" fill="none" stroke="rgb(115, 161, 191)" stroke-width="1" d="M819.5000111833215,186.50000432878733C839.5000111833215,186.50000432878733,839.5000111833215,238.50000432878733,859.5000111833215,238.50000432878733"></path><path id="kity_path_51" fill="none" stroke="rgb(115, 161, 191)" stroke-width="1" d="M424.5000111833215,543.5000043287873C444.5000111833215,543.5000043287873,444.5000111833215,589.5000043287873,464.5000111833215,589.5000043287873"></path><path id="kity_path_53" fill="none" stroke="rgb(115, 161, 191)" stroke-width="1" d="M516.5000111833215,589.5000043287873C536.5000111833215,589.5000043287873,536.5000111833215,368.5000043287873,556.5000111833215,368.5000043287873"></path><path id="kity_path_55" fill="none" stroke="rgb(115, 161, 191)" stroke-width="1" d="M602.5000111833215,368.5000043287873C622.5000111833215,368.5000043287873,622.5000111833215,290.5000043287873,642.5000111833215,290.5000043287873"></path><path id="kity_path_57" fill="none" stroke="rgb(115, 161, 191)" stroke-width="1" d="M602.5000111833215,368.5000043287873C622.5000111833215,368.5000043287873,622.5000111833215,342.5000043287873,642.5000111833215,342.5000043287873"></path><path id="kity_path_59" fill="none" stroke="rgb(115, 161, 191)" stroke-width="1" d="M602.5000111833215,368.5000043287873C622.5000111833215,368.5000043287873,622.5000111833215,394.5000043287873,642.5000111833215,394.5000043287873"></path><path id="kity_path_61" fill="none" stroke="rgb(115, 161, 191)" stroke-width="1" d="M602.5000111833215,368.5000043287873C622.5000111833215,368.5000043287873,622.5000111833215,446.5000043287873,642.5000111833215,446.5000043287873"></path><path id="kity_path_63" fill="none" stroke="rgb(115, 161, 191)" stroke-width="1" d="M516.5000111833215,589.5000043287873C536.5000111833215,589.5000043287873,536.5000111833215,602.5000043287873,556.5000111833215,602.5000043287873"></path><path id="kity_path_65" fill="none" stroke="rgb(115, 161, 191)" stroke-width="1" d="M602.5000111833215,602.5000043287873C622.5000111833215,602.5000043287873,622.5000111833215,498.5000043287873,642.5000111833215,498.5000043287873"></path><path id="kity_path_67" fill="none" stroke="rgb(115, 161, 191)" stroke-width="1" d="M602.5000111833215,602.5000043287873C622.5000111833215,602.5000043287873,622.5000111833215,550.5000043287873,642.5000111833215,550.5000043287873"></path><path id="kity_path_69" fill="none" stroke="rgb(115, 161, 191)" stroke-width="1" d="M602.5000111833215,602.5000043287873C622.5000111833215,602.5000043287873,622.5000111833215,602.5000043287873,642.5000111833215,602.5000043287873"></path><path id="kity_path_71" fill="none" stroke="rgb(115, 161, 191)" stroke-width="1" d="M602.5000111833215,602.5000043287873C622.5000111833215,602.5000043287873,622.5000111833215,654.5000043287873,642.5000111833215,654.5000043287873"></path><path id="kity_path_73" fill="none" stroke="rgb(115, 161, 191)" stroke-width="1" d="M602.5000111833215,602.5000043287873C622.5000111833215,602.5000043287873,622.5000111833215,706.5000043287873,642.5000111833215,706.5000043287873"></path><path id="kity_path_75" fill="none" stroke="rgb(115, 161, 191)" stroke-width="1" d="M516.5000111833215,589.5000043287873C536.5000111833215,589.5000043287873,536.5000111833215,810.5000043287873,556.5000111833215,810.5000043287873"></path><path id="kity_path_77" fill="none" stroke="rgb(115, 161, 191)" stroke-width="1" d="M601.5000111833215,810.5000043287873C621.5000111833215,810.5000043287873,621.5000111833215,758.5000043287873,641.5000111833215,758.5000043287873"></path><path id="kity_path_79" fill="none" stroke="rgb(115, 161, 191)" stroke-width="1" d="M601.5000111833215,810.5000043287873C621.5000111833215,810.5000043287873,621.5000111833215,810.5000043287873,641.5000111833215,810.5000043287873"></path><path id="kity_path_81" fill="none" stroke="rgb(115, 161, 191)" stroke-width="1" d="M601.5000111833215,810.5000043287873C621.5000111833215,810.5000043287873,621.5000111833215,862.5000043287873,641.5000111833215,862.5000043287873"></path><path id="kity_path_83" fill="none" stroke="rgb(115, 161, 191)" stroke-width="1" d="M424.5000111833215,543.5000043287873C444.5000111833215,543.5000043287873,444.5000111833215,966.5000043287873,464.5000111833215,966.5000043287873"></path><path id="kity_path_85" fill="none" stroke="rgb(115, 161, 191)" stroke-width="1" d="M534.5000111833215,966.5000043287873C554.5000111833215,966.5000043287873,554.5000111833215,914.5000043287873,574.5000111833215,914.5000043287873"></path><path id="kity_path_87" fill="none" stroke="rgb(115, 161, 191)" stroke-width="1" d="M620.5000111833215,914.5000043287873C640.5000111833215,914.5000043287873,640.5000111833215,914.5000043287873,660.5000111833215,914.5000043287873"></path><path id="kity_path_89" fill="none" stroke="rgb(115, 161, 191)" stroke-width="1" d="M534.5000111833215,966.5000043287873C554.5000111833215,966.5000043287873,554.5000111833215,1018.5000043287873,574.5000111833215,1018.5000043287873"></path><path id="kity_path_91" fill="none" stroke="rgb(115, 161, 191)" stroke-width="1" d="M620.5000111833215,1018.5000043287873C640.5000111833215,1018.5000043287873,640.5000111833215,966.5000043287873,660.5000111833215,966.5000043287873"></path><path id="kity_path_93" fill="none" stroke="rgb(115, 161, 191)" stroke-width="1" d="M620.5000111833215,1018.5000043287873C640.5000111833215,1018.5000043287873,640.5000111833215,1018.5000043287873,660.5000111833215,1018.5000043287873"></path><path id="kity_path_95" fill="none" stroke="rgb(115, 161, 191)" stroke-width="1" d="M620.5000111833215,1018.5000043287873C640.5000111833215,1018.5000043287873,640.5000111833215,1070.5000043287873,660.5000111833215,1070.5000043287873"></path><path id="kity_path_97" fill="none" stroke="rgb(115, 161, 191)" stroke-width="1" d="M339.5000111833215,884.5000043287873C359.5000111833215,884.5000043287873,359.5000111833215,1121.5000043287873,379.5000111833215,1121.5000043287873"></path><path id="kity_path_99" fill="none" stroke="rgb(115, 161, 191)" stroke-width="1" d="M425.5000111833215,1121.5000043287873C445.5000111833215,1121.5000043287873,445.5000111833215,1121.5000043287873,465.5000111833215,1121.5000043287873"></path><path id="kity_path_101" fill="none" stroke="rgb(115, 161, 191)" stroke-width="1" d="M339.5000111833215,884.5000043287873C359.5000111833215,884.5000043287873,359.5000111833215,1225.5000043287873,379.5000111833215,1225.5000043287873"></path><path id="kity_path_103" fill="none" stroke="rgb(115, 161, 191)" stroke-width="1" d="M448.5000111833215,1225.5000043287873C468.5000111833215,1225.5000043287873,468.5000111833215,1173.5000043287873,488.5000111833215,1173.5000043287873"></path><path id="kity_path_105" fill="none" stroke="rgb(115, 161, 191)" stroke-width="1" d="M448.5000111833215,1225.5000043287873C468.5000111833215,1225.5000043287873,468.5000111833215,1225.5000043287873,488.5000111833215,1225.5000043287873"></path><path id="kity_path_107" fill="none" stroke="rgb(115, 161, 191)" stroke-width="1" d="M448.5000111833215,1225.5000043287873C468.5000111833215,1225.5000043287873,468.5000111833215,1277.5000043287873,488.5000111833215,1277.5000043287873"></path></g><g id="minder_node1"><path id="node_outline1" fill="rgb(115, 161, 191)" stroke="rgb(115, 161, 191)" d="M25.500011183321476,864.5000043287873h73a5,5,0,0,1,5,5v30a5,5,0,0,1,-5,5h-73a5,5,0,0,1,-5,-5v-30a5,5,0,0,1,5,-5z" stroke-width="3"></path><g id="node_text1" fill="white"><text id="kity_text_22" text-rendering="inherit" font-size="16" dy=".8em" y="874.1000042930245" x="44.500011183321476">Base</text></g></g><g id="kity_g_12"><path id="kity_path_13" fill="none" stroke="none" d="M44.500011183321476,884.5000043287873h0v0h0z"></path></g><g id="kity_g_14"><path id="kity_path_15" fill="none" stroke="none" d="M44.500011183321476,884.5000043287873h0v0h0z"></path><path id="kity_path_16" fill="none" stroke="none"></path></g><g id="minder_node2"><g id="node_expander39" style="cursor: pointer;"><path id="kity_path_340" fill="white" stroke="gray" d="M222.5000137463212,884.5000043287873A6,6,0,1,1,210.5000137463212,884.5000043287873A6,6,0,1,1,222.5000137463212,884.5000043287873"></path><path id="kity_path_341" fill="none" stroke="gray" d="M212.0000137463212,884.5000043287873L221.0000137463212,884.5000043287873"></path></g><path id="node_outline40" fill="rgb(238, 243, 246)" stroke="rgb(115, 161, 191)" d="M226.50001414865255,871.5000043287873h110a3,3,0,0,1,3,3v20a3,3,0,0,1,-3,3h-110a3,3,0,0,1,-3,-3v-20a3,3,0,0,1,3,-3z" stroke-width="1"></path><g id="node_text40" fill="black"><text id="kity_text_185" text-rendering="inherit" font-size="14" dy=".8em" y="875.4000042974949" x="243.50001414865255">BaseObject</text></g></g><g id="minder_node3"><g id="node_expander32" style="cursor: pointer;"><path id="kity_path_319" fill="white" stroke="gray" d="M379.5000160858035,543.4999992474914A6,6,0,1,1,367.5000160858035,543.4999992474914A6,6,0,1,1,379.5000160858035,543.4999992474914"></path><path id="kity_path_320" fill="none" stroke="gray" d="M369.0000160858035,543.4999992474914L378.0000160858035,543.4999992474914"></path></g><path id="node_outline33" fill="none" stroke="none" d="M384.5000163242221,532.4999992474914h35a5,5,0,0,1,5,5v12a5,5,0,0,1,-5,5h-35a5,5,0,0,1,-5,-5v-12a5,5,0,0,1,5,-5z" stroke-width="3"></path><g id="node_text33" fill="black"><text id="kity_text_171" text-rendering="inherit" font-size="12" dy=".8em" y="535.6999992206693" x="389.5000163242221">子类</text></g></g><g id="minder_node4"><g id="node_expander8" style="cursor: pointer;"><path id="kity_path_247" fill="white" stroke="gray" d="M464.5000173524022,121.49999295920134A6,6,0,1,1,452.5000173524022,121.49999295920134A6,6,0,1,1,464.5000173524022,121.49999295920134"></path><path id="kity_path_248" fill="none" stroke="gray" d="M454.0000173524022,121.49999295920134L463.0000173524022,121.49999295920134"></path></g><path id="node_outline9" fill="none" stroke="none" d="M469.5000175908208,110.49999295920134h259a5,5,0,0,1,5,5v12a5,5,0,0,1,-5,5h-259a5,5,0,0,1,-5,-5v-12a5,5,0,0,1,5,-5z" stroke-width="3"></path><g id="node_text9" fill="black"><text id="kity_text_123" text-rendering="inherit" font-size="12" dy=".8em" y="113.69999293237925" x="474.5000175908208">Component[有事件和行为加持的BaseObject]</text></g></g><g id="minder_node5"><g id="node_expander3" style="cursor: pointer;"><path id="kity_path_232" fill="white" stroke="gray" d="M773.500021956861,56.49999199062586A6,6,0,1,1,761.500021956861,56.49999199062586A6,6,0,1,1,773.500021956861,56.49999199062586"></path><path id="kity_path_233" fill="none" stroke="gray" d="M763.000021956861,56.49999199062586L772.000021956861,56.49999199062586"></path></g><path id="node_outline4" fill="none" stroke="none" d="M778.5000221952796,45.49999199062586h36a5,5,0,0,1,5,5v12a5,5,0,0,1,-5,5h-36a5,5,0,0,1,-5,-5v-12a5,5,0,0,1,5,-5z" stroke-width="3"></path><g id="node_text4" fill="black"><text id="kity_text_113" text-rendering="inherit" font-size="12" dy=".8em" y="48.69999196380377" x="783.5000221952796">属性</text></g></g><g id="minder_node6"><g id="node_expander1" style="cursor: pointer;" display="none"><path id="kity_path_226" fill="white" stroke="gray" d="M859.5000232383609,30.499991603195667A6,6,0,1,1,847.5000232383609,30.499991603195667A6,6,0,1,1,859.5000232383609,30.499991603195667"></path><path id="kity_path_227" fill="none" stroke="gray"></path></g><path id="node_outline2" fill="none" stroke="none" d="M864.5000234767795,19.499991603195667h54a5,5,0,0,1,5,5v12a5,5,0,0,1,-5,5h-54a5,5,0,0,1,-5,-5v-12a5,5,0,0,1,5,-5z" stroke-width="3"></path><g id="node_text2" fill="black"><text id="kity_text_109" text-rendering="inherit" font-size="12" dy=".8em" y="22.699991576373577" x="869.5000234767795">_events</text></g></g><g id="minder_node7"><g id="node_expander2" style="cursor: pointer;" display="none"><path id="kity_path_229" fill="white" stroke="gray" d="M859.5000232383609,82.49999237805605A6,6,0,1,1,847.5000232383609,82.49999237805605A6,6,0,1,1,859.5000232383609,82.49999237805605"></path><path id="kity_path_230" fill="none" stroke="gray"></path></g><path id="node_outline3" fill="none" stroke="none" d="M864.5000234767795,71.49999237805605h72a5,5,0,0,1,5,5v12a5,5,0,0,1,-5,5h-72a5,5,0,0,1,-5,-5v-12a5,5,0,0,1,5,-5z" stroke-width="3"></path><g id="node_text3" fill="black"><text id="kity_text_111" text-rendering="inherit" font-size="12" dy=".8em" y="74.69999235123396" x="869.5000234767795">_behaviors</text></g></g><g id="minder_node8"><g id="node_expander7" style="cursor: pointer;"><path id="kity_path_244" fill="white" stroke="gray" d="M773.500021956861,186.4999939277768A6,6,0,1,1,761.500021956861,186.4999939277768A6,6,0,1,1,773.500021956861,186.4999939277768"></path><path id="kity_path_245" fill="none" stroke="gray" d="M763.000021956861,186.4999939277768L772.000021956861,186.4999939277768"></path></g><path id="node_outline8" fill="none" stroke="none" d="M778.5000221952796,175.4999939277768h36a5,5,0,0,1,5,5v12a5,5,0,0,1,-5,5h-36a5,5,0,0,1,-5,-5v-12a5,5,0,0,1,5,-5z" stroke-width="3"></path><g id="node_text8" fill="black"><text id="kity_text_121" text-rendering="inherit" font-size="12" dy=".8em" y="178.69999390095472" x="783.5000221952796">方法</text></g></g><g id="minder_node9"><g id="node_expander4" style="cursor: pointer;" display="none"><path id="kity_path_235" fill="white" stroke="gray" d="M859.5000232383609,134.49999315291643A6,6,0,1,1,847.5000232383609,134.49999315291643A6,6,0,1,1,859.5000232383609,134.49999315291643"></path><path id="kity_path_236" fill="none" stroke="gray"></path></g><path id="node_outline5" fill="none" stroke="none" d="M864.5000234767795,123.49999315291643h340a5,5,0,0,1,5,5v12a5,5,0,0,1,-5,5h-340a5,5,0,0,1,-5,-5v-12a5,5,0,0,1,5,-5z" stroke-width="3"></path><g id="node_text5" fill="black"><text id="kity_text_115" text-rendering="inherit" font-size="12" dy=".8em" y="126.69999312609434" x="869.5000234767795">重载BaseObject中属性相关的方法，加入对事件和行为的处理</text></g></g><g id="minder_node10"><g id="node_expander5" style="cursor: pointer;" display="none"><path id="kity_path_238" fill="white" stroke="gray" d="M859.5000232383609,186.4999939277768A6,6,0,1,1,847.5000232383609,186.4999939277768A6,6,0,1,1,859.5000232383609,186.4999939277768"></path><path id="kity_path_239" fill="none" stroke="gray"></path></g><path id="node_outline6" fill="none" stroke="none" d="M864.5000234767795,175.4999939277768h187a5,5,0,0,1,5,5v12a5,5,0,0,1,-5,5h-187a5,5,0,0,1,-5,-5v-12a5,5,0,0,1,5,-5z" stroke-width="3"></path><g id="node_text6" fill="black"><text id="kity_text_117" text-rendering="inherit" font-size="12" dy=".8em" y="178.69999390095472" x="869.5000234767795">事件相关方法：on/off/trigger等</text></g></g><g id="minder_node11"><g id="node_expander6" style="cursor: pointer;" display="none"><path id="kity_path_241" fill="white" stroke="gray" d="M859.5000232383609,238.4999947026372A6,6,0,1,1,847.5000232383609,238.4999947026372A6,6,0,1,1,859.5000232383609,238.4999947026372"></path><path id="kity_path_242" fill="none" stroke="gray"></path></g><path id="node_outline7" fill="none" stroke="none" d="M864.5000234767795,227.4999947026372h287a5,5,0,0,1,5,5v12a5,5,0,0,1,-5,5h-287a5,5,0,0,1,-5,-5v-12a5,5,0,0,1,5,-5z" stroke-width="3"></path><g id="node_text7" fill="black"><text id="kity_text_119" text-rendering="inherit" font-size="12" dy=".8em" y="230.6999946758151" x="869.5000234767795">行为相关方法：attachBehavior/detachBehavior等</text></g></g><g id="minder_node12"><g id="node_expander24" style="cursor: pointer;"><path id="kity_path_295" fill="white" stroke="gray" d="M464.5000173524022,589.4999999329448A6,6,0,1,1,452.5000173524022,589.4999999329448A6,6,0,1,1,464.5000173524022,589.4999999329448"></path><path id="kity_path_296" fill="none" stroke="gray" d="M454.0000173524022,589.4999999329448L463.0000173524022,589.4999999329448"></path></g><path id="node_outline25" fill="none" stroke="none" d="M469.5000175908208,578.4999999329448h42a5,5,0,0,1,5,5v12a5,5,0,0,1,-5,5h-42a5,5,0,0,1,-5,-5v-12a5,5,0,0,1,5,-5z" stroke-width="3"></path><g id="node_text25" fill="black"><text id="kity_text_155" text-rendering="inherit" font-size="12" dy=".8em" y="581.6999999061227" x="474.5000175908208">Event</text></g></g><g id="minder_node13"><g id="node_expander13" style="cursor: pointer;"><path id="kity_path_262" fill="white" stroke="gray" d="M556.500018723309,368.49999663978815A6,6,0,1,1,544.500018723309,368.49999663978815A6,6,0,1,1,556.500018723309,368.49999663978815"></path><path id="kity_path_263" fill="none" stroke="gray" d="M546.000018723309,368.49999663978815L555.000018723309,368.49999663978815"></path></g><path id="node_outline14" fill="none" stroke="none" d="M561.5000189617276,357.49999663978815h36a5,5,0,0,1,5,5v12a5,5,0,0,1,-5,5h-36a5,5,0,0,1,-5,-5v-12a5,5,0,0,1,5,-5z" stroke-width="3"></path><g id="node_text14" fill="black"><text id="kity_text_133" text-rendering="inherit" font-size="12" dy=".8em" y="360.69999661296606" x="566.5000189617276">方法</text></g></g><g id="minder_node14"><g id="node_expander9" style="cursor: pointer;" display="none"><path id="kity_path_250" fill="white" stroke="gray" d="M642.5000200048089,290.4999954774976A6,6,0,1,1,630.5000200048089,290.4999954774976A6,6,0,1,1,642.5000200048089,290.4999954774976"></path><path id="kity_path_251" fill="none" stroke="gray"></path></g><path id="node_outline10" fill="none" stroke="none" d="M647.5000202432275,279.4999954774976h104a5,5,0,0,1,5,5v12a5,5,0,0,1,-5,5h-104a5,5,0,0,1,-5,-5v-12a5,5,0,0,1,5,-5z" stroke-width="3"></path><g id="node_text10" fill="black"><text id="kity_text_125" text-rendering="inherit" font-size="12" dy=".8em" y="282.6999954506755" x="652.5000202432275">on()&#xa0;绑定handler</text></g></g><g id="minder_node15"><g id="node_expander10" style="cursor: pointer;" display="none"><path id="kity_path_253" fill="white" stroke="gray" d="M642.5000200048089,342.49999625235796A6,6,0,1,1,630.5000200048089,342.49999625235796A6,6,0,1,1,642.5000200048089,342.49999625235796"></path><path id="kity_path_254" fill="none" stroke="gray"></path></g><path id="node_outline11" fill="none" stroke="none" d="M647.5000202432275,331.49999625235796h129a5,5,0,0,1,5,5v12a5,5,0,0,1,-5,5h-129a5,5,0,0,1,-5,-5v-12a5,5,0,0,1,5,-5z" stroke-width="3"></path><g id="node_text11" fill="black"><text id="kity_text_127" text-rendering="inherit" font-size="12" dy=".8em" y="334.69999622553587" x="652.5000202432275">off()&#xa0;取消绑定handler</text></g></g><g id="minder_node16"><g id="node_expander11" style="cursor: pointer;" display="none"><path id="kity_path_256" fill="white" stroke="gray" d="M642.5000200048089,394.49999702721834A6,6,0,1,1,630.5000200048089,394.49999702721834A6,6,0,1,1,642.5000200048089,394.49999702721834"></path><path id="kity_path_257" fill="none" stroke="gray"></path></g><path id="node_outline12" fill="none" stroke="none" d="M647.5000202432275,383.49999702721834h184a5,5,0,0,1,5,5v12a5,5,0,0,1,-5,5h-184a5,5,0,0,1,-5,-5v-12a5,5,0,0,1,5,-5z" stroke-width="3"></path><g id="node_text12" fill="black"><text id="kity_text_129" text-rendering="inherit" font-size="12" dy=".8em" y="386.69999700039625" x="652.5000202432275">hasHandlers()&#xa0;是否存在handler</text></g></g><g id="minder_node17"><g id="node_expander12" style="cursor: pointer;" display="none"><path id="kity_path_259" fill="white" stroke="gray" d="M642.5000200048089,446.4999978020787A6,6,0,1,1,630.5000200048089,446.4999978020787A6,6,0,1,1,642.5000200048089,446.4999978020787"></path><path id="kity_path_260" fill="none" stroke="gray"></path></g><path id="node_outline13" fill="none" stroke="none" d="M647.5000202432275,435.4999978020787h109a5,5,0,0,1,5,5v12a5,5,0,0,1,-5,5h-109a5,5,0,0,1,-5,-5v-12a5,5,0,0,1,5,-5z" stroke-width="3"></path><g id="node_text13" fill="black"><text id="kity_text_131" text-rendering="inherit" font-size="12" dy=".8em" y="438.69999777525663" x="652.5000202432275">trigger()&#xa0;触发事件</text></g></g><g id="minder_node18"><g id="node_expander19" style="cursor: pointer;"><path id="kity_path_280" fill="white" stroke="gray" d="M556.500018723309,602.5000001266599A6,6,0,1,1,544.500018723309,602.5000001266599A6,6,0,1,1,556.500018723309,602.5000001266599"></path><path id="kity_path_281" fill="none" stroke="gray" d="M546.000018723309,602.5000001266599L555.000018723309,602.5000001266599"></path></g><path id="node_outline20" fill="none" stroke="none" d="M561.5000189617276,591.5000001266599h36a5,5,0,0,1,5,5v12a5,5,0,0,1,-5,5h-36a5,5,0,0,1,-5,-5v-12a5,5,0,0,1,5,-5z" stroke-width="3"></path><g id="node_text20" fill="black"><text id="kity_text_145" text-rendering="inherit" font-size="12" dy=".8em" y="594.7000000998378" x="566.5000189617276">属性</text></g></g><g id="minder_node19"><g id="node_expander14" style="cursor: pointer;" display="none"><path id="kity_path_265" fill="white" stroke="gray" d="M642.5000200048089,498.4999985769391A6,6,0,1,1,630.5000200048089,498.4999985769391A6,6,0,1,1,642.5000200048089,498.4999985769391"></path><path id="kity_path_266" fill="none" stroke="gray"></path></g><path id="node_outline15" fill="none" stroke="none" d="M647.5000202432275,487.4999985769391h70a5,5,0,0,1,5,5v12a5,5,0,0,1,-5,5h-70a5,5,0,0,1,-5,-5v-12a5,5,0,0,1,5,-5z" stroke-width="3"></path><g id="node_text15" fill="black"><text id="kity_text_135" text-rendering="inherit" font-size="12" dy=".8em" y="490.699998550117" x="652.5000202432275">name&#xa0;名称</text></g></g><g id="minder_node20"><g id="node_expander15" style="cursor: pointer;" display="none"><path id="kity_path_268" fill="white" stroke="gray" d="M642.5000200048089,550.4999993517995A6,6,0,1,1,630.5000200048089,550.4999993517995A6,6,0,1,1,642.5000200048089,550.4999993517995"></path><path id="kity_path_269" fill="none" stroke="gray"></path></g><path id="node_outline16" fill="none" stroke="none" d="M647.5000202432275,539.4999993517995h188a5,5,0,0,1,5,5v12a5,5,0,0,1,-5,5h-188a5,5,0,0,1,-5,-5v-12a5,5,0,0,1,5,-5z" stroke-width="3"></path><g id="node_text16" fill="black"><text id="kity_text_137" text-rendering="inherit" font-size="12" dy=".8em" y="542.6999993249774" x="652.5000202432275">sender&#xa0;调用了trigger的实例或类</text></g></g><g id="minder_node21"><g id="node_expander16" style="cursor: pointer;" display="none"><path id="kity_path_271" fill="white" stroke="gray" d="M642.5000200048089,602.5000001266599A6,6,0,1,1,630.5000200048089,602.5000001266599A6,6,0,1,1,642.5000200048089,602.5000001266599"></path><path id="kity_path_272" fill="none" stroke="gray"></path></g><path id="node_outline17" fill="none" stroke="none" d="M647.5000202432275,591.5000001266599h225a5,5,0,0,1,5,5v12a5,5,0,0,1,-5,5h-225a5,5,0,0,1,-5,-5v-12a5,5,0,0,1,5,-5z" stroke-width="3"></path><g id="node_text17" fill="black"><text id="kity_text_139" text-rendering="inherit" font-size="12" dy=".8em" y="594.7000000998378" x="652.5000202432275">handled&#xa0;是否阻止后续handler继续执行</text></g></g><g id="minder_node22"><g id="node_expander17" style="cursor: pointer;" display="none"><path id="kity_path_274" fill="white" stroke="gray" d="M642.5000200048089,654.5000009015203A6,6,0,1,1,630.5000200048089,654.5000009015203A6,6,0,1,1,642.5000200048089,654.5000009015203"></path><path id="kity_path_275" fill="none" stroke="gray"></path></g><path id="node_outline18" fill="none" stroke="none" d="M647.5000202432275,643.5000009015203h88a5,5,0,0,1,5,5v12a5,5,0,0,1,-5,5h-88a5,5,0,0,1,-5,-5v-12a5,5,0,0,1,5,-5z" stroke-width="3"></path><g id="node_text18" fill="black"><text id="kity_text_141" text-rendering="inherit" font-size="12" dy=".8em" y="646.7000008746982" x="652.5000202432275">data&#xa0;事件数据</text></g></g><g id="minder_node23"><g id="node_expander18" style="cursor: pointer;" display="none"><path id="kity_path_277" fill="white" stroke="gray" d="M642.5000200048089,706.5000016763806A6,6,0,1,1,630.5000200048089,706.5000016763806A6,6,0,1,1,642.5000200048089,706.5000016763806"></path><path id="kity_path_278" fill="none" stroke="gray"></path></g><path id="node_outline19" fill="none" stroke="none" d="M647.5000202432275,695.5000016763806h142a5,5,0,0,1,5,5v12a5,5,0,0,1,-5,5h-142a5,5,0,0,1,-5,-5v-12a5,5,0,0,1,5,-5z" stroke-width="3"></path><g id="node_text19" fill="black"><text id="kity_text_143" text-rendering="inherit" font-size="12" dy=".8em" y="698.7000016495585" x="652.5000202432275">_events&#xa0;事件的handlers</text></g></g><g id="minder_node24"><g id="node_expander23" style="cursor: pointer;"><path id="kity_path_292" fill="white" stroke="gray" d="M556.500018723309,810.5000032261014A6,6,0,1,1,544.500018723309,810.5000032261014A6,6,0,1,1,556.500018723309,810.5000032261014"></path><path id="kity_path_293" fill="none" stroke="gray" d="M546.000018723309,810.5000032261014L555.000018723309,810.5000032261014"></path></g><path id="node_outline24" fill="none" stroke="none" d="M561.5000189617276,799.5000032261014h35a5,5,0,0,1,5,5v12a5,5,0,0,1,-5,5h-35a5,5,0,0,1,-5,-5v-12a5,5,0,0,1,5,-5z" stroke-width="3"></path><g id="node_text24" fill="black"><text id="kity_text_153" text-rendering="inherit" font-size="12" dy=".8em" y="802.7000031992793" x="566.5000189617276">级别</text></g></g><g id="minder_node25"><g id="node_expander20" style="cursor: pointer;" display="none"><path id="kity_path_283" fill="white" stroke="gray" d="M641.5000199899077,758.500002451241A6,6,0,1,1,629.5000199899077,758.500002451241A6,6,0,1,1,641.5000199899077,758.500002451241"></path><path id="kity_path_284" fill="none" stroke="gray"></path></g><path id="node_outline21" fill="none" stroke="none" d="M646.5000202283263,747.500002451241h58a5,5,0,0,1,5,5v12a5,5,0,0,1,-5,5h-58a5,5,0,0,1,-5,-5v-12a5,5,0,0,1,5,-5z" stroke-width="3"></path><g id="node_text21" fill="black"><text id="kity_text_147" text-rendering="inherit" font-size="12" dy=".8em" y="750.7000024244189" x="651.5000202283263">实例级别</text></g></g><g id="minder_node26"><g id="node_expander21" style="cursor: pointer;" display="none"><path id="kity_path_286" fill="white" stroke="gray" d="M641.5000199899077,810.5000032261014A6,6,0,1,1,629.5000199899077,810.5000032261014A6,6,0,1,1,641.5000199899077,810.5000032261014"></path><path id="kity_path_287" fill="none" stroke="gray"></path></g><path id="node_outline22" fill="none" stroke="none" d="M646.5000202283263,799.5000032261014h47a5,5,0,0,1,5,5v12a5,5,0,0,1,-5,5h-47a5,5,0,0,1,-5,-5v-12a5,5,0,0,1,5,-5z" stroke-width="3"></path><g id="node_text22" fill="black"><text id="kity_text_149" text-rendering="inherit" font-size="12" dy=".8em" y="802.7000031992793" x="651.5000202283263">类级别</text></g></g><g id="minder_node27"><g id="node_expander22" style="cursor: pointer;" display="none"><path id="kity_path_289" fill="white" stroke="gray" d="M641.5000199899077,862.5000040009618A6,6,0,1,1,629.5000199899077,862.5000040009618A6,6,0,1,1,641.5000199899077,862.5000040009618"></path><path id="kity_path_290" fill="none" stroke="gray"></path></g><path id="node_outline23" fill="none" stroke="none" d="M646.5000202283263,851.5000040009618h228a5,5,0,0,1,5,5v12a5,5,0,0,1,-5,5h-228a5,5,0,0,1,-5,-5v-12a5,5,0,0,1,5,-5z" stroke-width="3"></path><g id="node_text23" fill="black"><text id="kity_text_151" text-rendering="inherit" font-size="12" dy=".8em" y="854.7000039741397" x="651.5000202283263">全局级别(实际是Appliaction的实例事件)</text></g></g><g id="minder_node28"><g id="node_expander31" style="cursor: pointer;"><path id="kity_path_316" fill="white" stroke="gray" d="M464.5000173524022,966.5000055506825A6,6,0,1,1,452.5000173524022,966.5000055506825A6,6,0,1,1,464.5000173524022,966.5000055506825"></path><path id="kity_path_317" fill="none" stroke="gray" d="M454.0000173524022,966.5000055506825L463.0000173524022,966.5000055506825"></path></g><path id="node_outline32" fill="none" stroke="none" d="M469.5000175908208,955.5000055506825h60a5,5,0,0,1,5,5v12a5,5,0,0,1,-5,5h-60a5,5,0,0,1,-5,-5v-12a5,5,0,0,1,5,-5z" stroke-width="3"></path><g id="node_text32" fill="black"><text id="kity_text_169" text-rendering="inherit" font-size="12" dy=".8em" y="958.7000055238605" x="474.5000175908208">Behavior</text></g></g><g id="minder_node29"><g id="node_expander26" style="cursor: pointer;"><path id="kity_path_301" fill="white" stroke="gray" d="M574.5000189915299,914.5000047758222A6,6,0,1,1,562.5000189915299,914.5000047758222A6,6,0,1,1,574.5000189915299,914.5000047758222"></path><path id="kity_path_302" fill="none" stroke="gray" d="M564.0000189915299,914.5000047758222L573.0000189915299,914.5000047758222"></path></g><path id="node_outline27" fill="none" stroke="none" d="M579.5000192299485,903.5000047758222h36a5,5,0,0,1,5,5v12a5,5,0,0,1,-5,5h-36a5,5,0,0,1,-5,-5v-12a5,5,0,0,1,5,-5z" stroke-width="3"></path><g id="node_text27" fill="black"><text id="kity_text_159" text-rendering="inherit" font-size="12" dy=".8em" y="906.7000047490001" x="584.5000192299485">属性</text></g></g><g id="minder_node30"><g id="node_expander25" style="cursor: pointer;" display="none"><path id="kity_path_298" fill="white" stroke="gray" d="M660.5000202730298,914.5000047758222A6,6,0,1,1,648.5000202730298,914.5000047758222A6,6,0,1,1,660.5000202730298,914.5000047758222"></path><path id="kity_path_299" fill="none" stroke="gray"></path></g><path id="node_outline26" fill="none" stroke="none" d="M665.5000205114484,903.5000047758222h110a5,5,0,0,1,5,5v12a5,5,0,0,1,-5,5h-110a5,5,0,0,1,-5,-5v-12a5,5,0,0,1,5,-5z" stroke-width="3"></path><g id="node_text26" fill="black"><text id="kity_text_157" text-rendering="inherit" font-size="12" dy=".8em" y="906.7000047490001" x="670.5000205114484">owner&#xa0;绑定的对象</text></g></g><g id="minder_node31"><g id="node_expander30" style="cursor: pointer;"><path id="kity_path_313" fill="white" stroke="gray" d="M574.5000189915299,1018.5000063255429A6,6,0,1,1,562.5000189915299,1018.5000063255429A6,6,0,1,1,574.5000189915299,1018.5000063255429"></path><path id="kity_path_314" fill="none" stroke="gray" d="M564.0000189915299,1018.5000063255429L573.0000189915299,1018.5000063255429"></path></g><path id="node_outline31" fill="none" stroke="none" d="M579.5000192299485,1007.5000063255429h36a5,5,0,0,1,5,5v12a5,5,0,0,1,-5,5h-36a5,5,0,0,1,-5,-5v-12a5,5,0,0,1,5,-5z" stroke-width="3"></path><g id="node_text31" fill="black"><text id="kity_text_167" text-rendering="inherit" font-size="12" dy=".8em" y="1010.7000062987208" x="584.5000192299485">方法</text></g></g><g id="minder_node32"><g id="node_expander27" style="cursor: pointer;" display="none"><path id="kity_path_304" fill="white" stroke="gray" d="M660.5000202730298,966.5000055506825A6,6,0,1,1,648.5000202730298,966.5000055506825A6,6,0,1,1,660.5000202730298,966.5000055506825"></path><path id="kity_path_305" fill="none" stroke="gray"></path></g><path id="node_outline28" fill="none" stroke="none" d="M665.5000205114484,955.5000055506825h108a5,5,0,0,1,5,5v12a5,5,0,0,1,-5,5h-108a5,5,0,0,1,-5,-5v-12a5,5,0,0,1,5,-5z" stroke-width="3"></path><g id="node_text28" fill="black"><text id="kity_text_161" text-rendering="inherit" font-size="12" dy=".8em" y="958.7000055238605" x="670.5000205114484">events()&#xa0;行为事件</text></g></g><g id="minder_node33"><g id="node_expander28" style="cursor: pointer;" display="none"><path id="kity_path_307" fill="white" stroke="gray" d="M660.5000202730298,1018.5000063255429A6,6,0,1,1,648.5000202730298,1018.5000063255429A6,6,0,1,1,660.5000202730298,1018.5000063255429"></path><path id="kity_path_308" fill="none" stroke="gray"></path></g><path id="node_outline29" fill="none" stroke="none" d="M665.5000205114484,1007.5000063255429h82a5,5,0,0,1,5,5v12a5,5,0,0,1,-5,5h-82a5,5,0,0,1,-5,-5v-12a5,5,0,0,1,5,-5z" stroke-width="3"></path><g id="node_text29" fill="black"><text id="kity_text_163" text-rendering="inherit" font-size="12" dy=".8em" y="1010.7000062987208" x="670.5000205114484">attach()&#xa0;绑定</text></g></g><g id="minder_node34"><g id="node_expander29" style="cursor: pointer;" display="none"><path id="kity_path_310" fill="white" stroke="gray" d="M660.5000202730298,1070.5000071004033A6,6,0,1,1,648.5000202730298,1070.5000071004033A6,6,0,1,1,660.5000202730298,1070.5000071004033"></path><path id="kity_path_311" fill="none" stroke="gray"></path></g><path id="node_outline30" fill="none" stroke="none" d="M665.5000205114484,1059.5000071004033h96a5,5,0,0,1,5,5v12a5,5,0,0,1,-5,5h-96a5,5,0,0,1,-5,-5v-12a5,5,0,0,1,5,-5z" stroke-width="3"></path><g id="node_text30" fill="black"><text id="kity_text_165" text-rendering="inherit" font-size="12" dy=".8em" y="1062.7000070735812" x="670.5000205114484">detatach()&#xa0;解绑</text></g></g><g id="minder_node35"><g id="node_expander34" style="cursor: pointer;"><path id="kity_path_325" fill="white" stroke="gray" d="M379.5000160858035,1121.5000078603625A6,6,0,1,1,367.5000160858035,1121.5000078603625A6,6,0,1,1,379.5000160858035,1121.5000078603625"></path><path id="kity_path_326" fill="none" stroke="gray" d="M369.0000160858035,1121.5000078603625L378.0000160858035,1121.5000078603625"></path></g><path id="node_outline35" fill="none" stroke="none" d="M384.5000163242221,1110.5000078603625h36a5,5,0,0,1,5,5v12a5,5,0,0,1,-5,5h-36a5,5,0,0,1,-5,-5v-12a5,5,0,0,1,5,-5z" stroke-width="3"></path><g id="node_text35" fill="black"><text id="kity_text_175" text-rendering="inherit" font-size="12" dy=".8em" y="1113.7000078335404" x="389.5000163242221">方法</text></g></g><g id="minder_node36"><g id="node_expander33" style="cursor: pointer;" display="none"><path id="kity_path_322" fill="white" stroke="gray" d="M465.50001736730337,1121.5000078603625A6,6,0,1,1,453.50001736730337,1121.5000078603625A6,6,0,1,1,465.50001736730337,1121.5000078603625"></path><path id="kity_path_323" fill="none" stroke="gray"></path></g><path id="node_outline34" fill="none" stroke="none" d="M470.50001760572195,1110.5000078603625h265a5,5,0,0,1,5,5v12a5,5,0,0,1,-5,5h-265a5,5,0,0,1,-5,-5v-12a5,5,0,0,1,5,-5z" stroke-width="3"></path><g id="node_text34" fill="black"><text id="kity_text_173" text-rendering="inherit" font-size="12" dy=".8em" y="1113.7000078335404" x="475.50001760572195">属性相关方法：__get/__set/canGetProperty等</text></g></g><g id="minder_node37"><g id="node_expander38" style="cursor: pointer;"><path id="kity_path_337" fill="white" stroke="gray" d="M379.5000160858035,1225.5000094100833A6,6,0,1,1,367.5000160858035,1225.5000094100833A6,6,0,1,1,379.5000160858035,1225.5000094100833"></path><path id="kity_path_338" fill="none" stroke="gray" d="M369.0000160858035,1225.5000094100833L378.0000160858035,1225.5000094100833"></path></g><path id="node_outline39" fill="none" stroke="none" d="M384.5000163242221,1214.5000094100833h59a5,5,0,0,1,5,5v12a5,5,0,0,1,-5,5h-59a5,5,0,0,1,-5,-5v-12a5,5,0,0,1,5,-5z" stroke-width="3"></path><g id="node_text39" fill="black"><text id="kity_text_183" text-rendering="inherit" font-size="12" dy=".8em" y="1217.7000093832612" x="389.5000163242221">配置方法</text></g></g><g id="minder_node38"><g id="node_expander35" style="cursor: pointer;" display="none"><path id="kity_path_328" fill="white" stroke="gray" d="M488.5000177100301,1173.500008635223A6,6,0,1,1,476.5000177100301,1173.500008635223A6,6,0,1,1,488.5000177100301,1173.500008635223"></path><path id="kity_path_329" fill="none" stroke="gray"></path></g><path id="node_outline36" fill="none" stroke="none" d="M493.50001794844866,1162.500008635223h222a5,5,0,0,1,5,5v12a5,5,0,0,1,-5,5h-222a5,5,0,0,1,-5,-5v-12a5,5,0,0,1,5,-5z" stroke-width="3"></path><g id="node_text36" fill="black"><text id="kity_text_177" text-rendering="inherit" font-size="12" dy=".8em" y="1165.7000086084008" x="498.50001794844866">组织好配置数组$config，传入构造函数</text></g></g><g id="minder_node39"><g id="node_expander36" style="cursor: pointer;" display="none"><path id="kity_path_331" fill="white" stroke="gray" d="M488.5000177100301,1225.5000094100833A6,6,0,1,1,476.5000177100301,1225.5000094100833A6,6,0,1,1,488.5000177100301,1225.5000094100833"></path><path id="kity_path_332" fill="none" stroke="gray"></path></g><path id="node_outline37" fill="none" stroke="none" d="M493.50001794844866,1214.5000094100833h339a5,5,0,0,1,5,5v12a5,5,0,0,1,-5,5h-339a5,5,0,0,1,-5,-5v-12a5,5,0,0,1,5,-5z" stroke-width="3"></path><g id="node_text37" fill="black"><text id="kity_text_179" text-rendering="inherit" font-size="12" dy=".8em" y="1217.7000093832612" x="498.50001794844866">调用Yii::configuration()，把$config中的配置初始化到实例中</text></g></g><g id="minder_node40"><g id="node_expander37" style="cursor: pointer;" display="none"><path id="kity_path_334" fill="white" stroke="gray" d="M488.5000177100301,1277.5000101849437A6,6,0,1,1,476.5000177100301,1277.5000101849437A6,6,0,1,1,488.5000177100301,1277.5000101849437"></path><path id="kity_path_335" fill="none" stroke="gray"></path></g><path id="node_outline38" fill="none" stroke="none" d="M493.50001794844866,1266.5000101849437h146a5,5,0,0,1,5,5v12a5,5,0,0,1,-5,5h-146a5,5,0,0,1,-5,-5v-12a5,5,0,0,1,5,-5z" stroke-width="3"></path><g id="node_text38" fill="black"><text id="kity_text_181" text-rendering="inherit" font-size="12" dy=".8em" y="1269.7000101581216" x="498.50001794844866">调用init()方法进行初始化</text></g></g></g></g></svg>