<svg id="kity_svg_6" xmlns="http://www.w3.org/2000/svg" xmlns:xlink="http://www.w3.org/1999/xlink" version="1.1" width="2075" height="1053" style="background: rgb(251, 251, 251); visibility: visible;" viewBox="0 0 2075 1053"><defs id="kity_defs_7"><linearGradient id="kity_linearGradient_17" x1="0" y1="0" x2="0" y2="1"><stop id="kity_stop_18" offset="0" stop-color="rgb(255, 255, 255)"></stop><stop id="kity_stop_19" offset="1" stop-color="rgb(204, 204, 204)"></stop></linearGradient><marker id="kity_marker_2" orient="auto" refX="6" refY="0" viewBox="-7 -7 14 14" markerWidth="7" markerHeight="7" markerUnits="userSpaceOnUse"><path id="kity_path_3" fill="rgb(115, 161, 191)" stroke="none" d="M6,0A6,6,0,1,1,-6,0A6,6,0,1,1,6,0"></path></marker></defs><g id="kity_g_8"><g id="minder1" text-rendering="optimize-speed"><g id="minder_connect_group1"><path id="kity_path_31" fill="none" stroke="rgb(115, 161, 191)" stroke-width="1" d="M68.9999995753169,362.5000055655837A166.5,0,0,0,1,235.4999995753169,362.5000055655837"></path><path id="kity_path_39" fill="none" stroke="rgb(115, 161, 191)" stroke-width="1" d="M390.4999995753169,362.5000055655837C405.4999995753169,362.5000055655837,405.4999995753169,376.5000055655837,420.4999995753169,376.5000055655837L550.4999995753169,376.5000055655837"></path><path id="kity_path_47" fill="none" stroke="rgb(115, 161, 191)" stroke-width="1" d="M550.4999995753169,376.5000055655837C565.4999995753169,376.5000055655837,565.4999995753169,376.5000055655837,580.4999995753169,376.5000055655837L1007.4999995753169,376.5000055655837"></path><path id="kity_path_63" fill="none" stroke="rgb(115, 161, 191)" stroke-width="1" d="M1007.4999995753169,376.5000055655837C1022.4999995753169,376.5000055655837,1022.4999995753169,45.500005565583706,1037.499999575317,45.500005565583706L1093.499999575317,45.500005565583706"></path><path id="kity_path_71" fill="none" stroke="rgb(115, 161, 191)" stroke-width="1" d="M1007.4999995753169,376.5000055655837C1022.4999995753169,376.5000055655837,1022.4999995753169,97.5000055655837,1037.499999575317,97.5000055655837L1093.499999575317,97.5000055655837"></path><path id="kity_path_79" fill="none" stroke="rgb(115, 161, 191)" stroke-width="1" d="M1093.499999575317,-845.4999944344163C1108.499999575317,-845.4999944344163,1108.499999575317,-1001.4999944344163,1123.499999575317,-1001.4999944344163L1164.499999575317,-1001.4999944344163" display="none"></path><path id="kity_path_87" fill="none" stroke="rgb(115, 161, 191)" stroke-width="1" d="M1093.499999575317,-845.4999944344163C1108.499999575317,-845.4999944344163,1108.499999575317,-949.4999944344163,1123.499999575317,-949.4999944344163L1197.499999575317,-949.4999944344163" display="none"></path><path id="kity_path_95" fill="none" stroke="rgb(115, 161, 191)" stroke-width="1" d="M1093.499999575317,-845.4999944344163C1108.499999575317,-845.4999944344163,1108.499999575317,-897.4999944344163,1123.499999575317,-897.4999944344163L1230.499999575317,-897.4999944344163" display="none"></path><path id="kity_path_103" fill="none" stroke="rgb(115, 161, 191)" stroke-width="1" d="M1093.499999575317,-845.4999944344163C1108.499999575317,-845.4999944344163,1108.499999575317,-845.4999944344163,1123.499999575317,-845.4999944344163L1189.499999575317,-845.4999944344163" display="none"></path><path id="kity_path_111" fill="none" stroke="rgb(115, 161, 191)" stroke-width="1" d="M1093.499999575317,-845.4999944344163C1108.499999575317,-845.4999944344163,1108.499999575317,-793.4999944344163,1123.499999575317,-793.4999944344163L1188.499999575317,-793.4999944344163" display="none"></path><path id="kity_path_119" fill="none" stroke="rgb(115, 161, 191)" stroke-width="1" d="M1093.499999575317,-845.4999944344163C1108.499999575317,-845.4999944344163,1108.499999575317,-741.4999944344163,1123.499999575317,-741.4999944344163L1185.499999575317,-741.4999944344163" display="none"></path><path id="kity_path_127" fill="none" stroke="rgb(115, 161, 191)" stroke-width="1" d="M1093.499999575317,-845.4999944344163C1108.499999575317,-845.4999944344163,1108.499999575317,-689.4999944344163,1123.499999575317,-689.4999944344163L1211.499999575317,-689.4999944344163" display="none"></path><path id="kity_path_135" fill="none" stroke="rgb(115, 161, 191)" stroke-width="1" d="M1093.499999575317,-507.4999944344163C1108.499999575317,-507.4999944344163,1108.499999575317,-715.4999944344163,1123.499999575317,-715.4999944344163L1194.499999575317,-715.4999944344163" display="none"></path><path id="kity_path_143" fill="none" stroke="rgb(115, 161, 191)" stroke-width="1" d="M1093.499999575317,-507.4999944344163C1108.499999575317,-507.4999944344163,1108.499999575317,-663.4999944344163,1123.499999575317,-663.4999944344163L1210.499999575317,-663.4999944344163" display="none"></path><path id="kity_path_151" fill="none" stroke="rgb(115, 161, 191)" stroke-width="1" d="M1093.499999575317,-507.4999944344163C1108.499999575317,-507.4999944344163,1108.499999575317,-611.4999944344163,1123.499999575317,-611.4999944344163L1172.499999575317,-611.4999944344163" display="none"></path><path id="kity_path_159" fill="none" stroke="rgb(115, 161, 191)" stroke-width="1" d="M1093.499999575317,-507.4999944344163C1108.499999575317,-507.4999944344163,1108.499999575317,-559.4999944344163,1123.499999575317,-559.4999944344163L1258.499999575317,-559.4999944344163" display="none"></path><path id="kity_path_167" fill="none" stroke="rgb(115, 161, 191)" stroke-width="1" d="M1093.499999575317,-507.4999944344163C1108.499999575317,-507.4999944344163,1108.499999575317,-507.4999944344163,1123.499999575317,-507.4999944344163L1225.499999575317,-507.4999944344163" display="none"></path><path id="kity_path_175" fill="none" stroke="rgb(115, 161, 191)" stroke-width="1" d="M1093.499999575317,-507.4999944344163C1108.499999575317,-507.4999944344163,1108.499999575317,-455.4999944344163,1123.499999575317,-455.4999944344163L1228.499999575317,-455.4999944344163" display="none"></path><path id="kity_path_183" fill="none" stroke="rgb(115, 161, 191)" stroke-width="1" d="M1093.499999575317,-507.4999944344163C1108.499999575317,-507.4999944344163,1108.499999575317,-403.4999944344163,1123.499999575317,-403.4999944344163L1217.499999575317,-403.4999944344163" display="none"></path><path id="kity_path_199" fill="none" stroke="rgb(115, 161, 191)" stroke-width="1" d="M1093.499999575317,-507.4999944344163C1108.499999575317,-507.4999944344163,1108.499999575317,-351.4999944344163,1123.499999575317,-351.4999944344163L1191.499999575317,-351.4999944344163" display="none"></path><path id="kity_path_207" fill="none" stroke="rgb(115, 161, 191)" stroke-width="1" d="M1093.499999575317,-507.4999944344163C1108.499999575317,-507.4999944344163,1108.499999575317,-299.4999944344163,1123.499999575317,-299.4999944344163L1162.499999575317,-299.4999944344163" display="none"></path><path id="kity_path_215" fill="none" stroke="rgb(115, 161, 191)" stroke-width="1" d="M1007.4999995753169,376.5000055655837C1022.4999995753169,376.5000055655837,1022.4999995753169,266.5000055655837,1037.499999575317,266.5000055655837L1234.499999575317,266.5000055655837"></path><path id="kity_path_223" fill="none" stroke="rgb(115, 161, 191)" stroke-width="1" d="M1234.499999575317,266.5000055655837C1249.499999575317,266.5000055655837,1249.499999575317,149.5000055655837,1264.499999575317,149.5000055655837L1320.499999575317,149.5000055655837"></path><path id="kity_path_231" fill="none" stroke="rgb(115, 161, 191)" stroke-width="1" d="M1320.499999575317,-429.4999944344163C1335.499999575317,-429.4999944344163,1335.499999575317,-455.4999944344163,1350.499999575317,-455.4999944344163L1499.499999575317,-455.4999944344163" display="none"></path><path id="kity_path_239" fill="none" stroke="rgb(115, 161, 191)" stroke-width="1" d="M1320.499999575317,-429.4999944344163C1335.499999575317,-429.4999944344163,1335.499999575317,-403.4999944344163,1350.499999575317,-403.4999944344163L1457.499999575317,-403.4999944344163" display="none"></path><path id="kity_path_247" fill="none" stroke="rgb(115, 161, 191)" stroke-width="1" d="M1234.499999575317,266.5000055655837C1249.499999575317,266.5000055655837,1249.499999575317,201.5000055655837,1264.499999575317,201.5000055655837L1320.499999575317,201.5000055655837"></path><path id="kity_path_255" fill="none" stroke="rgb(115, 161, 191)" stroke-width="1" d="M1320.499999575317,-169.4999944344163C1335.499999575317,-169.4999944344163,1335.499999575317,-377.4999944344163,1350.499999575317,-377.4999944344163L1443.499999575317,-377.4999944344163" display="none"></path><path id="kity_path_263" fill="none" stroke="rgb(115, 161, 191)" stroke-width="1" d="M1320.499999575317,-169.4999944344163C1335.499999575317,-169.4999944344163,1335.499999575317,-325.4999944344163,1350.499999575317,-325.4999944344163L1418.499999575317,-325.4999944344163" display="none"></path><path id="kity_path_271" fill="none" stroke="rgb(115, 161, 191)" stroke-width="1" d="M1320.499999575317,-169.4999944344163C1335.499999575317,-169.4999944344163,1335.499999575317,-273.4999944344163,1350.499999575317,-273.4999944344163L1414.499999575317,-273.4999944344163" display="none"></path><path id="kity_path_279" fill="none" stroke="rgb(115, 161, 191)" stroke-width="1" d="M1320.499999575317,-169.4999944344163C1335.499999575317,-169.4999944344163,1335.499999575317,-221.4999944344163,1350.499999575317,-221.4999944344163L1485.499999575317,-221.4999944344163" display="none"></path><path id="kity_path_287" fill="none" stroke="rgb(115, 161, 191)" stroke-width="1" d="M1320.499999575317,-169.4999944344163C1335.499999575317,-169.4999944344163,1335.499999575317,-169.4999944344163,1350.499999575317,-169.4999944344163L1455.499999575317,-169.4999944344163" display="none"></path><path id="kity_path_295" fill="none" stroke="rgb(115, 161, 191)" stroke-width="1" d="M1320.499999575317,-169.4999944344163C1335.499999575317,-169.4999944344163,1335.499999575317,-117.4999944344163,1350.499999575317,-117.4999944344163L1424.499999575317,-117.4999944344163" display="none"></path><path id="kity_path_303" fill="none" stroke="rgb(115, 161, 191)" stroke-width="1" d="M1320.499999575317,-169.4999944344163C1335.499999575317,-169.4999944344163,1335.499999575317,-65.4999944344163,1350.499999575317,-65.4999944344163L1431.499999575317,-65.4999944344163" display="none"></path><path id="kity_path_311" fill="none" stroke="rgb(115, 161, 191)" stroke-width="1" d="M1320.499999575317,-169.4999944344163C1335.499999575317,-169.4999944344163,1335.499999575317,-13.499994434416294,1350.499999575317,-13.499994434416294L1423.499999575317,-13.499994434416294" display="none"></path><path id="kity_path_319" fill="none" stroke="rgb(115, 161, 191)" stroke-width="1" d="M1320.499999575317,-169.4999944344163C1335.499999575317,-169.4999944344163,1335.499999575317,38.500005565583706,1350.499999575317,38.500005565583706L1420.499999575317,38.500005565583706" display="none"></path><path id="kity_path_327" fill="none" stroke="rgb(115, 161, 191)" stroke-width="1" d="M1234.499999575317,266.5000055655837C1249.499999575317,266.5000055655837,1249.499999575317,253.5000055655837,1264.499999575317,253.5000055655837L1472.499999575317,253.5000055655837"></path><path id="kity_path_335" fill="none" stroke="rgb(115, 161, 191)" stroke-width="1" d="M1234.499999575317,266.5000055655837C1249.499999575317,266.5000055655837,1249.499999575317,383.5000055655837,1264.499999575317,383.5000055655837L1453.499999575317,383.5000055655837"></path><path id="kity_path_343" fill="none" stroke="rgb(115, 161, 191)" stroke-width="1" d="M1453.499999575317,383.5000055655837C1468.499999575317,383.5000055655837,1468.499999575317,305.5000055655837,1483.499999575317,305.5000055655837L1539.499999575317,305.5000055655837"></path><path id="kity_path_351" fill="none" stroke="rgb(115, 161, 191)" stroke-width="1" d="M1539.499999575317,-39.499994434416294C1554.499999575317,-39.499994434416294,1554.499999575317,-65.4999944344163,1569.499999575317,-65.4999944344163L1650.499999575317,-65.4999944344163" display="none"></path><path id="kity_path_359" fill="none" stroke="rgb(115, 161, 191)" stroke-width="1" d="M1539.499999575317,-39.499994434416294C1554.499999575317,-39.499994434416294,1554.499999575317,-13.499994434416294,1569.499999575317,-13.499994434416294L1718.499999575317,-13.499994434416294" display="none"></path><path id="kity_path_375" fill="none" stroke="rgb(115, 161, 191)" stroke-width="1" d="M1453.499999575317,383.5000055655837C1468.499999575317,383.5000055655837,1468.499999575317,357.5000055655837,1483.499999575317,357.5000055655837L1539.499999575317,357.5000055655837"></path><path id="kity_path_383" fill="none" stroke="rgb(115, 161, 191)" stroke-width="1" d="M1539.499999575317,65.5000055655837C1554.499999575317,65.5000055655837,1554.499999575317,13.500005565583706,1569.499999575317,13.500005565583706L1822.499999575317,13.500005565583706" display="none"></path><path id="kity_path_391" fill="none" stroke="rgb(115, 161, 191)" stroke-width="1" d="M1539.499999575317,65.5000055655837C1554.499999575317,65.5000055655837,1554.499999575317,65.5000055655837,1569.499999575317,65.5000055655837L1774.499999575317,65.5000055655837" display="none"></path><path id="kity_path_399" fill="none" stroke="rgb(115, 161, 191)" stroke-width="1" d="M1539.499999575317,65.5000055655837C1554.499999575317,65.5000055655837,1554.499999575317,117.5000055655837,1569.499999575317,117.5000055655837L1719.499999575317,117.5000055655837" display="none"></path><path id="kity_path_407" fill="none" stroke="rgb(115, 161, 191)" stroke-width="1" d="M1453.499999575317,383.5000055655837C1468.499999575317,383.5000055655837,1468.499999575317,461.5000055655837,1483.499999575317,461.5000055655837L1774.499999575317,461.5000055655837"></path><path id="kity_path_415" fill="none" stroke="rgb(115, 161, 191)" stroke-width="1" d="M1774.499999575317,461.5000055655837C1789.499999575317,461.5000055655837,1789.499999575317,409.5000055655837,1804.499999575317,409.5000055655837L1860.499999575317,409.5000055655837"></path><path id="kity_path_423" fill="none" stroke="rgb(115, 161, 191)" stroke-width="1" d="M1860.499999575317,169.5000055655837C1875.499999575317,169.5000055655837,1875.499999575317,117.5000055655837,1890.499999575317,117.5000055655837L1986.499999575317,117.5000055655837" display="none"></path><path id="kity_path_431" fill="none" stroke="rgb(115, 161, 191)" stroke-width="1" d="M1860.499999575317,169.5000055655837C1875.499999575317,169.5000055655837,1875.499999575317,169.5000055655837,1890.499999575317,169.5000055655837L2010.499999575317,169.5000055655837" display="none"></path><path id="kity_path_439" fill="none" stroke="rgb(115, 161, 191)" stroke-width="1" d="M1860.499999575317,169.5000055655837C1875.499999575317,169.5000055655837,1875.499999575317,221.5000055655837,1890.499999575317,221.5000055655837L2005.499999575317,221.5000055655837" display="none"></path><path id="kity_path_447" fill="none" stroke="rgb(115, 161, 191)" stroke-width="1" d="M1774.499999575317,461.5000055655837C1789.499999575317,461.5000055655837,1789.499999575317,461.5000055655837,1804.499999575317,461.5000055655837L1860.499999575317,461.5000055655837"></path><path id="kity_path_455" fill="none" stroke="rgb(115, 161, 191)" stroke-width="1" d="M1860.499999575317,272.5000055655837C1875.499999575317,272.5000055655837,1875.499999575317,220.5000055655837,1890.499999575317,220.5000055655837L2170.499999575317,220.5000055655837" display="none"></path><path id="kity_path_463" fill="none" stroke="rgb(115, 161, 191)" stroke-width="1" d="M1860.499999575317,272.5000055655837C1875.499999575317,272.5000055655837,1875.499999575317,272.5000055655837,1890.499999575317,272.5000055655837L2040.499999575317,272.5000055655837" display="none"></path><path id="kity_path_471" fill="none" stroke="rgb(115, 161, 191)" stroke-width="1" d="M1860.499999575317,272.5000055655837C1875.499999575317,272.5000055655837,1875.499999575317,324.5000055655837,1890.499999575317,324.5000055655837L2044.499999575317,324.5000055655837" display="none"></path><path id="kity_path_479" fill="none" stroke="rgb(115, 161, 191)" stroke-width="1" d="M1774.499999575317,461.5000055655837C1789.499999575317,461.5000055655837,1789.499999575317,513.5000055655837,1804.499999575317,513.5000055655837L2055.499999575317,513.5000055655837"></path><path id="kity_path_487" fill="none" stroke="rgb(115, 161, 191)" stroke-width="1" d="M1007.4999995753169,376.5000055655837C1022.4999995753169,376.5000055655837,1022.4999995753169,708.5000055655837,1037.499999575317,708.5000055655837L1274.499999575317,708.5000055655837"></path><path id="kity_path_511" fill="none" stroke="rgb(115, 161, 191)" stroke-width="1" d="M1274.499999575317,708.5000055655837C1289.499999575317,708.5000055655837,1289.499999575317,565.5000055655837,1304.499999575317,565.5000055655837L1360.499999575317,565.5000055655837"></path><path id="kity_path_519" fill="none" stroke="rgb(115, 161, 191)" stroke-width="1" d="M1360.499999575317,454.5000055655837C1375.499999575317,454.5000055655837,1375.499999575317,376.5000055655837,1390.499999575317,376.5000055655837L1480.499999575317,376.5000055655837" display="none"></path><path id="kity_path_527" fill="none" stroke="rgb(115, 161, 191)" stroke-width="1" d="M1274.499999575317,708.5000055655837C1289.499999575317,708.5000055655837,1289.499999575317,617.5000055655837,1304.499999575317,617.5000055655837L1360.499999575317,617.5000055655837"></path><path id="kity_path_535" fill="none" stroke="rgb(115, 161, 191)" stroke-width="1" d="M1360.499999575317,454.5000055655837C1375.499999575317,454.5000055655837,1375.499999575317,428.5000055655837,1390.499999575317,428.5000055655837L1449.499999575317,428.5000055655837" display="none"></path><path id="kity_path_543" fill="none" stroke="rgb(115, 161, 191)" stroke-width="1" d="M1360.499999575317,454.5000055655837C1375.499999575317,454.5000055655837,1375.499999575317,480.5000055655837,1390.499999575317,480.5000055655837L1445.499999575317,480.5000055655837" display="none"></path><path id="kity_path_551" fill="none" stroke="rgb(115, 161, 191)" stroke-width="1" d="M1360.499999575317,454.5000055655837C1375.499999575317,454.5000055655837,1375.499999575317,532.5000055655837,1390.499999575317,532.5000055655837L1512.499999575317,532.5000055655837" display="none"></path><path id="kity_path_559" fill="none" stroke="rgb(115, 161, 191)" stroke-width="1" d="M1360.499999575317,747.5000055655837C1375.499999575317,747.5000055655837,1375.499999575317,487.5000055655837,1390.499999575317,487.5000055655837L1477.499999575317,487.5000055655837" display="none"></path><path id="kity_path_567" fill="none" stroke="rgb(115, 161, 191)" stroke-width="1" d="M1360.499999575317,747.5000055655837C1375.499999575317,747.5000055655837,1375.499999575317,539.5000055655837,1390.499999575317,539.5000055655837L1525.499999575317,539.5000055655837" display="none"></path><path id="kity_path_575" fill="none" stroke="rgb(115, 161, 191)" stroke-width="1" d="M1360.499999575317,747.5000055655837C1375.499999575317,747.5000055655837,1375.499999575317,591.5000055655837,1390.499999575317,591.5000055655837L1484.499999575317,591.5000055655837" display="none"></path><path id="kity_path_583" fill="none" stroke="rgb(115, 161, 191)" stroke-width="1" d="M1360.499999575317,747.5000055655837C1375.499999575317,747.5000055655837,1375.499999575317,643.5000055655837,1390.499999575317,643.5000055655837L1458.499999575317,643.5000055655837" display="none"></path><path id="kity_path_591" fill="none" stroke="rgb(115, 161, 191)" stroke-width="1" d="M1360.499999575317,747.5000055655837C1375.499999575317,747.5000055655837,1375.499999575317,695.5000055655837,1390.499999575317,695.5000055655837L1454.499999575317,695.5000055655837" display="none"></path><path id="kity_path_599" fill="none" stroke="rgb(115, 161, 191)" stroke-width="1" d="M1360.499999575317,747.5000055655837C1375.499999575317,747.5000055655837,1375.499999575317,747.5000055655837,1390.499999575317,747.5000055655837L1464.499999575317,747.5000055655837" display="none"></path><path id="kity_path_607" fill="none" stroke="rgb(115, 161, 191)" stroke-width="1" d="M1360.499999575317,747.5000055655837C1375.499999575317,747.5000055655837,1375.499999575317,799.5000055655837,1390.499999575317,799.5000055655837L1453.499999575317,799.5000055655837" display="none"></path><path id="kity_path_615" fill="none" stroke="rgb(115, 161, 191)" stroke-width="1" d="M1360.499999575317,747.5000055655837C1375.499999575317,747.5000055655837,1375.499999575317,851.5000055655837,1390.499999575317,851.5000055655837L1464.499999575317,851.5000055655837" display="none"></path><path id="kity_path_623" fill="none" stroke="rgb(115, 161, 191)" stroke-width="1" d="M1360.499999575317,747.5000055655837C1375.499999575317,747.5000055655837,1375.499999575317,903.5000055655837,1390.499999575317,903.5000055655837L1497.499999575317,903.5000055655837" display="none"></path><path id="kity_path_631" fill="none" stroke="rgb(115, 161, 191)" stroke-width="1" d="M1360.499999575317,747.5000055655837C1375.499999575317,747.5000055655837,1375.499999575317,955.5000055655837,1390.499999575317,955.5000055655837L1517.499999575317,955.5000055655837" display="none"></path><path id="kity_path_639" fill="none" stroke="rgb(115, 161, 191)" stroke-width="1" d="M1360.499999575317,747.5000055655837C1375.499999575317,747.5000055655837,1375.499999575317,1007.5000055655837,1390.499999575317,1007.5000055655837L1429.499999575317,1007.5000055655837" display="none"></path><path id="kity_path_647" fill="none" stroke="rgb(115, 161, 191)" stroke-width="1" d="M1274.499999575317,708.5000055655837C1289.499999575317,708.5000055655837,1289.499999575317,851.5000055655837,1304.499999575317,851.5000055655837L1455.499999575317,851.5000055655837"></path><path id="kity_path_655" fill="none" stroke="rgb(115, 161, 191)" stroke-width="1" d="M1455.499999575317,851.5000055655837C1470.499999575317,851.5000055655837,1470.499999575317,669.5000055655837,1485.499999575317,669.5000055655837L1604.499999575317,669.5000055655837"></path><path id="kity_path_663" fill="none" stroke="rgb(115, 161, 191)" stroke-width="1" d="M1455.499999575317,851.5000055655837C1470.499999575317,851.5000055655837,1470.499999575317,721.5000055655837,1485.499999575317,721.5000055655837L1608.499999575317,721.5000055655837"></path><path id="kity_path_671" fill="none" stroke="rgb(115, 161, 191)" stroke-width="1" d="M1455.499999575317,851.5000055655837C1470.499999575317,851.5000055655837,1470.499999575317,773.5000055655837,1485.499999575317,773.5000055655837L1600.499999575317,773.5000055655837"></path><path id="kity_path_679" fill="none" stroke="rgb(115, 161, 191)" stroke-width="1" d="M1455.499999575317,851.5000055655837C1470.499999575317,851.5000055655837,1470.499999575317,825.5000055655837,1485.499999575317,825.5000055655837L1618.499999575317,825.5000055655837"></path><path id="kity_path_687" fill="none" stroke="rgb(115, 161, 191)" stroke-width="1" d="M1455.499999575317,851.5000055655837C1470.499999575317,851.5000055655837,1470.499999575317,877.5000055655837,1485.499999575317,877.5000055655837L1644.499999575317,877.5000055655837"></path><path id="kity_path_695" fill="none" stroke="rgb(115, 161, 191)" stroke-width="1" d="M1455.499999575317,851.5000055655837C1470.499999575317,851.5000055655837,1470.499999575317,929.5000055655837,1485.499999575317,929.5000055655837L1612.499999575317,929.5000055655837"></path><path id="kity_path_703" fill="none" stroke="rgb(115, 161, 191)" stroke-width="1" d="M1455.499999575317,851.5000055655837C1470.499999575317,851.5000055655837,1470.499999575317,981.5000055655837,1485.499999575317,981.5000055655837L1624.499999575317,981.5000055655837"></path><path id="kity_path_711" fill="none" stroke="rgb(115, 161, 191)" stroke-width="1" d="M1455.499999575317,851.5000055655837C1470.499999575317,851.5000055655837,1470.499999575317,1033.5000055655837,1485.499999575317,1033.5000055655837L1604.499999575317,1033.5000055655837"></path></g><g id="minder_node1"><path id="node_outline1" fill="rgb(115, 161, 191)" stroke="rgb(115, 161, 191)" d="M25.499999575316906,342.5000055655837h87a5,5,0,0,1,5,5v30a5,5,0,0,1,-5,5h-87a5,5,0,0,1,-5,-5v-30a5,5,0,0,1,5,-5z" stroke-width="3"></path><g id="node_text1" fill="white"><text id="kity_text_22" text-rendering="inherit" font-size="16" dy=".8em" y="352.1000055298209" x="44.499999575316906">控制器</text></g></g><g id="kity_g_12"><path id="kity_path_13" fill="none" stroke="none" d="M44.499999575316906,362.5000055655837h0v0h0z"></path></g><g id="kity_g_14"><path id="kity_path_15" fill="none" stroke="none" d="M44.499999575316906,362.5000055655837h0v0h0z"></path><path id="kity_path_16" fill="none" stroke="none"></path></g><g id="minder_node2"><g id="node_expander1" style="cursor: pointer;"><path id="kity_path_36" fill="white" stroke="gray" d="M236.5000023469329,362.5000055655837A6,6,0,1,1,224.5000023469329,362.5000055655837A6,6,0,1,1,236.5000023469329,362.5000055655837"></path><path id="kity_path_37" fill="none" stroke="gray" d="M226.0000023469329,362.5000055655837L235.0000023469329,362.5000055655837"></path></g><path id="node_outline2" fill="rgb(238, 243, 246)" stroke="rgb(115, 161, 191)" d="M240.50000274926424,349.5000055655837h147a3,3,0,0,1,3,3v20a3,3,0,0,1,-3,3h-147a3,3,0,0,1,-3,-3v-20a3,3,0,0,1,3,-3z" stroke-width="1"></path><g id="node_text2" fill="black"><text id="kity_text_33" text-rendering="inherit" font-size="14" dy=".8em" y="353.40000553429127" x="257.50000274926424">base\BaseObject</text></g></g><g id="minder_node3"><g id="node_expander2" style="cursor: pointer;"><path id="kity_path_44" fill="white" stroke="gray" d="M430.50000523775816,362.5000055655837A6,6,0,1,1,418.50000523775816,362.5000055655837A6,6,0,1,1,430.50000523775816,362.5000055655837"></path><path id="kity_path_45" fill="none" stroke="gray" d="M420.00000523775816,362.5000055655837L429.00000523775816,362.5000055655837"></path></g><path id="node_outline3" fill="none" stroke="none" d="M435.50000547617674,351.5000055655837h110a5,5,0,0,1,5,5v12a5,5,0,0,1,-5,5h-110a5,5,0,0,1,-5,-5v-12a5,5,0,0,1,5,-5z" stroke-width="3"></path><g id="node_text3" fill="black"><text id="kity_text_41" text-rendering="inherit" font-size="12" dy=".8em" y="354.7000055387616" x="440.50000547617674">base\Component</text></g></g><g id="minder_node4"><g id="node_expander3" style="cursor: pointer;"><path id="kity_path_52" fill="white" stroke="gray" d="M590.500007621944,362.5000055655837A6,6,0,1,1,578.500007621944,362.5000055655837A6,6,0,1,1,590.500007621944,362.5000055655837"></path><path id="kity_path_53" fill="none" stroke="gray" d="M580.000007621944,362.5000055655837L589.000007621944,362.5000055655837"></path></g><path id="node_outline4" fill="none" stroke="none" d="M595.5000078603625,351.5000055655837h407a5,5,0,0,1,5,5v12a5,5,0,0,1,-5,5h-407a5,5,0,0,1,-5,-5v-12a5,5,0,0,1,5,-5z" stroke-width="3"></path><g id="node_text4" fill="black"><text id="kity_text_49" text-rendering="inherit" font-size="12" dy=".8em" y="354.7000055387616" x="600.5000078603625">base\Controller[控制器，对actions的支持](base\ViewContextInterface)</text></g></g><g id="minder_node6"><g id="node_expander5" style="cursor: pointer;"><path id="kity_path_68" fill="white" stroke="gray" d="M1047.5000144317746,31.50000063329935A6,6,0,1,1,1035.5000144317746,31.50000063329935A6,6,0,1,1,1047.5000144317746,31.50000063329935"></path><path id="kity_path_69" fill="none" stroke="gray" d="M1037.0000144317746,31.50000063329935L1046.0000144317746,31.50000063329935M1041.5000144317746,27.00000063329935L1041.5000144317746,36.00000063329935"></path></g><path id="node_outline6" fill="none" stroke="none" d="M1052.5000146701932,20.50000063329935h36a5,5,0,0,1,5,5v12a5,5,0,0,1,-5,5h-36a5,5,0,0,1,-5,-5v-12a5,5,0,0,1,5,-5z" stroke-width="3"></path><g id="node_text6" fill="black"><text id="kity_text_65" text-rendering="inherit" font-size="12" dy=".8em" y="23.70000060647726" x="1057.5000146701932">属性</text></g></g><g id="minder_node7"><g id="node_expander6" style="cursor: pointer;"><path id="kity_path_76" fill="white" stroke="gray" d="M1047.5000144317746,83.50000140815973A6,6,0,1,1,1035.5000144317746,83.50000140815973A6,6,0,1,1,1047.5000144317746,83.50000140815973"></path><path id="kity_path_77" fill="none" stroke="gray" d="M1037.0000144317746,83.50000140815973L1046.0000144317746,83.50000140815973M1041.5000144317746,79.00000140815973L1041.5000144317746,88.00000140815973"></path></g><path id="node_outline7" fill="none" stroke="none" d="M1052.5000146701932,72.50000140815973h36a5,5,0,0,1,5,5v12a5,5,0,0,1,-5,5h-36a5,5,0,0,1,-5,-5v-12a5,5,0,0,1,5,-5z" stroke-width="3"></path><g id="node_text7" fill="black"><text id="kity_text_73" text-rendering="inherit" font-size="12" dy=".8em" y="75.70000138133764" x="1057.5000146701932">方法</text></g></g><g id="minder_node8" display="none"><g id="node_expander7" style="cursor: pointer;" display="none"><path id="kity_path_84" fill="white" stroke="gray" d="M1133.5000157132745,-148.50000204890966A6,6,0,1,1,1121.5000157132745,-148.50000204890966A6,6,0,1,1,1133.5000157132745,-148.50000204890966"></path><path id="kity_path_85" fill="none" stroke="gray"></path></g><path id="node_outline8" fill="none" stroke="none" d="M1128.5000158026814,-159.50000204890966h21a5,5,0,0,1,5,5v12a5,5,0,0,1,-5,5h-21a5,5,0,0,1,-5,-5v-12a5,5,0,0,1,5,-5z" stroke-width="3"></path><g id="node_text8" fill="black"><text id="kity_text_81" text-rendering="inherit" font-size="12" dy=".8em" y="-156.30000207573175" x="1133.5000158026814">id</text></g></g><g id="minder_node9" display="none"><g id="node_expander8" style="cursor: pointer;" display="none"><path id="kity_path_92" fill="white" stroke="gray" d="M1133.5000157132745,-118.50000160187483A6,6,0,1,1,1121.5000157132745,-118.50000160187483A6,6,0,1,1,1133.5000157132745,-118.50000160187483"></path><path id="kity_path_93" fill="none" stroke="gray"></path></g><path id="node_outline9" fill="none" stroke="none" d="M1128.5000158026814,-129.50000160187483h54a5,5,0,0,1,5,5v12a5,5,0,0,1,-5,5h-54a5,5,0,0,1,-5,-5v-12a5,5,0,0,1,5,-5z" stroke-width="3"></path><g id="node_text9" fill="black"><text id="kity_text_89" text-rendering="inherit" font-size="12" dy=".8em" y="-126.30000162869692" x="1133.5000158026814">module</text></g></g><g id="minder_node10" display="none"><g id="node_expander9" style="cursor: pointer;" display="none"><path id="kity_path_100" fill="white" stroke="gray" d="M1133.5000157132745,-88.50000115483999A6,6,0,1,1,1121.5000157132745,-88.50000115483999A6,6,0,1,1,1133.5000157132745,-88.50000115483999"></path><path id="kity_path_101" fill="none" stroke="gray"></path></g><path id="node_outline10" fill="none" stroke="none" d="M1128.5000158026814,-99.50000115483999h87a5,5,0,0,1,5,5v12a5,5,0,0,1,-5,5h-87a5,5,0,0,1,-5,-5v-12a5,5,0,0,1,5,-5z" stroke-width="3"></path><g id="node_text10" fill="black"><text id="kity_text_97" text-rendering="inherit" font-size="12" dy=".8em" y="-96.30000118166208" x="1133.5000158026814">defaultAction</text></g></g><g id="minder_node11" display="none"><g id="node_expander10" style="cursor: pointer;" display="none"><path id="kity_path_108" fill="white" stroke="gray" d="M1133.5000157132745,-58.50000070780516A6,6,0,1,1,1121.5000157132745,-58.50000070780516A6,6,0,1,1,1133.5000157132745,-58.50000070780516"></path><path id="kity_path_109" fill="none" stroke="gray"></path></g><path id="node_outline11" fill="none" stroke="none" d="M1128.5000158026814,-69.50000070780516h46a5,5,0,0,1,5,5v12a5,5,0,0,1,-5,5h-46a5,5,0,0,1,-5,-5v-12a5,5,0,0,1,5,-5z" stroke-width="3"></path><g id="node_text11" fill="black"><text id="kity_text_105" text-rendering="inherit" font-size="12" dy=".8em" y="-66.30000073462725" x="1133.5000158026814">layout</text></g></g><g id="minder_node12" display="none"><g id="node_expander11" style="cursor: pointer;" display="none"><path id="kity_path_116" fill="white" stroke="gray" d="M1133.5000157132745,-28.50000026077032A6,6,0,1,1,1121.5000157132745,-28.50000026077032A6,6,0,1,1,1133.5000157132745,-28.50000026077032"></path><path id="kity_path_117" fill="none" stroke="gray"></path></g><path id="node_outline12" fill="none" stroke="none" d="M1128.5000158026814,-39.50000026077032h45a5,5,0,0,1,5,5v12a5,5,0,0,1,-5,5h-45a5,5,0,0,1,-5,-5v-12a5,5,0,0,1,5,-5z" stroke-width="3"></path><g id="node_text12" fill="black"><text id="kity_text_113" text-rendering="inherit" font-size="12" dy=".8em" y="-36.30000028759241" x="1133.5000158026814">action</text></g></g><g id="minder_node13" display="none"><g id="node_expander12" style="cursor: pointer;" display="none"><path id="kity_path_124" fill="white" stroke="gray" d="M1133.5000157132745,1.500000186264515A6,6,0,1,1,1121.5000157132745,1.500000186264515A6,6,0,1,1,1133.5000157132745,1.500000186264515"></path><path id="kity_path_125" fill="none" stroke="gray"></path></g><path id="node_outline13" fill="none" stroke="none" d="M1128.5000158026814,-9.499999813735485h42a5,5,0,0,1,5,5v12a5,5,0,0,1,-5,5h-42a5,5,0,0,1,-5,-5v-12a5,5,0,0,1,5,-5z" stroke-width="3"></path><g id="node_text13" fill="black"><text id="kity_text_121" text-rendering="inherit" font-size="12" dy=".8em" y="-6.299999840557575" x="1133.5000158026814">_view</text></g></g><g id="minder_node14" display="none"><g id="node_expander13" style="cursor: pointer;" display="none"><path id="kity_path_132" fill="white" stroke="gray" d="M1133.5000157132745,31.50000063329935A6,6,0,1,1,1121.5000157132745,31.50000063329935A6,6,0,1,1,1133.5000157132745,31.50000063329935"></path><path id="kity_path_133" fill="none" stroke="gray"></path></g><path id="node_outline14" fill="none" stroke="none" d="M1128.5000158026814,20.50000063329935h68a5,5,0,0,1,5,5v12a5,5,0,0,1,-5,5h-68a5,5,0,0,1,-5,-5v-12a5,5,0,0,1,5,-5z" stroke-width="3"></path><g id="node_text14" fill="black"><text id="kity_text_129" text-rendering="inherit" font-size="12" dy=".8em" y="23.70000060647726" x="1133.5000158026814">_viewPath</text></g></g><g id="minder_node15" display="none"><g id="node_expander14" style="cursor: pointer;" display="none"><path id="kity_path_140" fill="white" stroke="gray" d="M1133.5000157132745,-156.50000216811895A6,6,0,1,1,1121.5000157132745,-156.50000216811895A6,6,0,1,1,1133.5000157132745,-156.50000216811895"></path><path id="kity_path_141" fill="none" stroke="gray"></path></g><path id="node_outline15" fill="none" stroke="none" d="M1128.5000158026814,-167.50000216811895h51a5,5,0,0,1,5,5v12a5,5,0,0,1,-5,5h-51a5,5,0,0,1,-5,-5v-12a5,5,0,0,1,5,-5z" stroke-width="3"></path><g id="node_text15" fill="black"><text id="kity_text_137" text-rendering="inherit" font-size="12" dy=".8em" y="-164.30000219494104" x="1133.5000158026814">actions</text></g></g><g id="minder_node16" display="none"><g id="node_expander15" style="cursor: pointer;" display="none"><path id="kity_path_148" fill="white" stroke="gray" d="M1133.5000157132745,-126.50000172108412A6,6,0,1,1,1121.5000157132745,-126.50000172108412A6,6,0,1,1,1133.5000157132745,-126.50000172108412"></path><path id="kity_path_149" fill="none" stroke="gray"></path></g><path id="node_outline16" fill="none" stroke="none" d="M1128.5000158026814,-137.50000172108412h67a5,5,0,0,1,5,5v12a5,5,0,0,1,-5,5h-67a5,5,0,0,1,-5,-5v-12a5,5,0,0,1,5,-5z" stroke-width="3"></path><g id="node_text16" fill="black"><text id="kity_text_145" text-rendering="inherit" font-size="12" dy=".8em" y="-134.3000017479062" x="1133.5000158026814">runAction</text></g></g><g id="minder_node17" display="none"><g id="node_expander16" style="cursor: pointer;" display="none"><path id="kity_path_156" fill="white" stroke="gray" d="M1133.5000157132745,-96.50000127404928A6,6,0,1,1,1121.5000157132745,-96.50000127404928A6,6,0,1,1,1133.5000157132745,-96.50000127404928"></path><path id="kity_path_157" fill="none" stroke="gray"></path></g><path id="node_outline17" fill="none" stroke="none" d="M1128.5000158026814,-107.50000127404928h29a5,5,0,0,1,5,5v12a5,5,0,0,1,-5,5h-29a5,5,0,0,1,-5,-5v-12a5,5,0,0,1,5,-5z" stroke-width="3"></path><g id="node_text17" fill="black"><text id="kity_text_153" text-rendering="inherit" font-size="12" dy=".8em" y="-104.30000130087137" x="1133.5000158026814">run</text></g></g><g id="minder_node18" display="none"><g id="node_expander17" style="cursor: pointer;" display="none"><path id="kity_path_164" fill="white" stroke="gray" d="M1133.5000157132745,-66.50000082701445A6,6,0,1,1,1121.5000157132745,-66.50000082701445A6,6,0,1,1,1133.5000157132745,-66.50000082701445"></path><path id="kity_path_165" fill="none" stroke="gray"></path></g><path id="node_outline18" fill="none" stroke="none" d="M1128.5000158026814,-77.50000082701445h115a5,5,0,0,1,5,5v12a5,5,0,0,1,-5,5h-115a5,5,0,0,1,-5,-5v-12a5,5,0,0,1,5,-5z" stroke-width="3"></path><g id="node_text18" fill="black"><text id="kity_text_161" text-rendering="inherit" font-size="12" dy=".8em" y="-74.30000085383654" x="1133.5000158026814">bindActionParams</text></g></g><g id="minder_node19" display="none"><g id="node_expander18" style="cursor: pointer;" display="none"><path id="kity_path_172" fill="white" stroke="gray" d="M1133.5000157132745,-36.50000037997961A6,6,0,1,1,1121.5000157132745,-36.50000037997961A6,6,0,1,1,1133.5000157132745,-36.50000037997961"></path><path id="kity_path_173" fill="none" stroke="gray"></path></g><path id="node_outline19" fill="none" stroke="none" d="M1128.5000158026814,-47.50000037997961h82a5,5,0,0,1,5,5v12a5,5,0,0,1,-5,5h-82a5,5,0,0,1,-5,-5v-12a5,5,0,0,1,5,-5z" stroke-width="3"></path><g id="node_text19" fill="black"><text id="kity_text_169" text-rendering="inherit" font-size="12" dy=".8em" y="-44.3000004068017" x="1133.5000158026814">createAction</text></g></g><g id="minder_node20" display="none"><g id="node_expander19" style="cursor: pointer;" display="none"><path id="kity_path_180" fill="white" stroke="gray" d="M1133.5000157132745,-6.499999932944775A6,6,0,1,1,1121.5000157132745,-6.499999932944775A6,6,0,1,1,1133.5000157132745,-6.499999932944775"></path><path id="kity_path_181" fill="none" stroke="gray"></path></g><path id="node_outline20" fill="none" stroke="none" d="M1128.5000158026814,-17.499999932944775h85a5,5,0,0,1,5,5v12a5,5,0,0,1,-5,5h-85a5,5,0,0,1,-5,-5v-12a5,5,0,0,1,5,-5z" stroke-width="3"></path><g id="node_text20" fill="black"><text id="kity_text_177" text-rendering="inherit" font-size="12" dy=".8em" y="-14.299999959766865" x="1133.5000158026814">beforeAction</text></g></g><g id="minder_node21" display="none"><g id="node_expander20" style="cursor: pointer;" display="none"><path id="kity_path_188" fill="white" stroke="gray" d="M1133.5000157132745,23.50000051409006A6,6,0,1,1,1121.5000157132745,23.50000051409006A6,6,0,1,1,1133.5000157132745,23.50000051409006"></path><path id="kity_path_189" fill="none" stroke="gray"></path></g><path id="node_outline21" fill="none" stroke="none" d="M1128.5000158026814,12.500000514090061h74a5,5,0,0,1,5,5v12a5,5,0,0,1,-5,5h-74a5,5,0,0,1,-5,-5v-12a5,5,0,0,1,5,-5z" stroke-width="3"></path><g id="node_text21" fill="black"><text id="kity_text_185" text-rendering="inherit" font-size="12" dy=".8em" y="15.700000487267971" x="1133.5000158026814">afterAction</text></g></g><g id="minder_node23" display="none"><g id="node_expander22" style="cursor: pointer;" display="none"><path id="kity_path_204" fill="white" stroke="gray" d="M1133.5000157132745,53.5000009611249A6,6,0,1,1,1121.5000157132745,53.5000009611249A6,6,0,1,1,1133.5000157132745,53.5000009611249"></path><path id="kity_path_205" fill="none" stroke="gray"></path></g><path id="node_outline23" fill="none" stroke="none" d="M1128.5000158026814,42.5000009611249h48a5,5,0,0,1,5,5v12a5,5,0,0,1,-5,5h-48a5,5,0,0,1,-5,-5v-12a5,5,0,0,1,5,-5z" stroke-width="3"></path><g id="node_text23" fill="black"><text id="kity_text_201" text-rendering="inherit" font-size="12" dy=".8em" y="45.70000093430281" x="1133.5000158026814">render</text></g></g><g id="minder_node24" display="none"><g id="node_expander23" style="cursor: pointer;" display="none"><path id="kity_path_212" fill="white" stroke="gray" d="M1133.5000157132745,83.50000140815973A6,6,0,1,1,1121.5000157132745,83.50000140815973A6,6,0,1,1,1133.5000157132745,83.50000140815973"></path><path id="kity_path_213" fill="none" stroke="gray"></path></g><path id="node_outline24" fill="none" stroke="none" d="M1128.5000158026814,72.50000140815973h19a5,5,0,0,1,5,5v12a5,5,0,0,1,-5,5h-19a5,5,0,0,1,-5,-5v-12a5,5,0,0,1,5,-5z" stroke-width="3"></path><g id="node_text24" fill="black"><text id="kity_text_209" text-rendering="inherit" font-size="12" dy=".8em" y="75.70000138133764" x="1133.5000158026814">...</text></g></g><g id="minder_node25"><g id="node_expander24" style="cursor: pointer;"><path id="kity_path_220" fill="white" stroke="gray" d="M1047.5000144317746,252.50000392645597A6,6,0,1,1,1035.5000144317746,252.50000392645597A6,6,0,1,1,1047.5000144317746,252.50000392645597"></path><path id="kity_path_221" fill="none" stroke="gray" d="M1037.0000144317746,252.50000392645597L1046.0000144317746,252.50000392645597"></path></g><path id="node_outline25" fill="none" stroke="none" d="M1052.5000146701932,241.50000392645597h177a5,5,0,0,1,5,5v12a5,5,0,0,1,-5,5h-177a5,5,0,0,1,-5,-5v-12a5,5,0,0,1,5,-5z" stroke-width="3"></path><g id="node_text25" fill="black"><text id="kity_text_217" text-rendering="inherit" font-size="12" dy=".8em" y="244.70000389963388" x="1057.5000146701932">web\Controller[web相关操作]</text></g></g><g id="minder_node26"><g id="node_expander25" style="cursor: pointer;"><path id="kity_path_228" fill="white" stroke="gray" d="M1274.5000178143382,135.50000218302011A6,6,0,1,1,1262.5000178143382,135.50000218302011A6,6,0,1,1,1274.5000178143382,135.50000218302011"></path><path id="kity_path_229" fill="none" stroke="gray" d="M1264.0000178143382,135.50000218302011L1273.0000178143382,135.50000218302011M1268.5000178143382,131.00000218302011L1268.5000178143382,140.00000218302011"></path></g><path id="node_outline26" fill="none" stroke="none" d="M1279.5000180527568,124.50000218302011h36a5,5,0,0,1,5,5v12a5,5,0,0,1,-5,5h-36a5,5,0,0,1,-5,-5v-12a5,5,0,0,1,5,-5z" stroke-width="3"></path><g id="node_text26" fill="black"><text id="kity_text_225" text-rendering="inherit" font-size="12" dy=".8em" y="127.70000215619802" x="1284.5000180527568">属性</text></g></g><g id="minder_node27" display="none"><g id="node_expander26" style="cursor: pointer;" display="none"><path id="kity_path_236" fill="white" stroke="gray" d="M1360.500019095838,105.50000173598528A6,6,0,1,1,1348.500019095838,105.50000173598528A6,6,0,1,1,1360.500019095838,105.50000173598528"></path><path id="kity_path_237" fill="none" stroke="gray"></path></g><path id="node_outline27" fill="none" stroke="none" d="M1355.500019185245,94.50000173598528h129a5,5,0,0,1,5,5v12a5,5,0,0,1,-5,5h-129a5,5,0,0,1,-5,-5v-12a5,5,0,0,1,5,-5z" stroke-width="3"></path><g id="node_text27" fill="black"><text id="kity_text_233" text-rendering="inherit" font-size="12" dy=".8em" y="97.70000170916319" x="1360.500019185245">enableCsrfValidation</text></g></g><g id="minder_node28" display="none"><g id="node_expander27" style="cursor: pointer;" display="none"><path id="kity_path_244" fill="white" stroke="gray" d="M1360.500019095838,135.50000218302011A6,6,0,1,1,1348.500019095838,135.50000218302011A6,6,0,1,1,1360.500019095838,135.50000218302011"></path><path id="kity_path_245" fill="none" stroke="gray"></path></g><path id="node_outline28" fill="none" stroke="none" d="M1355.500019185245,124.50000218302011h87a5,5,0,0,1,5,5v12a5,5,0,0,1,-5,5h-87a5,5,0,0,1,-5,-5v-12a5,5,0,0,1,5,-5z" stroke-width="3"></path><g id="node_text28" fill="black"><text id="kity_text_241" text-rendering="inherit" font-size="12" dy=".8em" y="127.70000215619802" x="1360.500019185245">actionParams</text></g></g><g id="minder_node29"><g id="node_expander28" style="cursor: pointer;"><path id="kity_path_252" fill="white" stroke="gray" d="M1274.5000178143382,187.5000029578805A6,6,0,1,1,1262.5000178143382,187.5000029578805A6,6,0,1,1,1274.5000178143382,187.5000029578805"></path><path id="kity_path_253" fill="none" stroke="gray" d="M1264.0000178143382,187.5000029578805L1273.0000178143382,187.5000029578805M1268.5000178143382,183.0000029578805L1268.5000178143382,192.0000029578805"></path></g><path id="node_outline29" fill="none" stroke="none" d="M1279.5000180527568,176.5000029578805h36a5,5,0,0,1,5,5v12a5,5,0,0,1,-5,5h-36a5,5,0,0,1,-5,-5v-12a5,5,0,0,1,5,-5z" stroke-width="3"></path><g id="node_text29" fill="black"><text id="kity_text_249" text-rendering="inherit" font-size="12" dy=".8em" y="179.7000029310584" x="1284.5000180527568">方法</text></g></g><g id="minder_node30" display="none"><g id="node_expander29" style="cursor: pointer;" display="none"><path id="kity_path_260" fill="white" stroke="gray" d="M1360.500019095838,-52.50000061839819A6,6,0,1,1,1348.500019095838,-52.50000061839819A6,6,0,1,1,1360.500019095838,-52.50000061839819"></path><path id="kity_path_261" fill="none" stroke="gray"></path></g><path id="node_outline30" fill="none" stroke="none" d="M1355.500019185245,-63.50000061839819h73a5,5,0,0,1,5,5v12a5,5,0,0,1,-5,5h-73a5,5,0,0,1,-5,-5v-12a5,5,0,0,1,5,-5z" stroke-width="3"></path><g id="node_text30" fill="black"><text id="kity_text_257" text-rendering="inherit" font-size="12" dy=".8em" y="-60.30000064522028" x="1360.500019185245">renderAjax</text></g></g><g id="minder_node31" display="none"><g id="node_expander30" style="cursor: pointer;" display="none"><path id="kity_path_268" fill="white" stroke="gray" d="M1360.500019095838,-22.500000171363354A6,6,0,1,1,1348.500019095838,-22.500000171363354A6,6,0,1,1,1360.500019095838,-22.500000171363354"></path><path id="kity_path_269" fill="none" stroke="gray"></path></g><path id="node_outline31" fill="none" stroke="none" d="M1355.500019185245,-33.500000171363354h48a5,5,0,0,1,5,5v12a5,5,0,0,1,-5,5h-48a5,5,0,0,1,-5,-5v-12a5,5,0,0,1,5,-5z" stroke-width="3"></path><g id="node_text31" fill="black"><text id="kity_text_265" text-rendering="inherit" font-size="12" dy=".8em" y="-30.300000198185444" x="1360.500019185245">asJson</text></g></g><g id="minder_node32" display="none"><g id="node_expander31" style="cursor: pointer;" display="none"><path id="kity_path_276" fill="white" stroke="gray" d="M1360.500019095838,7.500000275671482A6,6,0,1,1,1348.500019095838,7.500000275671482A6,6,0,1,1,1360.500019095838,7.500000275671482"></path><path id="kity_path_277" fill="none" stroke="gray"></path></g><path id="node_outline32" fill="none" stroke="none" d="M1355.500019185245,-3.499999724328518h44a5,5,0,0,1,5,5v12a5,5,0,0,1,-5,5h-44a5,5,0,0,1,-5,-5v-12a5,5,0,0,1,5,-5z" stroke-width="3"></path><g id="node_text32" fill="black"><text id="kity_text_273" text-rendering="inherit" font-size="12" dy=".8em" y="-0.29999975115060806" x="1360.500019185245">asXml</text></g></g><g id="minder_node33" display="none"><g id="node_expander32" style="cursor: pointer;" display="none"><path id="kity_path_284" fill="white" stroke="gray" d="M1360.500019095838,37.50000072270632A6,6,0,1,1,1348.500019095838,37.50000072270632A6,6,0,1,1,1360.500019095838,37.50000072270632"></path><path id="kity_path_285" fill="none" stroke="gray"></path></g><path id="node_outline33" fill="none" stroke="none" d="M1355.500019185245,26.500000722706318h115a5,5,0,0,1,5,5v12a5,5,0,0,1,-5,5h-115a5,5,0,0,1,-5,-5v-12a5,5,0,0,1,5,-5z" stroke-width="3"></path><g id="node_text33" fill="black"><text id="kity_text_281" text-rendering="inherit" font-size="12" dy=".8em" y="29.700000695884228" x="1360.500019185245">bindActionParams</text></g></g><g id="minder_node34" display="none"><g id="node_expander33" style="cursor: pointer;" display="none"><path id="kity_path_292" fill="white" stroke="gray" d="M1360.500019095838,67.50000116974115A6,6,0,1,1,1348.500019095838,67.50000116974115A6,6,0,1,1,1360.500019095838,67.50000116974115"></path><path id="kity_path_293" fill="none" stroke="gray"></path></g><path id="node_outline34" fill="none" stroke="none" d="M1355.500019185245,56.500001169741154h85a5,5,0,0,1,5,5v12a5,5,0,0,1,-5,5h-85a5,5,0,0,1,-5,-5v-12a5,5,0,0,1,5,-5z" stroke-width="3"></path><g id="node_text34" fill="black"><text id="kity_text_289" text-rendering="inherit" font-size="12" dy=".8em" y="59.700001142919064" x="1360.500019185245">beforeAction</text></g></g><g id="minder_node35" display="none"><g id="node_expander34" style="cursor: pointer;" display="none"><path id="kity_path_300" fill="white" stroke="gray" d="M1360.500019095838,97.50000161677599A6,6,0,1,1,1348.500019095838,97.50000161677599A6,6,0,1,1,1360.500019095838,97.50000161677599"></path><path id="kity_path_301" fill="none" stroke="gray"></path></g><path id="node_outline35" fill="none" stroke="none" d="M1355.500019185245,86.50000161677599h54a5,5,0,0,1,5,5v12a5,5,0,0,1,-5,5h-54a5,5,0,0,1,-5,-5v-12a5,5,0,0,1,5,-5z" stroke-width="3"></path><g id="node_text35" fill="black"><text id="kity_text_297" text-rendering="inherit" font-size="12" dy=".8em" y="89.7000015899539" x="1360.500019185245">redirect</text></g></g><g id="minder_node36" display="none"><g id="node_expander35" style="cursor: pointer;" display="none"><path id="kity_path_308" fill="white" stroke="gray" d="M1360.500019095838,127.50000206381083A6,6,0,1,1,1348.500019095838,127.50000206381083A6,6,0,1,1,1360.500019095838,127.50000206381083"></path><path id="kity_path_309" fill="none" stroke="gray"></path></g><path id="node_outline36" fill="none" stroke="none" d="M1355.500019185245,116.50000206381083h61a5,5,0,0,1,5,5v12a5,5,0,0,1,-5,5h-61a5,5,0,0,1,-5,-5v-12a5,5,0,0,1,5,-5z" stroke-width="3"></path><g id="node_text36" fill="black"><text id="kity_text_305" text-rendering="inherit" font-size="12" dy=".8em" y="119.70000203698874" x="1360.500019185245">goHome</text></g></g><g id="minder_node37" display="none"><g id="node_expander36" style="cursor: pointer;" display="none"><path id="kity_path_316" fill="white" stroke="gray" d="M1360.500019095838,157.50000251084566A6,6,0,1,1,1348.500019095838,157.50000251084566A6,6,0,1,1,1360.500019095838,157.50000251084566"></path><path id="kity_path_317" fill="none" stroke="gray"></path></g><path id="node_outline37" fill="none" stroke="none" d="M1355.500019185245,146.50000251084566h53a5,5,0,0,1,5,5v12a5,5,0,0,1,-5,5h-53a5,5,0,0,1,-5,-5v-12a5,5,0,0,1,5,-5z" stroke-width="3"></path><g id="node_text37" fill="black"><text id="kity_text_313" text-rendering="inherit" font-size="12" dy=".8em" y="149.70000248402357" x="1360.500019185245">goBack</text></g></g><g id="minder_node38" display="none"><g id="node_expander37" style="cursor: pointer;" display="none"><path id="kity_path_324" fill="white" stroke="gray" d="M1360.500019095838,187.5000029578805A6,6,0,1,1,1348.500019095838,187.5000029578805A6,6,0,1,1,1360.500019095838,187.5000029578805"></path><path id="kity_path_325" fill="none" stroke="gray"></path></g><path id="node_outline38" fill="none" stroke="none" d="M1355.500019185245,176.5000029578805h50a5,5,0,0,1,5,5v12a5,5,0,0,1,-5,5h-50a5,5,0,0,1,-5,-5v-12a5,5,0,0,1,5,-5z" stroke-width="3"></path><g id="node_text38" fill="black"><text id="kity_text_321" text-rendering="inherit" font-size="12" dy=".8em" y="179.7000029310584" x="1360.500019185245">refresh</text></g></g><g id="minder_node39"><g id="node_expander38" style="cursor: pointer;" display="none"><path id="kity_path_332" fill="white" stroke="gray" d="M1274.5000178143382,239.50000373274088A6,6,0,1,1,1262.5000178143382,239.50000373274088A6,6,0,1,1,1274.5000178143382,239.50000373274088"></path><path id="kity_path_333" fill="none" stroke="gray"></path></g><path id="node_outline39" fill="none" stroke="none" d="M1279.5000180527568,228.50000373274088h188a5,5,0,0,1,5,5v12a5,5,0,0,1,-5,5h-188a5,5,0,0,1,-5,-5v-12a5,5,0,0,1,5,-5z" stroke-width="3"></path><g id="node_text39" fill="black"><text id="kity_text_329" text-rendering="inherit" font-size="12" dy=".8em" y="231.7000037059188" x="1284.5000180527568">@app\controllers\自定义控制器</text></g></g><g id="minder_node40"><g id="node_expander39" style="cursor: pointer;"><path id="kity_path_340" fill="white" stroke="gray" d="M1274.5000178143382,369.50000566989183A6,6,0,1,1,1262.5000178143382,369.50000566989183A6,6,0,1,1,1274.5000178143382,369.50000566989183"></path><path id="kity_path_341" fill="none" stroke="gray" d="M1264.0000178143382,369.50000566989183L1273.0000178143382,369.50000566989183"></path></g><path id="node_outline40" fill="none" stroke="none" d="M1279.5000180527568,358.50000566989183h169a5,5,0,0,1,5,5v12a5,5,0,0,1,-5,5h-169a5,5,0,0,1,-5,-5v-12a5,5,0,0,1,5,-5z" stroke-width="3"></path><g id="node_text40" fill="black"><text id="kity_text_337" text-rendering="inherit" font-size="12" dy=".8em" y="361.70000564306974" x="1284.5000180527568">rest\Controller[RESTful操作]</text></g></g><g id="minder_node41"><g id="node_expander40" style="cursor: pointer;"><path id="kity_path_348" fill="white" stroke="gray" d="M1493.5000210776925,291.50000450760126A6,6,0,1,1,1481.5000210776925,291.50000450760126A6,6,0,1,1,1493.5000210776925,291.50000450760126"></path><path id="kity_path_349" fill="none" stroke="gray" d="M1483.0000210776925,291.50000450760126L1492.0000210776925,291.50000450760126M1487.5000210776925,287.00000450760126L1487.5000210776925,296.00000450760126"></path></g><path id="node_outline41" fill="none" stroke="none" d="M1498.500021316111,280.50000450760126h36a5,5,0,0,1,5,5v12a5,5,0,0,1,-5,5h-36a5,5,0,0,1,-5,-5v-12a5,5,0,0,1,5,-5z" stroke-width="3"></path><g id="node_text41" fill="black"><text id="kity_text_345" text-rendering="inherit" font-size="12" dy=".8em" y="283.70000448077917" x="1503.500021316111">属性</text></g></g><g id="minder_node42" display="none"><g id="node_expander41" style="cursor: pointer;" display="none"><path id="kity_path_356" fill="white" stroke="gray" d="M1579.5000223591924,261.5000040605664A6,6,0,1,1,1567.5000223591924,261.5000040605664A6,6,0,1,1,1579.5000223591924,261.5000040605664"></path><path id="kity_path_357" fill="none" stroke="gray"></path></g><path id="node_outline42" fill="none" stroke="none" d="M1574.5000224485993,250.50000406056643h61a5,5,0,0,1,5,5v12a5,5,0,0,1,-5,5h-61a5,5,0,0,1,-5,-5v-12a5,5,0,0,1,5,-5z" stroke-width="3"></path><g id="node_text42" fill="black"><text id="kity_text_353" text-rendering="inherit" font-size="12" dy=".8em" y="253.70000403374434" x="1579.5000224485993">serializer</text></g></g><g id="minder_node43" display="none"><g id="node_expander42" style="cursor: pointer;" display="none"><path id="kity_path_364" fill="white" stroke="gray" d="M1579.5000223591924,291.50000450760126A6,6,0,1,1,1567.5000223591924,291.50000450760126A6,6,0,1,1,1579.5000223591924,291.50000450760126"></path><path id="kity_path_365" fill="none" stroke="gray"></path></g><path id="node_outline43" fill="none" stroke="none" d="M1574.5000224485993,280.50000450760126h129a5,5,0,0,1,5,5v12a5,5,0,0,1,-5,5h-129a5,5,0,0,1,-5,-5v-12a5,5,0,0,1,5,-5z" stroke-width="3"></path><g id="node_text43" fill="black"><text id="kity_text_361" text-rendering="inherit" font-size="12" dy=".8em" y="283.70000448077917" x="1579.5000224485993">enableCsrfValidation</text></g></g><g id="minder_node45"><g id="node_expander44" style="cursor: pointer;"><path id="kity_path_380" fill="white" stroke="gray" d="M1493.5000210776925,343.50000528246164A6,6,0,1,1,1481.5000210776925,343.50000528246164A6,6,0,1,1,1493.5000210776925,343.50000528246164"></path><path id="kity_path_381" fill="none" stroke="gray" d="M1483.0000210776925,343.50000528246164L1492.0000210776925,343.50000528246164M1487.5000210776925,339.00000528246164L1487.5000210776925,348.00000528246164"></path></g><path id="node_outline45" fill="none" stroke="none" d="M1498.500021316111,332.50000528246164h36a5,5,0,0,1,5,5v12a5,5,0,0,1,-5,5h-36a5,5,0,0,1,-5,-5v-12a5,5,0,0,1,5,-5z" stroke-width="3"></path><g id="node_text45" fill="black"><text id="kity_text_377" text-rendering="inherit" font-size="12" dy=".8em" y="335.70000525563955" x="1503.500021316111">方法</text></g></g><g id="minder_node46" display="none"><g id="node_expander45" style="cursor: pointer;" display="none"><path id="kity_path_388" fill="white" stroke="gray" d="M1579.5000223591924,283.500004388392A6,6,0,1,1,1567.5000223591924,283.500004388392A6,6,0,1,1,1579.5000223591924,283.500004388392"></path><path id="kity_path_389" fill="none" stroke="gray"></path></g><path id="node_outline46" fill="none" stroke="none" d="M1574.5000224485993,272.500004388392h233a5,5,0,0,1,5,5v12a5,5,0,0,1,-5,5h-233a5,5,0,0,1,-5,-5v-12a5,5,0,0,1,5,-5z" stroke-width="3"></path><g id="node_text46" fill="black"><text id="kity_text_385" text-rendering="inherit" font-size="12" dy=".8em" y="275.7000043615699" x="1579.5000224485993">behaviors RESTful特有的过滤器、限速等</text></g></g><g id="minder_node47" display="none"><g id="node_expander46" style="cursor: pointer;" display="none"><path id="kity_path_396" fill="white" stroke="gray" d="M1579.5000223591924,313.5000048354268A6,6,0,1,1,1567.5000223591924,313.5000048354268A6,6,0,1,1,1579.5000223591924,313.5000048354268"></path><path id="kity_path_397" fill="none" stroke="gray"></path></g><path id="node_outline47" fill="none" stroke="none" d="M1574.5000224485993,302.5000048354268h185a5,5,0,0,1,5,5v12a5,5,0,0,1,-5,5h-185a5,5,0,0,1,-5,-5v-12a5,5,0,0,1,5,-5z" stroke-width="3"></path><g id="node_text47" fill="black"><text id="kity_text_393" text-rendering="inherit" font-size="12" dy=".8em" y="305.7000048086047" x="1579.5000224485993">afterAction&#xa0;需要最后序列化一下</text></g></g><g id="minder_node48" display="none"><g id="node_expander47" style="cursor: pointer;" display="none"><path id="kity_path_404" fill="white" stroke="gray" d="M1579.5000223591924,343.50000528246164A6,6,0,1,1,1567.5000223591924,343.50000528246164A6,6,0,1,1,1579.5000223591924,343.50000528246164"></path><path id="kity_path_405" fill="none" stroke="gray"></path></g><path id="node_outline48" fill="none" stroke="none" d="M1574.5000224485993,332.50000528246164h130a5,5,0,0,1,5,5v12a5,5,0,0,1,-5,5h-130a5,5,0,0,1,-5,-5v-12a5,5,0,0,1,5,-5z" stroke-width="3"></path><g id="node_text48" fill="black"><text id="kity_text_401" text-rendering="inherit" font-size="12" dy=".8em" y="335.70000525563955" x="1579.5000224485993">verbs&#xa0;允许的请求类型</text></g></g><g id="minder_node49"><g id="node_expander48" style="cursor: pointer;"><path id="kity_path_412" fill="white" stroke="gray" d="M1493.5000210776925,447.5000068321824A6,6,0,1,1,1481.5000210776925,447.5000068321824A6,6,0,1,1,1493.5000210776925,447.5000068321824"></path><path id="kity_path_413" fill="none" stroke="gray" d="M1483.0000210776925,447.5000068321824L1492.0000210776925,447.5000068321824"></path></g><path id="node_outline49" fill="none" stroke="none" d="M1498.500021316111,436.5000068321824h271a5,5,0,0,1,5,5v12a5,5,0,0,1,-5,5h-271a5,5,0,0,1,-5,-5v-12a5,5,0,0,1,5,-5z" stroke-width="3"></path><g id="node_text49" fill="black"><text id="kity_text_409" text-rendering="inherit" font-size="12" dy=".8em" y="439.7000068053603" x="1503.500021316111">rest\ActiveController[与AR关联的RESUful操作]</text></g></g><g id="minder_node50"><g id="node_expander49" style="cursor: pointer;"><path id="kity_path_420" fill="white" stroke="gray" d="M1814.5000258609653,395.500006057322A6,6,0,1,1,1802.5000258609653,395.500006057322A6,6,0,1,1,1814.5000258609653,395.500006057322"></path><path id="kity_path_421" fill="none" stroke="gray" d="M1804.0000258609653,395.500006057322L1813.0000258609653,395.500006057322M1808.5000258609653,391.000006057322L1808.5000258609653,400.000006057322"></path></g><path id="node_outline50" fill="none" stroke="none" d="M1819.5000260993838,384.500006057322h36a5,5,0,0,1,5,5v12a5,5,0,0,1,-5,5h-36a5,5,0,0,1,-5,-5v-12a5,5,0,0,1,5,-5z" stroke-width="3"></path><g id="node_text50" fill="black"><text id="kity_text_417" text-rendering="inherit" font-size="12" dy=".8em" y="387.70000603049994" x="1824.5000260993838">属性</text></g></g><g id="minder_node51" display="none"><g id="node_expander50" style="cursor: pointer;" display="none"><path id="kity_path_428" fill="white" stroke="gray" d="M1900.5000271424651,335.50000516325235A6,6,0,1,1,1888.5000271424651,335.50000516325235A6,6,0,1,1,1900.5000271424651,335.50000516325235"></path><path id="kity_path_429" fill="none" stroke="gray"></path></g><path id="node_outline51" fill="none" stroke="none" d="M1895.500027231872,324.50000516325235h76a5,5,0,0,1,5,5v12a5,5,0,0,1,-5,5h-76a5,5,0,0,1,-5,-5v-12a5,5,0,0,1,5,-5z" stroke-width="3"></path><g id="node_text51" fill="black"><text id="kity_text_425" text-rendering="inherit" font-size="12" dy=".8em" y="327.70000513643026" x="1900.500027231872">modelClass</text></g></g><g id="minder_node52" display="none"><g id="node_expander51" style="cursor: pointer;" display="none"><path id="kity_path_436" fill="white" stroke="gray" d="M1900.5000271424651,365.5000056102872A6,6,0,1,1,1888.5000271424651,365.5000056102872A6,6,0,1,1,1900.5000271424651,365.5000056102872"></path><path id="kity_path_437" fill="none" stroke="gray"></path></g><path id="node_outline52" fill="none" stroke="none" d="M1895.500027231872,354.5000056102872h100a5,5,0,0,1,5,5v12a5,5,0,0,1,-5,5h-100a5,5,0,0,1,-5,-5v-12a5,5,0,0,1,5,-5z" stroke-width="3"></path><g id="node_text52" fill="black"><text id="kity_text_433" text-rendering="inherit" font-size="12" dy=".8em" y="357.7000055834651" x="1900.500027231872">updateScenario</text></g></g><g id="minder_node53" display="none"><g id="node_expander52" style="cursor: pointer;" display="none"><path id="kity_path_444" fill="white" stroke="gray" d="M1900.5000271424651,395.500006057322A6,6,0,1,1,1888.5000271424651,395.500006057322A6,6,0,1,1,1900.5000271424651,395.500006057322"></path><path id="kity_path_445" fill="none" stroke="gray"></path></g><path id="node_outline53" fill="none" stroke="none" d="M1895.500027231872,384.500006057322h95a5,5,0,0,1,5,5v12a5,5,0,0,1,-5,5h-95a5,5,0,0,1,-5,-5v-12a5,5,0,0,1,5,-5z" stroke-width="3"></path><g id="node_text53" fill="black"><text id="kity_text_441" text-rendering="inherit" font-size="12" dy=".8em" y="387.70000603049994" x="1900.500027231872">createScenario</text></g></g><g id="minder_node54"><g id="node_expander53" style="cursor: pointer;"><path id="kity_path_452" fill="white" stroke="gray" d="M1814.5000258609653,447.5000068321824A6,6,0,1,1,1802.5000258609653,447.5000068321824A6,6,0,1,1,1814.5000258609653,447.5000068321824"></path><path id="kity_path_453" fill="none" stroke="gray" d="M1804.0000258609653,447.5000068321824L1813.0000258609653,447.5000068321824M1808.5000258609653,443.0000068321824L1808.5000258609653,452.0000068321824"></path></g><path id="node_outline54" fill="none" stroke="none" d="M1819.5000260993838,436.5000068321824h36a5,5,0,0,1,5,5v12a5,5,0,0,1,-5,5h-36a5,5,0,0,1,-5,-5v-12a5,5,0,0,1,5,-5z" stroke-width="3"></path><g id="node_text54" fill="black"><text id="kity_text_449" text-rendering="inherit" font-size="12" dy=".8em" y="439.7000068053603" x="1824.5000260993838">方法</text></g></g><g id="minder_node55" display="none"><g id="node_expander54" style="cursor: pointer;" display="none"><path id="kity_path_460" fill="white" stroke="gray" d="M1900.5000271424651,387.50000593811274A6,6,0,1,1,1888.5000271424651,387.50000593811274A6,6,0,1,1,1900.5000271424651,387.50000593811274"></path><path id="kity_path_461" fill="none" stroke="gray"></path></g><path id="node_outline55" fill="none" stroke="none" d="M1895.500027231872,376.50000593811274h260a5,5,0,0,1,5,5v12a5,5,0,0,1,-5,5h-260a5,5,0,0,1,-5,-5v-12a5,5,0,0,1,5,-5z" stroke-width="3"></path><g id="node_text55" fill="black"><text id="kity_text_457" text-rendering="inherit" font-size="12" dy=".8em" y="379.70000591129065" x="1900.500027231872">actions&#xa0;定义了增删改查需要请求的独立Action</text></g></g><g id="minder_node56" display="none"><g id="node_expander55" style="cursor: pointer;" display="none"><path id="kity_path_468" fill="white" stroke="gray" d="M1900.5000271424651,417.50000638514757A6,6,0,1,1,1888.5000271424651,417.50000638514757A6,6,0,1,1,1900.5000271424651,417.50000638514757"></path><path id="kity_path_469" fill="none" stroke="gray"></path></g><path id="node_outline56" fill="none" stroke="none" d="M1895.500027231872,406.50000638514757h130a5,5,0,0,1,5,5v12a5,5,0,0,1,-5,5h-130a5,5,0,0,1,-5,-5v-12a5,5,0,0,1,5,-5z" stroke-width="3"></path><g id="node_text56" fill="black"><text id="kity_text_465" text-rendering="inherit" font-size="12" dy=".8em" y="409.7000063583255" x="1900.500027231872">verbs&#xa0;允许的请求类型</text></g></g><g id="minder_node57" display="none"><g id="node_expander56" style="cursor: pointer;" display="none"><path id="kity_path_476" fill="white" stroke="gray" d="M1900.5000271424651,447.5000068321824A6,6,0,1,1,1888.5000271424651,447.5000068321824A6,6,0,1,1,1900.5000271424651,447.5000068321824"></path><path id="kity_path_477" fill="none" stroke="gray"></path></g><path id="node_outline57" fill="none" stroke="none" d="M1895.500027231872,436.5000068321824h134a5,5,0,0,1,5,5v12a5,5,0,0,1,-5,5h-134a5,5,0,0,1,-5,-5v-12a5,5,0,0,1,5,-5z" stroke-width="3"></path><g id="node_text57" fill="black"><text id="kity_text_473" text-rendering="inherit" font-size="12" dy=".8em" y="439.7000068053603" x="1900.500027231872">checkAccess&#xa0;权限验证</text></g></g><g id="minder_node58"><g id="node_expander57" style="cursor: pointer;" display="none"><path id="kity_path_484" fill="white" stroke="gray" d="M1814.5000258609653,499.5000076070428A6,6,0,1,1,1802.5000258609653,499.5000076070428A6,6,0,1,1,1814.5000258609653,499.5000076070428"></path><path id="kity_path_485" fill="none" stroke="gray"></path></g><path id="node_outline58" fill="none" stroke="none" d="M1819.5000260993838,488.5000076070428h231a5,5,0,0,1,5,5v12a5,5,0,0,1,-5,5h-231a5,5,0,0,1,-5,-5v-12a5,5,0,0,1,5,-5z" stroke-width="3"></path><g id="node_text58" fill="black"><text id="kity_text_481" text-rendering="inherit" font-size="12" dy=".8em" y="491.7000075802207" x="1824.5000260993838">@app\controllers\自定义RESTful控制器</text></g></g><g id="minder_node59"><g id="node_expander58" style="cursor: pointer;"><path id="kity_path_492" fill="white" stroke="gray" d="M1047.5000144317746,694.5000105127692A6,6,0,1,1,1035.5000144317746,694.5000105127692A6,6,0,1,1,1047.5000144317746,694.5000105127692"></path><path id="kity_path_493" fill="none" stroke="gray" d="M1037.0000144317746,694.5000105127692L1046.0000144317746,694.5000105127692"></path></g><path id="node_outline59" fill="none" stroke="none" d="M1052.5000146701932,683.5000105127692h217a5,5,0,0,1,5,5v12a5,5,0,0,1,-5,5h-217a5,5,0,0,1,-5,-5v-12a5,5,0,0,1,5,-5z" stroke-width="3"></path><g id="node_text59" fill="black"><text id="kity_text_489" text-rendering="inherit" font-size="12" dy=".8em" y="686.7000104859471" x="1057.5000146701932">console\Controller[console相关操作]</text></g></g><g id="minder_node62"><g id="node_expander61" style="cursor: pointer;"><path id="kity_path_516" fill="white" stroke="gray" d="M1314.5000184103847,551.5000083819032A6,6,0,1,1,1302.5000184103847,551.5000083819032A6,6,0,1,1,1314.5000184103847,551.5000083819032"></path><path id="kity_path_517" fill="none" stroke="gray" d="M1304.0000184103847,551.5000083819032L1313.0000184103847,551.5000083819032M1308.5000184103847,547.0000083819032L1308.5000184103847,556.0000083819032"></path></g><path id="node_outline62" fill="none" stroke="none" d="M1319.5000186488032,540.5000083819032h36a5,5,0,0,1,5,5v12a5,5,0,0,1,-5,5h-36a5,5,0,0,1,-5,-5v-12a5,5,0,0,1,5,-5z" stroke-width="3"></path><g id="node_text62" fill="black"><text id="kity_text_513" text-rendering="inherit" font-size="12" dy=".8em" y="543.7000083550811" x="1324.5000186488032">属性</text></g></g><g id="minder_node63" display="none"><g id="node_expander62" style="cursor: pointer;" display="none"><path id="kity_path_524" fill="white" stroke="gray" d="M1400.5000196918845,461.50000704079866A6,6,0,1,1,1388.5000196918845,461.50000704079866A6,6,0,1,1,1400.5000196918845,461.50000704079866"></path><path id="kity_path_525" fill="none" stroke="gray"></path></g><path id="node_outline63" fill="none" stroke="none" d="M1395.5000197812915,450.50000704079866h70a5,5,0,0,1,5,5v12a5,5,0,0,1,-5,5h-70a5,5,0,0,1,-5,-5v-12a5,5,0,0,1,5,-5z" stroke-width="3"></path><g id="node_text63" fill="black"><text id="kity_text_521" text-rendering="inherit" font-size="12" dy=".8em" y="453.7000070139766" x="1400.5000197812915">interactive</text></g></g><g id="minder_node64"><g id="node_expander63" style="cursor: pointer;"><path id="kity_path_532" fill="white" stroke="gray" d="M1314.5000184103847,603.5000091567636A6,6,0,1,1,1302.5000184103847,603.5000091567636A6,6,0,1,1,1314.5000184103847,603.5000091567636"></path><path id="kity_path_533" fill="none" stroke="gray" d="M1304.0000184103847,603.5000091567636L1313.0000184103847,603.5000091567636M1308.5000184103847,599.0000091567636L1308.5000184103847,608.0000091567636"></path></g><path id="node_outline64" fill="none" stroke="none" d="M1319.5000186488032,592.5000091567636h36a5,5,0,0,1,5,5v12a5,5,0,0,1,-5,5h-36a5,5,0,0,1,-5,-5v-12a5,5,0,0,1,5,-5z" stroke-width="3"></path><g id="node_text64" fill="black"><text id="kity_text_529" text-rendering="inherit" font-size="12" dy=".8em" y="595.7000091299415" x="1324.5000186488032">方法</text></g></g><g id="minder_node65" display="none"><g id="node_expander64" style="cursor: pointer;" display="none"><path id="kity_path_540" fill="white" stroke="gray" d="M1400.5000196918845,491.5000074878335A6,6,0,1,1,1388.5000196918845,491.5000074878335A6,6,0,1,1,1400.5000196918845,491.5000074878335"></path><path id="kity_path_541" fill="none" stroke="gray"></path></g><path id="node_outline65" fill="none" stroke="none" d="M1395.5000197812915,480.5000074878335h39a5,5,0,0,1,5,5v12a5,5,0,0,1,-5,5h-39a5,5,0,0,1,-5,-5v-12a5,5,0,0,1,5,-5z" stroke-width="3"></path><g id="node_text65" fill="black"><text id="kity_text_537" text-rendering="inherit" font-size="12" dy=".8em" y="483.7000074610114" x="1400.5000197812915">color</text></g></g><g id="minder_node66" display="none"><g id="node_expander65" style="cursor: pointer;" display="none"><path id="kity_path_548" fill="white" stroke="gray" d="M1400.5000196918845,521.5000079348683A6,6,0,1,1,1388.5000196918845,521.5000079348683A6,6,0,1,1,1400.5000196918845,521.5000079348683"></path><path id="kity_path_549" fill="none" stroke="gray"></path></g><path id="node_outline66" fill="none" stroke="none" d="M1395.5000197812915,510.50000793486834h35a5,5,0,0,1,5,5v12a5,5,0,0,1,-5,5h-35a5,5,0,0,1,-5,-5v-12a5,5,0,0,1,5,-5z" stroke-width="3"></path><g id="node_text66" fill="black"><text id="kity_text_545" text-rendering="inherit" font-size="12" dy=".8em" y="513.7000079080462" x="1400.5000197812915">help</text></g></g><g id="minder_node67" display="none"><g id="node_expander66" style="cursor: pointer;" display="none"><path id="kity_path_556" fill="white" stroke="gray" d="M1400.5000196918845,551.5000083819032A6,6,0,1,1,1388.5000196918845,551.5000083819032A6,6,0,1,1,1400.5000196918845,551.5000083819032"></path><path id="kity_path_557" fill="none" stroke="gray"></path></g><path id="node_outline67" fill="none" stroke="none" d="M1395.5000197812915,540.5000083819032h102a5,5,0,0,1,5,5v12a5,5,0,0,1,-5,5h-102a5,5,0,0,1,-5,-5v-12a5,5,0,0,1,5,-5z" stroke-width="3"></path><g id="node_text67" fill="black"><text id="kity_text_553" text-rendering="inherit" font-size="12" dy=".8em" y="543.7000083550811" x="1400.5000197812915">_passedOptions</text></g></g><g id="minder_node68" display="none"><g id="node_expander67" style="cursor: pointer;" display="none"><path id="kity_path_564" fill="white" stroke="gray" d="M1400.5000196918845,303.5000046864152A6,6,0,1,1,1388.5000196918845,303.5000046864152A6,6,0,1,1,1400.5000196918845,303.5000046864152"></path><path id="kity_path_565" fill="none" stroke="gray"></path></g><path id="node_outline68" fill="none" stroke="none" d="M1395.5000197812915,292.5000046864152h67a5,5,0,0,1,5,5v12a5,5,0,0,1,-5,5h-67a5,5,0,0,1,-5,-5v-12a5,5,0,0,1,5,-5z" stroke-width="3"></path><g id="node_text68" fill="black"><text id="kity_text_561" text-rendering="inherit" font-size="12" dy=".8em" y="295.7000046595931" x="1400.5000197812915">runAction</text></g></g><g id="minder_node69" display="none"><g id="node_expander68" style="cursor: pointer;" display="none"><path id="kity_path_572" fill="white" stroke="gray" d="M1400.5000196918845,333.50000513345003A6,6,0,1,1,1388.5000196918845,333.50000513345003A6,6,0,1,1,1400.5000196918845,333.50000513345003"></path><path id="kity_path_573" fill="none" stroke="gray"></path></g><path id="node_outline69" fill="none" stroke="none" d="M1395.5000197812915,322.50000513345003h115a5,5,0,0,1,5,5v12a5,5,0,0,1,-5,5h-115a5,5,0,0,1,-5,-5v-12a5,5,0,0,1,5,-5z" stroke-width="3"></path><g id="node_text69" fill="black"><text id="kity_text_569" text-rendering="inherit" font-size="12" dy=".8em" y="325.70000510662794" x="1400.5000197812915">bindActionParams</text></g></g><g id="minder_node70" display="none"><g id="node_expander69" style="cursor: pointer;" display="none"><path id="kity_path_580" fill="white" stroke="gray" d="M1400.5000196918845,363.50000558048487A6,6,0,1,1,1388.5000196918845,363.50000558048487A6,6,0,1,1,1400.5000196918845,363.50000558048487"></path><path id="kity_path_581" fill="none" stroke="gray"></path></g><path id="node_outline70" fill="none" stroke="none" d="M1395.5000197812915,352.50000558048487h74a5,5,0,0,1,5,5v12a5,5,0,0,1,-5,5h-74a5,5,0,0,1,-5,-5v-12a5,5,0,0,1,5,-5z" stroke-width="3"></path><g id="node_text70" fill="black"><text id="kity_text_577" text-rendering="inherit" font-size="12" dy=".8em" y="355.7000055536628" x="1400.5000197812915">ansiFormat</text></g></g><g id="minder_node71" display="none"><g id="node_expander70" style="cursor: pointer;" display="none"><path id="kity_path_588" fill="white" stroke="gray" d="M1400.5000196918845,393.5000060275197A6,6,0,1,1,1388.5000196918845,393.5000060275197A6,6,0,1,1,1400.5000196918845,393.5000060275197"></path><path id="kity_path_589" fill="none" stroke="gray"></path></g><path id="node_outline71" fill="none" stroke="none" d="M1395.5000197812915,382.5000060275197h48a5,5,0,0,1,5,5v12a5,5,0,0,1,-5,5h-48a5,5,0,0,1,-5,-5v-12a5,5,0,0,1,5,-5z" stroke-width="3"></path><g id="node_text71" fill="black"><text id="kity_text_585" text-rendering="inherit" font-size="12" dy=".8em" y="385.7000060006976" x="1400.5000197812915">stdout</text></g></g><g id="minder_node72" display="none"><g id="node_expander71" style="cursor: pointer;" display="none"><path id="kity_path_596" fill="white" stroke="gray" d="M1400.5000196918845,423.50000647455454A6,6,0,1,1,1388.5000196918845,423.50000647455454A6,6,0,1,1,1400.5000196918845,423.50000647455454"></path><path id="kity_path_597" fill="none" stroke="gray"></path></g><path id="node_outline72" fill="none" stroke="none" d="M1395.5000197812915,412.50000647455454h44a5,5,0,0,1,5,5v12a5,5,0,0,1,-5,5h-44a5,5,0,0,1,-5,-5v-12a5,5,0,0,1,5,-5z" stroke-width="3"></path><g id="node_text72" fill="black"><text id="kity_text_593" text-rendering="inherit" font-size="12" dy=".8em" y="415.70000644773245" x="1400.5000197812915">stderr</text></g></g><g id="minder_node73" display="none"><g id="node_expander72" style="cursor: pointer;" display="none"><path id="kity_path_604" fill="white" stroke="gray" d="M1400.5000196918845,453.5000069215894A6,6,0,1,1,1388.5000196918845,453.5000069215894A6,6,0,1,1,1400.5000196918845,453.5000069215894"></path><path id="kity_path_605" fill="none" stroke="gray"></path></g><path id="node_outline73" fill="none" stroke="none" d="M1395.5000197812915,442.5000069215894h54a5,5,0,0,1,5,5v12a5,5,0,0,1,-5,5h-54a5,5,0,0,1,-5,-5v-12a5,5,0,0,1,5,-5z" stroke-width="3"></path><g id="node_text73" fill="black"><text id="kity_text_601" text-rendering="inherit" font-size="12" dy=".8em" y="445.7000068947673" x="1400.5000197812915">confirm</text></g></g><g id="minder_node74" display="none"><g id="node_expander73" style="cursor: pointer;" display="none"><path id="kity_path_612" fill="white" stroke="gray" d="M1400.5000196918845,483.5000073686242A6,6,0,1,1,1388.5000196918845,483.5000073686242A6,6,0,1,1,1400.5000196918845,483.5000073686242"></path><path id="kity_path_613" fill="none" stroke="gray"></path></g><path id="node_outline74" fill="none" stroke="none" d="M1395.5000197812915,472.5000073686242h43a5,5,0,0,1,5,5v12a5,5,0,0,1,-5,5h-43a5,5,0,0,1,-5,-5v-12a5,5,0,0,1,5,-5z" stroke-width="3"></path><g id="node_text74" fill="black"><text id="kity_text_609" text-rendering="inherit" font-size="12" dy=".8em" y="475.7000073418021" x="1400.5000197812915">select</text></g></g><g id="minder_node75" display="none"><g id="node_expander74" style="cursor: pointer;" display="none"><path id="kity_path_620" fill="white" stroke="gray" d="M1400.5000196918845,513.500007815659A6,6,0,1,1,1388.5000196918845,513.500007815659A6,6,0,1,1,1400.5000196918845,513.500007815659"></path><path id="kity_path_621" fill="none" stroke="gray"></path></g><path id="node_outline75" fill="none" stroke="none" d="M1395.5000197812915,502.50000781565905h54a5,5,0,0,1,5,5v12a5,5,0,0,1,-5,5h-54a5,5,0,0,1,-5,-5v-12a5,5,0,0,1,5,-5z" stroke-width="3"></path><g id="node_text75" fill="black"><text id="kity_text_617" text-rendering="inherit" font-size="12" dy=".8em" y="505.70000778883696" x="1400.5000197812915">options</text></g></g><g id="minder_node76" display="none"><g id="node_expander75" style="cursor: pointer;" display="none"><path id="kity_path_628" fill="white" stroke="gray" d="M1400.5000196918845,543.5000082626939A6,6,0,1,1,1388.5000196918845,543.5000082626939A6,6,0,1,1,1400.5000196918845,543.5000082626939"></path><path id="kity_path_629" fill="none" stroke="gray"></path></g><path id="node_outline76" fill="none" stroke="none" d="M1395.5000197812915,532.5000082626939h87a5,5,0,0,1,5,5v12a5,5,0,0,1,-5,5h-87a5,5,0,0,1,-5,-5v-12a5,5,0,0,1,5,-5z" stroke-width="3"></path><g id="node_text76" fill="black"><text id="kity_text_625" text-rendering="inherit" font-size="12" dy=".8em" y="535.7000082358718" x="1400.5000197812915">optionAliases</text></g></g><g id="minder_node77" display="none"><g id="node_expander76" style="cursor: pointer;" display="none"><path id="kity_path_636" fill="white" stroke="gray" d="M1400.5000196918845,573.5000087097287A6,6,0,1,1,1388.5000196918845,573.5000087097287A6,6,0,1,1,1400.5000196918845,573.5000087097287"></path><path id="kity_path_637" fill="none" stroke="gray"></path></g><path id="node_outline77" fill="none" stroke="none" d="M1395.5000197812915,562.5000087097287h107a5,5,0,0,1,5,5v12a5,5,0,0,1,-5,5h-107a5,5,0,0,1,-5,-5v-12a5,5,0,0,1,5,-5z" stroke-width="3"></path><g id="node_text77" fill="black"><text id="kity_text_633" text-rendering="inherit" font-size="12" dy=".8em" y="565.7000086829066" x="1400.5000197812915">getOptionValues</text></g></g><g id="minder_node78" display="none"><g id="node_expander77" style="cursor: pointer;" display="none"><path id="kity_path_644" fill="white" stroke="gray" d="M1400.5000196918845,603.5000091567636A6,6,0,1,1,1388.5000196918845,603.5000091567636A6,6,0,1,1,1400.5000196918845,603.5000091567636"></path><path id="kity_path_645" fill="none" stroke="gray"></path></g><path id="node_outline78" fill="none" stroke="none" d="M1395.5000197812915,592.5000091567636h19a5,5,0,0,1,5,5v12a5,5,0,0,1,-5,5h-19a5,5,0,0,1,-5,-5v-12a5,5,0,0,1,5,-5z" stroke-width="3"></path><g id="node_text78" fill="black"><text id="kity_text_641" text-rendering="inherit" font-size="12" dy=".8em" y="595.7000091299415" x="1400.5000197812915">...</text></g></g><g id="minder_node79"><g id="node_expander78" style="cursor: pointer;"><path id="kity_path_652" fill="white" stroke="gray" d="M1314.5000184103847,837.5000126436353A6,6,0,1,1,1302.5000184103847,837.5000126436353A6,6,0,1,1,1314.5000184103847,837.5000126436353"></path><path id="kity_path_653" fill="none" stroke="gray" d="M1304.0000184103847,837.5000126436353L1313.0000184103847,837.5000126436353"></path></g><path id="node_outline79" fill="none" stroke="none" d="M1319.5000186488032,826.5000126436353h131a5,5,0,0,1,5,5v12a5,5,0,0,1,-5,5h-131a5,5,0,0,1,-5,-5v-12a5,5,0,0,1,5,-5z" stroke-width="3"></path><g id="node_text79" fill="black"><text id="kity_text_649" text-rendering="inherit" font-size="12" dy=".8em" y="829.7000126168132" x="1324.5000186488032">console\controllers\*</text></g></g><g id="minder_node80"><g id="node_expander79" style="cursor: pointer;" display="none"><path id="kity_path_660" fill="white" stroke="gray" d="M1495.5000211074948,655.5000099316239A6,6,0,1,1,1483.5000211074948,655.5000099316239A6,6,0,1,1,1495.5000211074948,655.5000099316239"></path><path id="kity_path_661" fill="none" stroke="gray"></path></g><path id="node_outline80" fill="none" stroke="none" d="M1500.5000213459134,644.5000099316239h99a5,5,0,0,1,5,5v12a5,5,0,0,1,-5,5h-99a5,5,0,0,1,-5,-5v-12a5,5,0,0,1,5,-5z" stroke-width="3"></path><g id="node_text80" fill="black"><text id="kity_text_657" text-rendering="inherit" font-size="12" dy=".8em" y="647.7000099048018" x="1505.5000213459134">AssetController</text></g></g><g id="minder_node81"><g id="node_expander80" style="cursor: pointer;" display="none"><path id="kity_path_668" fill="white" stroke="gray" d="M1495.5000211074948,707.5000107064843A6,6,0,1,1,1483.5000211074948,707.5000107064843A6,6,0,1,1,1495.5000211074948,707.5000107064843"></path><path id="kity_path_669" fill="none" stroke="gray"></path></g><path id="node_outline81" fill="none" stroke="none" d="M1500.5000213459134,696.5000107064843h103a5,5,0,0,1,5,5v12a5,5,0,0,1,-5,5h-103a5,5,0,0,1,-5,-5v-12a5,5,0,0,1,5,-5z" stroke-width="3"></path><g id="node_text81" fill="black"><text id="kity_text_665" text-rendering="inherit" font-size="12" dy=".8em" y="699.7000106796622" x="1505.5000213459134">CacheController</text></g></g><g id="minder_node82"><g id="node_expander81" style="cursor: pointer;" display="none"><path id="kity_path_676" fill="white" stroke="gray" d="M1495.5000211074948,759.5000114813447A6,6,0,1,1,1483.5000211074948,759.5000114813447A6,6,0,1,1,1495.5000211074948,759.5000114813447"></path><path id="kity_path_677" fill="none" stroke="gray"></path></g><path id="node_outline82" fill="none" stroke="none" d="M1500.5000213459134,748.5000114813447h95a5,5,0,0,1,5,5v12a5,5,0,0,1,-5,5h-95a5,5,0,0,1,-5,-5v-12a5,5,0,0,1,5,-5z" stroke-width="3"></path><g id="node_text82" fill="black"><text id="kity_text_673" text-rendering="inherit" font-size="12" dy=".8em" y="751.7000114545226" x="1505.5000213459134">HelpController</text></g></g><g id="minder_node83"><g id="node_expander82" style="cursor: pointer;" display="none"><path id="kity_path_684" fill="white" stroke="gray" d="M1495.5000211074948,811.5000122562051A6,6,0,1,1,1483.5000211074948,811.5000122562051A6,6,0,1,1,1495.5000211074948,811.5000122562051"></path><path id="kity_path_685" fill="none" stroke="gray"></path></g><path id="node_outline83" fill="none" stroke="none" d="M1500.5000213459134,800.5000122562051h113a5,5,0,0,1,5,5v12a5,5,0,0,1,-5,5h-113a5,5,0,0,1,-5,-5v-12a5,5,0,0,1,5,-5z" stroke-width="3"></path><g id="node_text83" fill="black"><text id="kity_text_681" text-rendering="inherit" font-size="12" dy=".8em" y="803.700012229383" x="1505.5000213459134">MigrateController</text></g></g><g id="minder_node84"><g id="node_expander83" style="cursor: pointer;" display="none"><path id="kity_path_692" fill="white" stroke="gray" d="M1495.5000211074948,863.5000130310655A6,6,0,1,1,1483.5000211074948,863.5000130310655A6,6,0,1,1,1495.5000211074948,863.5000130310655"></path><path id="kity_path_693" fill="none" stroke="gray"></path></g><path id="node_outline84" fill="none" stroke="none" d="M1500.5000213459134,852.5000130310655h139a5,5,0,0,1,5,5v12a5,5,0,0,1,-5,5h-139a5,5,0,0,1,-5,-5v-12a5,5,0,0,1,5,-5z" stroke-width="3"></path><g id="node_text84" fill="black"><text id="kity_text_689" text-rendering="inherit" font-size="12" dy=".8em" y="855.7000130042434" x="1505.5000213459134">BaseMigrateController</text></g></g><g id="minder_node85"><g id="node_expander84" style="cursor: pointer;" display="none"><path id="kity_path_700" fill="white" stroke="gray" d="M1495.5000211074948,915.5000138059258A6,6,0,1,1,1483.5000211074948,915.5000138059258A6,6,0,1,1,1495.5000211074948,915.5000138059258"></path><path id="kity_path_701" fill="none" stroke="gray"></path></g><path id="node_outline85" fill="none" stroke="none" d="M1500.5000213459134,904.5000138059258h107a5,5,0,0,1,5,5v12a5,5,0,0,1,-5,5h-107a5,5,0,0,1,-5,-5v-12a5,5,0,0,1,5,-5z" stroke-width="3"></path><g id="node_text85" fill="black"><text id="kity_text_697" text-rendering="inherit" font-size="12" dy=".8em" y="907.7000137791038" x="1505.5000213459134">FixtureController</text></g></g><g id="minder_node86"><g id="node_expander85" style="cursor: pointer;" display="none"><path id="kity_path_708" fill="white" stroke="gray" d="M1495.5000211074948,967.5000145807862A6,6,0,1,1,1483.5000211074948,967.5000145807862A6,6,0,1,1,1495.5000211074948,967.5000145807862"></path><path id="kity_path_709" fill="none" stroke="gray"></path></g><path id="node_outline86" fill="none" stroke="none" d="M1500.5000213459134,956.5000145807862h119a5,5,0,0,1,5,5v12a5,5,0,0,1,-5,5h-119a5,5,0,0,1,-5,-5v-12a5,5,0,0,1,5,-5z" stroke-width="3"></path><g id="node_text86" fill="black"><text id="kity_text_705" text-rendering="inherit" font-size="12" dy=".8em" y="959.7000145539641" x="1505.5000213459134">MessageController</text></g></g><g id="minder_node87"><g id="node_expander86" style="cursor: pointer;" display="none"><path id="kity_path_716" fill="white" stroke="gray" d="M1495.5000211074948,1019.5000153556466A6,6,0,1,1,1483.5000211074948,1019.5000153556466A6,6,0,1,1,1495.5000211074948,1019.5000153556466"></path><path id="kity_path_717" fill="none" stroke="gray"></path></g><path id="node_outline87" fill="none" stroke="none" d="M1500.5000213459134,1008.5000153556466h99a5,5,0,0,1,5,5v12a5,5,0,0,1,-5,5h-99a5,5,0,0,1,-5,-5v-12a5,5,0,0,1,5,-5z" stroke-width="3"></path><g id="node_text87" fill="black"><text id="kity_text_713" text-rendering="inherit" font-size="12" dy=".8em" y="1011.7000153288245" x="1505.5000213459134">ServeController</text></g></g></g></g></svg>