<svg id="kity_svg_6" xmlns="http://www.w3.org/2000/svg" xmlns:xlink="http://www.w3.org/1999/xlink" version="1.1" width="1645" height="1122" style="background: rgb(251, 251, 251); visibility: visible;" viewBox="0 0 1645 1122"><defs id="kity_defs_7"><linearGradient id="kity_linearGradient_17" x1="0" y1="0" x2="0" y2="1"><stop id="kity_stop_18" offset="0" stop-color="rgb(255, 255, 255)"></stop><stop id="kity_stop_19" offset="1" stop-color="rgb(204, 204, 204)"></stop></linearGradient><marker id="kity_marker_2" orient="auto" refX="6" refY="0" viewBox="-7 -7 14 14" markerWidth="7" markerHeight="7" markerUnits="userSpaceOnUse"><path id="kity_path_3" fill="rgb(115, 161, 191)" stroke="none" d="M6,0A6,6,0,1,1,-6,0A6,6,0,1,1,6,0"></path></marker></defs><g id="kity_g_8"><g id="minder1" text-rendering="optimize-speed"><g id="minder_connect_group1"><path id="kity_path_356" fill="none" stroke="rgb(115, 161, 191)" stroke-width="1" d="M52.50000607222319,535.4999951943755A150,439,0,0,1,202.5000060722232,96.49999519437551"></path><path id="kity_path_372" fill="none" stroke="rgb(115, 161, 191)" stroke-width="1" d="M52.50000607222319,535.4999951943755A150,52,0,0,0,202.5000060722232,587.4999951943755"></path><path id="kity_path_400" fill="none" stroke="rgb(115, 161, 191)" stroke-width="1" d="M52.50000607222319,535.4999951943755A150,439,0,0,0,202.5000060722232,974.4999951943755"></path><path id="kity_path_641" fill="none" stroke="rgb(115, 161, 191)" stroke-width="1" d="M563.5000060722232,31.499995194375515C583.5000060722232,31.499995194375515,583.5000060722232,31.499995194375515,603.5000060722232,31.499995194375515"></path><path id="kity_path_642" fill="none" stroke="rgb(115, 161, 191)" stroke-width="1" d="M477.5000060722232,96.49999519437551C497.5000060722232,96.49999519437551,497.5000060722232,31.499995194375515,517.5000060722232,31.499995194375515"></path><path id="kity_path_643" fill="none" stroke="rgb(115, 161, 191)" stroke-width="1" d="M563.5000060722232,161.49999519437551C583.5000060722232,161.49999519437551,583.5000060722232,83.49999519437551,603.5000060722232,83.49999519437551"></path><path id="kity_path_644" fill="none" stroke="rgb(115, 161, 191)" stroke-width="1" d="M563.5000060722232,161.49999519437551C583.5000060722232,161.49999519437551,583.5000060722232,135.49999519437551,603.5000060722232,135.49999519437551"></path><path id="kity_path_645" fill="none" stroke="rgb(115, 161, 191)" stroke-width="1" d="M563.5000060722232,161.49999519437551C583.5000060722232,161.49999519437551,583.5000060722232,187.49999519437551,603.5000060722232,187.49999519437551"></path><path id="kity_path_646" fill="none" stroke="rgb(115, 161, 191)" stroke-width="1" d="M563.5000060722232,161.49999519437551C583.5000060722232,161.49999519437551,583.5000060722232,239.49999519437551,603.5000060722232,239.49999519437551"></path><path id="kity_path_647" fill="none" stroke="rgb(115, 161, 191)" stroke-width="1" d="M477.5000060722232,96.49999519437551C497.5000060722232,96.49999519437551,497.5000060722232,161.49999519437551,517.5000060722232,161.49999519437551"></path><path id="kity_path_648" fill="none" stroke="rgb(115, 161, 191)" stroke-width="1" d="M526.5000060722232,405.4999951943755C546.5000060722232,405.4999951943755,546.5000060722232,301.4999951943755,566.5000060722232,301.4999951943755"></path><path id="kity_path_649" fill="none" stroke="rgb(115, 161, 191)" stroke-width="1" d="M526.5000060722232,405.4999951943755C546.5000060722232,405.4999951943755,546.5000060722232,353.4999951943755,566.5000060722232,353.4999951943755"></path><path id="kity_path_650" fill="none" stroke="rgb(115, 161, 191)" stroke-width="1" d="M526.5000060722232,405.4999951943755C546.5000060722232,405.4999951943755,546.5000060722232,405.4999951943755,566.5000060722232,405.4999951943755"></path><path id="kity_path_651" fill="none" stroke="rgb(115, 161, 191)" stroke-width="1" d="M526.5000060722232,405.4999951943755C546.5000060722232,405.4999951943755,546.5000060722232,457.4999951943755,566.5000060722232,457.4999951943755"></path><path id="kity_path_652" fill="none" stroke="rgb(115, 161, 191)" stroke-width="1" d="M526.5000060722232,405.4999951943755C546.5000060722232,405.4999951943755,546.5000060722232,509.4999951943755,566.5000060722232,509.4999951943755"></path><path id="kity_path_653" fill="none" stroke="rgb(115, 161, 191)" stroke-width="1" d="M440.5000060722232,587.4999951943755C460.5000060722232,587.4999951943755,460.5000060722232,405.4999951943755,480.5000060722232,405.4999951943755"></path><path id="kity_path_654" fill="none" stroke="rgb(115, 161, 191)" stroke-width="1" d="M526.5000060722232,639.4999951943755C546.5000060722232,639.4999951943755,546.5000060722232,561.4999951943755,566.5000060722232,561.4999951943755"></path><path id="kity_path_655" fill="none" stroke="rgb(115, 161, 191)" stroke-width="1" d="M526.5000060722232,639.4999951943755C546.5000060722232,639.4999951943755,546.5000060722232,613.4999951943755,566.5000060722232,613.4999951943755"></path><path id="kity_path_656" fill="none" stroke="rgb(115, 161, 191)" stroke-width="1" d="M526.5000060722232,639.4999951943755C546.5000060722232,639.4999951943755,546.5000060722232,665.4999951943755,566.5000060722232,665.4999951943755"></path><path id="kity_path_657" fill="none" stroke="rgb(115, 161, 191)" stroke-width="1" d="M526.5000060722232,639.4999951943755C546.5000060722232,639.4999951943755,546.5000060722232,717.4999951943755,566.5000060722232,717.4999951943755"></path><path id="kity_path_658" fill="none" stroke="rgb(115, 161, 191)" stroke-width="1" d="M440.5000060722232,587.4999951943755C460.5000060722232,587.4999951943755,460.5000060722232,639.4999951943755,480.5000060722232,639.4999951943755"></path><path id="kity_path_659" fill="none" stroke="rgb(115, 161, 191)" stroke-width="1" d="M538.5000060722232,769.4999951943755C558.5000060722232,769.4999951943755,558.5000060722232,769.4999951943755,578.5000060722232,769.4999951943755"></path><path id="kity_path_660" fill="none" stroke="rgb(115, 161, 191)" stroke-width="1" d="M440.5000060722232,587.4999951943755C460.5000060722232,587.4999951943755,460.5000060722232,769.4999951943755,480.5000060722232,769.4999951943755"></path><path id="kity_path_661" fill="none" stroke="rgb(115, 161, 191)" stroke-width="1" d="M778.5000060722232,857.4999951943755C798.5000060722232,857.4999951943755,798.5000060722232,831.4999951943755,818.5000060722232,831.4999951943755"></path><path id="kity_path_662" fill="none" stroke="rgb(115, 161, 191)" stroke-width="1" d="M778.5000060722232,857.4999951943755C798.5000060722232,857.4999951943755,798.5000060722232,883.4999951943755,818.5000060722232,883.4999951943755"></path><path id="kity_path_663" fill="none" stroke="rgb(115, 161, 191)" stroke-width="1" d="M692.5000060722232,974.4999951943755C712.5000060722232,974.4999951943755,712.5000060722232,857.4999951943755,732.5000060722232,857.4999951943755"></path><path id="kity_path_664" fill="none" stroke="rgb(115, 161, 191)" stroke-width="1" d="M778.5000060722232,987.4999951943755C798.5000060722232,987.4999951943755,798.5000060722232,935.4999951943755,818.5000060722232,935.4999951943755"></path><path id="kity_path_665" fill="none" stroke="rgb(115, 161, 191)" stroke-width="1" d="M778.5000060722232,987.4999951943755C798.5000060722232,987.4999951943755,798.5000060722232,987.4999951943755,818.5000060722232,987.4999951943755"></path><path id="kity_path_666" fill="none" stroke="rgb(115, 161, 191)" stroke-width="1" d="M1315.5000060722232,1039.4999951943755C1335.5000060722232,1039.4999951943755,1335.5000060722232,1039.4999951943755,1355.5000060722232,1039.4999951943755"></path><path id="kity_path_667" fill="none" stroke="rgb(115, 161, 191)" stroke-width="1" d="M1103.5000060722232,1039.4999951943755C1123.5000060722232,1039.4999951943755,1123.5000060722232,1039.4999951943755,1143.5000060722232,1039.4999951943755"></path><path id="kity_path_668" fill="none" stroke="rgb(115, 161, 191)" stroke-width="1" d="M917.5000060722232,1039.4999951943755C937.5000060722232,1039.4999951943755,937.5000060722232,1039.4999951943755,957.5000060722232,1039.4999951943755"></path><path id="kity_path_669" fill="none" stroke="rgb(115, 161, 191)" stroke-width="1" d="M778.5000060722232,987.4999951943755C798.5000060722232,987.4999951943755,798.5000060722232,1039.4999951943755,818.5000060722232,1039.4999951943755"></path><path id="kity_path_670" fill="none" stroke="rgb(115, 161, 191)" stroke-width="1" d="M692.5000060722232,974.4999951943755C712.5000060722232,974.4999951943755,712.5000060722232,987.4999951943755,732.5000060722232,987.4999951943755"></path><path id="kity_path_671" fill="none" stroke="rgb(115, 161, 191)" stroke-width="1" d="M790.5000060722232,1091.4999951943755C810.5000060722232,1091.4999951943755,810.5000060722232,1091.4999951943755,830.5000060722232,1091.4999951943755"></path><path id="kity_path_672" fill="none" stroke="rgb(115, 161, 191)" stroke-width="1" d="M692.5000060722232,974.4999951943755C712.5000060722232,974.4999951943755,712.5000060722232,1091.4999951943755,732.5000060722232,1091.4999951943755"></path></g><g id="minder_node1"><path id="node_outline1" fill="rgb(115, 161, 191)" stroke="rgb(115, 161, 191)" d="M25.500006072223186,515.4999951943755h54a5,5,0,0,1,5,5v30a5,5,0,0,1,-5,5h-54a5,5,0,0,1,-5,-5v-30a5,5,0,0,1,5,-5z" stroke-width="3"></path><g id="node_text1" fill="white"><text id="kity_text_22" text-rendering="inherit" font-size="16" dy=".8em" y="525.0999951586127" x="44.50000607222319">Di</text></g></g><g id="kity_g_14" display="none"><path id="kity_path_15" fill="none" stroke="none" d="M44.50000607222319,535.4999951943755h0v0h0z"></path><path id="kity_path_16" fill="none" stroke="none"></path></g><g id="minder_node39" opacity="1"><g id="node_expander44" style="cursor: pointer;"><path id="kity_path_555" fill="white" stroke="gray" d="M203.50000835210085,96.49998865276575A6,6,0,1,1,191.50000835210085,96.49998865276575A6,6,0,1,1,203.50000835210085,96.49998865276575"></path><path id="kity_path_556" fill="none" stroke="gray" d="M193.00000835210085,96.49998865276575L202.00000835210085,96.49998865276575"></path></g><path id="node_outline45" fill="rgb(238, 243, 246)" stroke="rgb(115, 161, 191)" d="M207.5000087544322,83.49998865276575h267a3,3,0,0,1,3,3v20a3,3,0,0,1,-3,3h-267a3,3,0,0,1,-3,-3v-20a3,3,0,0,1,3,-3z" stroke-width="1"></path><g id="node_text45" fill="black"><text id="kity_text_440" text-rendering="inherit" font-size="14" dy=".8em" y="87.39998862147331" x="224.5000087544322">Instance[容器对于某个类实例的引用]</text></g></g><g id="minder_node47" opacity="1"><g id="node_expander58" style="cursor: pointer;"><path id="kity_path_597" fill="white" stroke="gray" d="M203.50000835210085,587.4999959692359A6,6,0,1,1,191.50000835210085,587.4999959692359A6,6,0,1,1,203.50000835210085,587.4999959692359"></path><path id="kity_path_598" fill="none" stroke="gray" d="M193.00000835210085,587.4999959692359L202.00000835210085,587.4999959692359"></path></g><path id="node_outline59" fill="rgb(238, 243, 246)" stroke="rgb(115, 161, 191)" d="M207.5000087544322,574.4999959692359h230a3,3,0,0,1,3,3v20a3,3,0,0,1,-3,3h-230a3,3,0,0,1,-3,-3v-20a3,3,0,0,1,3,-3z" stroke-width="1"></path><g id="node_text59" fill="black"><text id="kity_text_468" text-rendering="inherit" font-size="14" dy=".8em" y="578.3999959379435" x="224.5000087544322">Container[继承自Component]</text></g></g><g id="minder_node61" opacity="1"><g id="node_expander71" style="cursor: pointer;"><path id="kity_path_636" fill="white" stroke="gray" d="M203.50000835210085,974.5000017359853A6,6,0,1,1,191.50000835210085,974.5000017359853A6,6,0,1,1,203.50000835210085,974.5000017359853"></path><path id="kity_path_637" fill="none" stroke="gray" d="M193.00000835210085,974.5000017359853L202.00000835210085,974.5000017359853"></path></g><path id="node_outline72" fill="rgb(238, 243, 246)" stroke="rgb(115, 161, 191)" d="M207.5000087544322,961.5000017359853h482a3,3,0,0,1,3,3v20a3,3,0,0,1,-3,3h-482a3,3,0,0,1,-3,-3v-20a3,3,0,0,1,3,-3z" stroke-width="1"></path><g id="node_text72" fill="black"><text id="kity_text_494" text-rendering="inherit" font-size="14" dy=".8em" y="965.4000017046928" x="224.5000087544322">ServiceLocator[继承自Component，有服务和组件加持的Component]</text></g></g><g id="kity_g_12" display="none"><path id="kity_path_13" fill="none" stroke="rgb(66, 94, 112)" d="M25.500006072223186,515.4999951943755h54a5,5,0,0,1,5,5v30a5,5,0,0,1,-5,5h-54a5,5,0,0,1,-5,-5v-30a5,5,0,0,1,5,-5z" stroke-width="5"></path></g><g id="minder_node41"><g id="node_expander37" style="cursor: pointer;" display="none"><path id="kity_path_534" fill="white" stroke="gray" d="M603.5000143125653,31.499987684190273A6,6,0,1,1,591.5000143125653,31.499987684190273A6,6,0,1,1,603.5000143125653,31.499987684190273"></path><path id="kity_path_535" fill="none" stroke="gray"></path></g><path id="node_outline38" fill="none" stroke="none" d="M608.5000145509839,20.499987684190273h49a5,5,0,0,1,5,5v12a5,5,0,0,1,-5,5h-49a5,5,0,0,1,-5,-5v-12a5,5,0,0,1,5,-5z"></path><g id="node_text38" fill="black"><text id="kity_text_426" text-rendering="inherit" font-size="12" dy=".8em" y="23.699987657368183" x="613.5000145509839">id&#xa0;名称</text></g></g><g id="minder_node40"><g id="node_expander38" style="cursor: pointer;"><path id="kity_path_537" fill="white" stroke="gray" d="M517.5000130310655,31.499987684190273A6,6,0,1,1,505.50001303106546,31.499987684190273A6,6,0,1,1,517.5000130310655,31.499987684190273"></path><path id="kity_path_538" fill="none" stroke="gray" d="M507.00001303106546,31.499987684190273L516.0000130310655,31.499987684190273"></path></g><path id="node_outline39" fill="none" stroke="none" d="M522.500013269484,20.499987684190273h36a5,5,0,0,1,5,5v12a5,5,0,0,1,-5,5h-36a5,5,0,0,1,-5,-5v-12a5,5,0,0,1,5,-5z"></path><g id="node_text39" fill="black"><text id="kity_text_428" text-rendering="inherit" font-size="12" dy=".8em" y="23.699987657368183" x="527.500013269484">属性</text></g></g><g id="minder_node43"><g id="node_expander39" style="cursor: pointer;" display="none"><path id="kity_path_540" fill="white" stroke="gray" d="M603.5000143125653,83.49998845905066A6,6,0,1,1,591.5000143125653,83.49998845905066A6,6,0,1,1,603.5000143125653,83.49998845905066"></path><path id="kity_path_541" fill="none" stroke="gray"></path></g><path id="node_outline40" fill="none" stroke="none" d="M608.5000145509839,72.49998845905066h182a5,5,0,0,1,5,5v12a5,5,0,0,1,-5,5h-182a5,5,0,0,1,-5,-5v-12a5,5,0,0,1,5,-5z"></path><g id="node_text40" fill="black"><text id="kity_text_430" text-rendering="inherit" font-size="12" dy=".8em" y="75.69998843222857" x="613.5000145509839">__construct()&#xa0;构造方法，赋值id</text></g></g><g id="minder_node44"><g id="node_expander40" style="cursor: pointer;" display="none"><path id="kity_path_543" fill="white" stroke="gray" d="M603.5000143125653,135.49998923391104A6,6,0,1,1,591.5000143125653,135.49998923391104A6,6,0,1,1,603.5000143125653,135.49998923391104"></path><path id="kity_path_544" fill="none" stroke="gray"></path></g><path id="node_outline41" fill="none" stroke="none" d="M608.5000145509839,124.49998923391104h141a5,5,0,0,1,5,5v12a5,5,0,0,1,-5,5h-141a5,5,0,0,1,-5,-5v-12a5,5,0,0,1,5,-5z"></path><g id="node_text41" fill="black"><text id="kity_text_432" text-rendering="inherit" font-size="12" dy=".8em" y="127.69998920708895" x="613.5000145509839">of()&#xa0;静态方法，创建实例</text></g></g><g id="minder_node45"><g id="node_expander41" style="cursor: pointer;" display="none"><path id="kity_path_546" fill="white" stroke="gray" d="M603.5000143125653,187.49999000877142A6,6,0,1,1,591.5000143125653,187.49999000877142A6,6,0,1,1,603.5000143125653,187.49999000877142"></path><path id="kity_path_547" fill="none" stroke="gray"></path></g><path id="node_outline42" fill="none" stroke="none" d="M608.5000145509839,176.49999000877142h325a5,5,0,0,1,5,5v12a5,5,0,0,1,-5,5h-325a5,5,0,0,1,-5,-5v-12a5,5,0,0,1,5,-5z"></path><g id="node_text42" fill="black"><text id="kity_text_434" text-rendering="inherit" font-size="12" dy=".8em" y="179.69998998194933" x="613.5000145509839">ensure()&#xa0;将引用解析成实际的对象，并确保这个对象的类型</text></g></g><g id="minder_node46"><g id="node_expander42" style="cursor: pointer;" display="none"><path id="kity_path_549" fill="white" stroke="gray" d="M603.5000143125653,239.4999907836318A6,6,0,1,1,591.5000143125653,239.4999907836318A6,6,0,1,1,603.5000143125653,239.4999907836318"></path><path id="kity_path_550" fill="none" stroke="gray"></path></g><path id="node_outline43" fill="none" stroke="none" d="M608.5000145509839,228.4999907836318h321a5,5,0,0,1,5,5v12a5,5,0,0,1,-5,5h-321a5,5,0,0,1,-5,-5v-12a5,5,0,0,1,5,-5z"></path><g id="node_text43" fill="black"><text id="kity_text_436" text-rendering="inherit" font-size="12" dy=".8em" y="231.6999907568097" x="613.5000145509839">get()&#xa0;获取这个实例引用的实际对象，调用Container::get()</text></g></g><g id="minder_node42"><g id="node_expander43" style="cursor: pointer;"><path id="kity_path_552" fill="white" stroke="gray" d="M517.5000130310655,161.49998962134123A6,6,0,1,1,505.50001303106546,161.49998962134123A6,6,0,1,1,517.5000130310655,161.49998962134123"></path><path id="kity_path_553" fill="none" stroke="gray" d="M507.00001303106546,161.49998962134123L516.0000130310655,161.49998962134123"></path></g><path id="node_outline44" fill="none" stroke="none" d="M522.500013269484,150.49998962134123h36a5,5,0,0,1,5,5v12a5,5,0,0,1,-5,5h-36a5,5,0,0,1,-5,-5v-12a5,5,0,0,1,5,-5z" stroke-width="3"></path><g id="node_text44" fill="black"><text id="kity_text_438" text-rendering="inherit" font-size="12" dy=".8em" y="153.69998959451914" x="527.500013269484">方法</text></g></g><g id="minder_node49"><g id="node_expander45" style="cursor: pointer;" display="none"><path id="kity_path_558" fill="white" stroke="gray" d="M566.5000137612224,301.4999917075038A6,6,0,1,1,554.5000137612224,301.4999917075038A6,6,0,1,1,566.5000137612224,301.4999917075038"></path><path id="kity_path_559" fill="none" stroke="gray"></path></g><path id="node_outline46" fill="none" stroke="none" d="M571.5000139996409,290.4999917075038h103a5,5,0,0,1,5,5v12a5,5,0,0,1,-5,5h-103a5,5,0,0,1,-5,-5v-12a5,5,0,0,1,5,-5z"></path><g id="node_text46" fill="black"><text id="kity_text_442" text-rendering="inherit" font-size="12" dy=".8em" y="293.6999916806817" x="576.5000139996409">_singletons&#xa0;单例</text></g></g><g id="minder_node50"><g id="node_expander46" style="cursor: pointer;" display="none"><path id="kity_path_561" fill="white" stroke="gray" d="M566.5000137612224,353.4999924823642A6,6,0,1,1,554.5000137612224,353.4999924823642A6,6,0,1,1,566.5000137612224,353.4999924823642"></path><path id="kity_path_562" fill="none" stroke="gray"></path></g><path id="node_outline47" fill="none" stroke="none" d="M571.5000139996409,342.4999924823642h141a5,5,0,0,1,5,5v12a5,5,0,0,1,-5,5h-141a5,5,0,0,1,-5,-5v-12a5,5,0,0,1,5,-5z"></path><g id="node_text47" fill="black"><text id="kity_text_444" text-rendering="inherit" font-size="12" dy=".8em" y="345.6999924555421" x="576.5000139996409">_definitions&#xa0;依赖的定义</text></g></g><g id="minder_node51"><g id="node_expander47" style="cursor: pointer;" display="none"><path id="kity_path_564" fill="white" stroke="gray" d="M566.5000137612224,405.49999325722456A6,6,0,1,1,554.5000137612224,405.49999325722456A6,6,0,1,1,566.5000137612224,405.49999325722456"></path><path id="kity_path_565" fill="none" stroke="gray"></path></g><path id="node_outline48" fill="none" stroke="none" d="M571.5000139996409,394.49999325722456h147a5,5,0,0,1,5,5v12a5,5,0,0,1,-5,5h-147a5,5,0,0,1,-5,-5v-12a5,5,0,0,1,5,-5z"></path><g id="node_text48" fill="black"><text id="kity_text_446" text-rendering="inherit" font-size="12" dy=".8em" y="397.69999323040247" x="576.5000139996409">_params&#xa0;构造函数的参数</text></g></g><g id="minder_node52"><g id="node_expander48" style="cursor: pointer;" display="none"><path id="kity_path_567" fill="white" stroke="gray" d="M566.5000137612224,457.49999403208494A6,6,0,1,1,554.5000137612224,457.49999403208494A6,6,0,1,1,566.5000137612224,457.49999403208494"></path><path id="kity_path_568" fill="none" stroke="gray"></path></g><path id="node_outline49" fill="none" stroke="none" d="M571.5000139996409,446.49999403208494h215a5,5,0,0,1,5,5v12a5,5,0,0,1,-5,5h-215a5,5,0,0,1,-5,-5v-12a5,5,0,0,1,5,-5z"></path><g id="node_text49" fill="black"><text id="kity_text_448" text-rendering="inherit" font-size="12" dy=".8em" y="449.69999400526285" x="576.5000139996409">_reflections&#xa0;缓存ReflectionClass对象</text></g></g><g id="minder_node53"><g id="node_expander49" style="cursor: pointer;" display="none"><path id="kity_path_570" fill="white" stroke="gray" d="M566.5000137612224,509.4999948069453A6,6,0,1,1,554.5000137612224,509.4999948069453A6,6,0,1,1,566.5000137612224,509.4999948069453"></path><path id="kity_path_571" fill="none" stroke="gray"></path></g><path id="node_outline50" fill="none" stroke="none" d="M571.5000139996409,498.4999948069453h148a5,5,0,0,1,5,5v12a5,5,0,0,1,-5,5h-148a5,5,0,0,1,-5,-5v-12a5,5,0,0,1,5,-5z"></path><g id="node_text50" fill="black"><text id="kity_text_450" text-rendering="inherit" font-size="12" dy=".8em" y="501.69999478012323" x="576.5000139996409">_dependencies&#xa0;缓存依赖</text></g></g><g id="minder_node48"><g id="node_expander50" style="cursor: pointer;"><path id="kity_path_573" fill="white" stroke="gray" d="M480.5000124797225,405.49999325722456A6,6,0,1,1,468.5000124797225,405.49999325722456A6,6,0,1,1,480.5000124797225,405.49999325722456"></path><path id="kity_path_574" fill="none" stroke="gray" d="M470.0000124797225,405.49999325722456L479.0000124797225,405.49999325722456"></path></g><path id="node_outline51" fill="none" stroke="none" d="M485.5000127181411,394.49999325722456h36a5,5,0,0,1,5,5v12a5,5,0,0,1,-5,5h-36a5,5,0,0,1,-5,-5v-12a5,5,0,0,1,5,-5z"></path><g id="node_text51" fill="black"><text id="kity_text_452" text-rendering="inherit" font-size="12" dy=".8em" y="397.69999323040247" x="490.5000127181411">属性</text></g></g><g id="minder_node55"><g id="node_expander51" style="cursor: pointer;" display="none"><path id="kity_path_576" fill="white" stroke="gray" d="M566.5000137612224,561.4999955818057A6,6,0,1,1,554.5000137612224,561.4999955818057A6,6,0,1,1,566.5000137612224,561.4999955818057"></path><path id="kity_path_577" fill="none" stroke="gray"></path></g><path id="node_outline52" fill="none" stroke="none" d="M571.5000139996409,550.4999955818057h242a5,5,0,0,1,5,5v12a5,5,0,0,1,-5,5h-242a5,5,0,0,1,-5,-5v-12a5,5,0,0,1,5,-5z"></path><g id="node_text52" fill="black"><text id="kity_text_454" text-rendering="inherit" font-size="12" dy=".8em" y="553.6999955549836" x="576.5000139996409">get/set/has|singletons&#xa0;增删改查依赖/单例</text></g></g><g id="minder_node56"><g id="node_expander52" style="cursor: pointer;" display="none"><path id="kity_path_579" fill="white" stroke="gray" d="M566.5000137612224,613.4999963566661A6,6,0,1,1,554.5000137612224,613.4999963566661A6,6,0,1,1,566.5000137612224,613.4999963566661"></path><path id="kity_path_580" fill="none" stroke="gray"></path></g><path id="node_outline53" fill="none" stroke="none" d="M571.5000139996409,602.4999963566661h123a5,5,0,0,1,5,5v12a5,5,0,0,1,-5,5h-123a5,5,0,0,1,-5,-5v-12a5,5,0,0,1,5,-5z"></path><g id="node_text53" fill="black"><text id="kity_text_456" text-rendering="inherit" font-size="12" dy=".8em" y="605.699996329844" x="576.5000139996409">build()&#xa0;创建对象实例</text></g></g><g id="minder_node57"><g id="node_expander53" style="cursor: pointer;" display="none"><path id="kity_path_582" fill="white" stroke="gray" d="M566.5000137612224,665.4999971315265A6,6,0,1,1,554.5000137612224,665.4999971315265A6,6,0,1,1,566.5000137612224,665.4999971315265"></path><path id="kity_path_583" fill="none" stroke="gray"></path></g><path id="node_outline54" fill="none" stroke="none" d="M571.5000139996409,654.4999971315265h308a5,5,0,0,1,5,5v12a5,5,0,0,1,-5,5h-308a5,5,0,0,1,-5,-5v-12a5,5,0,0,1,5,-5z"></path><g id="node_text54" fill="black"><text id="kity_text_458" text-rendering="inherit" font-size="12" dy=".8em" y="657.6999971047044" x="576.5000139996409">getDependencies()&#xa0;通过反射机制/构造函数来获取依赖</text></g></g><g id="minder_node58"><g id="node_expander54" style="cursor: pointer;" display="none"><path id="kity_path_585" fill="white" stroke="gray" d="M566.5000137612224,717.4999979063869A6,6,0,1,1,554.5000137612224,717.4999979063869A6,6,0,1,1,566.5000137612224,717.4999979063869"></path><path id="kity_path_586" fill="none" stroke="gray"></path></g><path id="node_outline55" fill="none" stroke="none" d="M571.5000139996409,706.4999979063869h217a5,5,0,0,1,5,5v12a5,5,0,0,1,-5,5h-217a5,5,0,0,1,-5,-5v-12a5,5,0,0,1,5,-5z"></path><g id="node_text55" fill="black"><text id="kity_text_460" text-rendering="inherit" font-size="12" dy=".8em" y="709.6999978795648" x="576.5000139996409">resolveDependencies()&#xa0;把依赖实例化</text></g></g><g id="minder_node54"><g id="node_expander55" style="cursor: pointer;"><path id="kity_path_588" fill="white" stroke="gray" d="M480.5000124797225,639.4999967440963A6,6,0,1,1,468.5000124797225,639.4999967440963A6,6,0,1,1,480.5000124797225,639.4999967440963"></path><path id="kity_path_589" fill="none" stroke="gray" d="M470.0000124797225,639.4999967440963L479.0000124797225,639.4999967440963"></path></g><path id="node_outline56" fill="none" stroke="none" d="M485.5000127181411,628.4999967440963h36a5,5,0,0,1,5,5v12a5,5,0,0,1,-5,5h-36a5,5,0,0,1,-5,-5v-12a5,5,0,0,1,5,-5z"></path><g id="node_text56" fill="black"><text id="kity_text_462" text-rendering="inherit" font-size="12" dy=".8em" y="631.6999967172742" x="490.5000127181411">方法</text></g></g><g id="minder_node60"><g id="node_expander56" style="cursor: pointer;" display="none"><path id="kity_path_591" fill="white" stroke="gray" d="M578.5000139400363,769.4999986812472A6,6,0,1,1,566.5000139400363,769.4999986812472A6,6,0,1,1,578.5000139400363,769.4999986812472"></path><path id="kity_path_592" fill="none" stroke="gray"></path></g><path id="node_outline57" fill="none" stroke="none" d="M583.5000141784549,758.4999986812472h92a5,5,0,0,1,5,5v12a5,5,0,0,1,-5,5h-92a5,5,0,0,1,-5,-5v-12a5,5,0,0,1,5,-5z"></path><g id="node_text57" fill="black"><text id="kity_text_464" text-rendering="inherit" font-size="12" dy=".8em" y="761.6999986544251" x="588.5000141784549">Yii::$container</text></g></g><g id="minder_node59"><g id="node_expander57" style="cursor: pointer;"><path id="kity_path_594" fill="white" stroke="gray" d="M480.5000124797225,769.4999986812472A6,6,0,1,1,468.5000124797225,769.4999986812472A6,6,0,1,1,480.5000124797225,769.4999986812472"></path><path id="kity_path_595" fill="none" stroke="gray" d="M470.0000124797225,769.4999986812472L479.0000124797225,769.4999986812472"></path></g><path id="node_outline58" fill="none" stroke="none" d="M485.5000127181411,758.4999986812472h48a5,5,0,0,1,5,5v12a5,5,0,0,1,-5,5h-48a5,5,0,0,1,-5,-5v-12a5,5,0,0,1,5,-5z"></path><g id="node_text58" fill="black"><text id="kity_text_466" text-rendering="inherit" font-size="12" dy=".8em" y="761.6999986544251" x="490.5000127181411">引入Yii</text></g></g><g id="minder_node63"><g id="node_expander59" style="cursor: pointer;" display="none"><path id="kity_path_600" fill="white" stroke="gray" d="M818.500017516315,831.4999996051192A6,6,0,1,1,806.500017516315,831.4999996051192A6,6,0,1,1,818.500017516315,831.4999996051192"></path><path id="kity_path_601" fill="none" stroke="gray"></path></g><path id="node_outline60" fill="none" stroke="none" d="M823.5000177547336,820.4999996051192h205a5,5,0,0,1,5,5v12a5,5,0,0,1,-5,5h-205a5,5,0,0,1,-5,-5v-12a5,5,0,0,1,5,-5z"></path><g id="node_text60" fill="black"><text id="kity_text_470" text-rendering="inherit" font-size="12" dy=".8em" y="823.6999995782971" x="828.5000177547336">_components&#xa0;缓存服务/组件的实例</text></g></g><g id="minder_node64"><g id="node_expander60" style="cursor: pointer;" display="none"><path id="kity_path_603" fill="white" stroke="gray" d="M818.500017516315,883.5000003799796A6,6,0,1,1,806.500017516315,883.5000003799796A6,6,0,1,1,818.500017516315,883.5000003799796"></path><path id="kity_path_604" fill="none" stroke="gray"></path></g><path id="node_outline61" fill="none" stroke="none" d="M823.5000177547336,872.5000003799796h194a5,5,0,0,1,5,5v12a5,5,0,0,1,-5,5h-194a5,5,0,0,1,-5,-5v-12a5,5,0,0,1,5,-5z"></path><g id="node_text61" fill="black"><text id="kity_text_472" text-rendering="inherit" font-size="12" dy=".8em" y="875.7000003531575" x="828.5000177547336">_definitions 缓存服务/组件的定义</text></g></g><g id="minder_node62"><g id="node_expander61" style="cursor: pointer;"><path id="kity_path_606" fill="white" stroke="gray" d="M732.5000162348151,857.4999999925494A6,6,0,1,1,720.5000162348151,857.4999999925494A6,6,0,1,1,732.5000162348151,857.4999999925494"></path><path id="kity_path_607" fill="none" stroke="gray" d="M722.0000162348151,857.4999999925494L731.0000162348151,857.4999999925494"></path></g><path id="node_outline62" fill="none" stroke="none" d="M737.5000164732337,846.4999999925494h36a5,5,0,0,1,5,5v12a5,5,0,0,1,-5,5h-36a5,5,0,0,1,-5,-5v-12a5,5,0,0,1,5,-5z"></path><g id="node_text62" fill="black"><text id="kity_text_474" text-rendering="inherit" font-size="12" dy=".8em" y="849.6999999657273" x="742.5000164732337">属性</text></g></g><g id="minder_node66"><g id="node_expander62" style="cursor: pointer;" display="none"><path id="kity_path_609" fill="white" stroke="gray" d="M818.500017516315,935.50000115484A6,6,0,1,1,806.500017516315,935.50000115484A6,6,0,1,1,818.500017516315,935.50000115484"></path><path id="kity_path_610" fill="none" stroke="gray"></path></g><path id="node_outline63" fill="none" stroke="none" d="M823.5000177547336,924.50000115484h344a5,5,0,0,1,5,5v12a5,5,0,0,1,-5,5h-344a5,5,0,0,1,-5,-5v-12a5,5,0,0,1,5,-5z"></path><g id="node_text63" fill="black"><text id="kity_text_476" text-rendering="inherit" font-size="12" dy=".8em" y="927.7000011280179" x="828.5000177547336">重载Component中属性相关的方法，加入对服务和组件的处理</text></g></g><g id="minder_node67"><g id="node_expander63" style="cursor: pointer;" display="none"><path id="kity_path_612" fill="white" stroke="gray" d="M818.500017516315,987.5000019297004A6,6,0,1,1,806.500017516315,987.5000019297004A6,6,0,1,1,818.500017516315,987.5000019297004"></path><path id="kity_path_613" fill="none" stroke="gray"></path></g><path id="node_outline64" fill="none" stroke="none" d="M823.5000177547336,976.5000019297004h116a5,5,0,0,1,5,5v12a5,5,0,0,1,-5,5h-116a5,5,0,0,1,-5,-5v-12a5,5,0,0,1,5,-5z"></path><g id="node_text64" fill="black"><text id="kity_text_478" text-rendering="inherit" font-size="12" dy=".8em" y="979.7000019028783" x="828.5000177547336">set()&#xa0;注册组件/服务</text></g></g><g id="minder_node71"><g id="node_expander64" style="cursor: pointer;" display="none"><path id="kity_path_615" fill="white" stroke="gray" d="M1355.5000255182385,1039.5000027045608A6,6,0,1,1,1343.5000255182385,1039.5000027045608A6,6,0,1,1,1355.5000255182385,1039.5000027045608"></path><path id="kity_path_616" fill="none" stroke="gray"></path></g><path id="node_outline65" fill="none" stroke="none" d="M1360.5000257566571,1028.5000027045608h260a5,5,0,0,1,5,5v12a5,5,0,0,1,-5,5h-260a5,5,0,0,1,-5,-5v-12a5,5,0,0,1,5,-5z"></path><g id="node_text65" fill="black"><text id="kity_text_480" text-rendering="inherit" font-size="12" dy=".8em" y="1031.7000026777387" x="1365.5000257566571">调用yii\di\Container::get()[和di容器建立关联]</text></g></g><g id="minder_node70"><g id="node_expander65" style="cursor: pointer;"><path id="kity_path_618" fill="white" stroke="gray" d="M1143.5000223591924,1039.5000027045608A6,6,0,1,1,1131.5000223591924,1039.5000027045608A6,6,0,1,1,1143.5000223591924,1039.5000027045608"></path><path id="kity_path_619" fill="none" stroke="gray" d="M1133.0000223591924,1039.5000027045608L1142.0000223591924,1039.5000027045608"></path></g><path id="node_outline66" fill="none" stroke="none" d="M1148.500022597611,1028.5000027045608h162a5,5,0,0,1,5,5v12a5,5,0,0,1,-5,5h-162a5,5,0,0,1,-5,-5v-12a5,5,0,0,1,5,-5z"></path><g id="node_text66" fill="black"><text id="kity_text_482" text-rendering="inherit" font-size="12" dy=".8em" y="1031.7000026777387" x="1153.500022597611">调用BaseYii::createObject()</text></g></g><g id="minder_node69"><g id="node_expander66" style="cursor: pointer;"><path id="kity_path_621" fill="white" stroke="gray" d="M957.5000195875764,1039.5000027045608A6,6,0,1,1,945.5000195875764,1039.5000027045608A6,6,0,1,1,957.5000195875764,1039.5000027045608"></path><path id="kity_path_622" fill="none" stroke="gray" d="M947.0000195875764,1039.5000027045608L956.0000195875764,1039.5000027045608"></path></g><path id="node_outline67" fill="none" stroke="none" d="M962.500019825995,1028.5000027045608h136a5,5,0,0,1,5,5v12a5,5,0,0,1,-5,5h-136a5,5,0,0,1,-5,-5v-12a5,5,0,0,1,5,-5z"></path><g id="node_text67" fill="black"><text id="kity_text_484" text-rendering="inherit" font-size="12" dy=".8em" y="1031.7000026777387" x="967.500019825995">调用Yii::createObject()</text></g></g><g id="minder_node68"><g id="node_expander67" style="cursor: pointer;"><path id="kity_path_624" fill="white" stroke="gray" d="M818.500017516315,1039.5000027045608A6,6,0,1,1,806.500017516315,1039.5000027045608A6,6,0,1,1,818.500017516315,1039.5000027045608"></path><path id="kity_path_625" fill="none" stroke="gray" d="M808.000017516315,1039.5000027045608L817.000017516315,1039.5000027045608"></path></g><path id="node_outline68" fill="none" stroke="none" d="M823.5000177547336,1028.5000027045608h89a5,5,0,0,1,5,5v12a5,5,0,0,1,-5,5h-89a5,5,0,0,1,-5,-5v-12a5,5,0,0,1,5,-5z"></path><g id="node_text68" fill="black"><text id="kity_text_486" text-rendering="inherit" font-size="12" dy=".8em" y="1031.7000026777387" x="828.5000177547336">get()&#xa0;获取实例</text></g></g><g id="minder_node65"><g id="node_expander68" style="cursor: pointer;"><path id="kity_path_627" fill="white" stroke="gray" d="M732.5000162348151,987.5000019297004A6,6,0,1,1,720.5000162348151,987.5000019297004A6,6,0,1,1,732.5000162348151,987.5000019297004"></path><path id="kity_path_628" fill="none" stroke="gray" d="M722.0000162348151,987.5000019297004L731.0000162348151,987.5000019297004"></path></g><path id="node_outline69" fill="none" stroke="none" d="M737.5000164732337,976.5000019297004h36a5,5,0,0,1,5,5v12a5,5,0,0,1,-5,5h-36a5,5,0,0,1,-5,-5v-12a5,5,0,0,1,5,-5z"></path><g id="node_text69" fill="black"><text id="kity_text_488" text-rendering="inherit" font-size="12" dy=".8em" y="979.7000019028783" x="742.5000164732337">方法</text></g></g><g id="minder_node73"><g id="node_expander69" style="cursor: pointer;" display="none"><path id="kity_path_630" fill="white" stroke="gray" d="M830.5000176951289,1091.5000034794211A6,6,0,1,1,818.5000176951289,1091.5000034794211A6,6,0,1,1,830.5000176951289,1091.5000034794211"></path><path id="kity_path_631" fill="none" stroke="gray"></path></g><path id="node_outline70" fill="none" stroke="none" d="M835.5000179335475,1080.5000034794211h60a5,5,0,0,1,5,5v12a5,5,0,0,1,-5,5h-60a5,5,0,0,1,-5,-5v-12a5,5,0,0,1,5,-5z"></path><g id="node_text70" fill="black"><text id="kity_text_490" text-rendering="inherit" font-size="12" dy=".8em" y="1083.700003452599" x="840.5000179335475">Yii::$app</text></g></g><g id="minder_node72"><g id="node_expander70" style="cursor: pointer;"><path id="kity_path_633" fill="white" stroke="gray" d="M732.5000162348151,1091.5000034794211A6,6,0,1,1,720.5000162348151,1091.5000034794211A6,6,0,1,1,732.5000162348151,1091.5000034794211"></path><path id="kity_path_634" fill="none" stroke="gray" d="M722.0000162348151,1091.5000034794211L731.0000162348151,1091.5000034794211"></path></g><path id="node_outline71" fill="none" stroke="none" d="M737.5000164732337,1080.5000034794211h48a5,5,0,0,1,5,5v12a5,5,0,0,1,-5,5h-48a5,5,0,0,1,-5,-5v-12a5,5,0,0,1,5,-5z"></path><g id="node_text71" fill="black"><text id="kity_text_492" text-rendering="inherit" font-size="12" dy=".8em" y="1083.700003452599" x="742.5000164732337">引入Yii</text></g></g></g></g></svg>