<svg id="kity_svg_6" xmlns="http://www.w3.org/2000/svg" xmlns:xlink="http://www.w3.org/1999/xlink" version="1.1" width="1060" height="793" style="background: rgb(251, 251, 251); visibility: visible;" viewBox="0 0 1060 793"><defs id="kity_defs_7"><linearGradient id="kity_linearGradient_17" x1="0" y1="0" x2="0" y2="1"><stop id="kity_stop_18" offset="0" stop-color="rgb(255, 255, 255)"></stop><stop id="kity_stop_19" offset="1" stop-color="rgb(204, 204, 204)"></stop></linearGradient><marker id="kity_marker_2" orient="auto" refX="6" refY="0" viewBox="-7 -7 14 14" markerWidth="7" markerHeight="7" markerUnits="userSpaceOnUse"><path id="kity_path_3" fill="rgb(115, 161, 191)" stroke="none" d="M6,0A6,6,0,1,1,-6,0A6,6,0,1,1,6,0"></path></marker></defs><g id="kity_g_8"><g id="minder1" text-rendering="optimize-speed"><g id="minder_connect_group1"><path id="kity_path_31" fill="none" stroke="rgb(115, 161, 191)" stroke-width="1" d="M76.50000493973494,407.50000584870577A174,0,0,0,1,250.50000493973494,407.50000584870577"></path><path id="kity_path_39" fill="none" stroke="rgb(115, 161, 191)" stroke-width="1" d="M405.50000493973494,407.50000584870577C420.50000493973494,407.50000584870577,420.50000493973494,421.50000584870577,435.50000493973494,421.50000584870577L565.5000049397349,421.50000584870577"></path><path id="kity_path_47" fill="none" stroke="rgb(115, 161, 191)" stroke-width="1" d="M565.5000049397349,421.50000584870577C580.5000049397349,421.50000584870577,580.5000049397349,421.50000584870577,595.5000049397349,421.50000584870577L750.5000049397349,421.50000584870577"></path><path id="kity_path_55" fill="none" stroke="rgb(115, 161, 191)" stroke-width="1" d="M750.5000049397349,421.50000584870577C765.5000049397349,421.50000584870577,765.5000049397349,70.50000584870577,780.5000049397349,70.50000584870577L836.5000049397349,70.50000584870577"></path><path id="kity_path_63" fill="none" stroke="rgb(115, 161, 191)" stroke-width="1" d="M836.5000049397349,70.50000584870577C851.5000049397349,70.50000584870577,851.5000049397349,44.50000584870577,866.5000049397349,44.50000584870577L907.5000049397349,44.50000584870577"></path><path id="kity_path_71" fill="none" stroke="rgb(115, 161, 191)" stroke-width="1" d="M836.5000049397349,70.50000584870577C851.5000049397349,70.50000584870577,851.5000049397349,96.50000584870577,866.5000049397349,96.50000584870577L952.5000049397349,96.50000584870577"></path><path id="kity_path_79" fill="none" stroke="rgb(115, 161, 191)" stroke-width="1" d="M750.5000049397349,421.50000584870577C765.5000049397349,421.50000584870577,765.5000049397349,226.50000584870577,780.5000049397349,226.50000584870577L836.5000049397349,226.50000584870577"></path><path id="kity_path_87" fill="none" stroke="rgb(115, 161, 191)" stroke-width="1" d="M836.5000049397349,226.50000584870577C851.5000049397349,226.50000584870577,851.5000049397349,148.50000584870577,866.5000049397349,148.50000584870577L968.5000049397349,148.50000584870577"></path><path id="kity_path_95" fill="none" stroke="rgb(115, 161, 191)" stroke-width="1" d="M836.5000049397349,226.50000584870577C851.5000049397349,226.50000584870577,851.5000049397349,200.50000584870577,866.5000049397349,200.50000584870577L985.5000049397349,200.50000584870577"></path><path id="kity_path_103" fill="none" stroke="rgb(115, 161, 191)" stroke-width="1" d="M836.5000049397349,226.50000584870577C851.5000049397349,226.50000584870577,851.5000049397349,252.50000584870577,866.5000049397349,252.50000584870577L956.5000049397349,252.50000584870577"></path><path id="kity_path_111" fill="none" stroke="rgb(115, 161, 191)" stroke-width="1" d="M836.5000049397349,226.50000584870577C851.5000049397349,226.50000584870577,851.5000049397349,304.50000584870577,866.5000049397349,304.50000584870577L945.5000049397349,304.50000584870577"></path><path id="kity_path_119" fill="none" stroke="rgb(115, 161, 191)" stroke-width="1" d="M750.5000049397349,421.50000584870577C765.5000049397349,421.50000584870577,765.5000049397349,356.50000584870577,780.5000049397349,356.50000584870577L905.5000049397349,356.50000584870577"></path><path id="kity_path_127" fill="none" stroke="rgb(115, 161, 191)" stroke-width="1" d="M750.5000049397349,421.50000584870577C765.5000049397349,421.50000584870577,765.5000049397349,408.50000584870577,780.5000049397349,408.50000584870577L938.5000049397349,408.50000584870577"></path><path id="kity_path_135" fill="none" stroke="rgb(115, 161, 191)" stroke-width="1" d="M750.5000049397349,421.50000584870577C765.5000049397349,421.50000584870577,765.5000049397349,564.5000058487058,780.5000049397349,564.5000058487058L874.5000049397349,564.5000058487058"></path><path id="kity_path_143" fill="none" stroke="rgb(115, 161, 191)" stroke-width="1" d="M750.5000049397349,421.50000584870577C765.5000049397349,421.50000584870577,765.5000049397349,720.5000058487058,780.5000049397349,720.5000058487058L919.5000049397349,720.5000058487058"></path><path id="kity_path_151" fill="none" stroke="rgb(115, 161, 191)" stroke-width="1" d="M750.5000049397349,421.50000584870577C765.5000049397349,421.50000584870577,765.5000049397349,772.5000058487058,780.5000049397349,772.5000058487058L905.5000049397349,772.5000058487058"></path><path id="kity_path_159" fill="none" stroke="rgb(115, 161, 191)" stroke-width="1" d="M874.5000049397349,564.5000058487058C889.5000049397349,564.5000058487058,889.5000049397349,460.50000584870577,904.5000049397349,460.50000584870577L1029.500004939735,460.50000584870577"></path><path id="kity_path_167" fill="none" stroke="rgb(115, 161, 191)" stroke-width="1" d="M874.5000049397349,564.5000058487058C889.5000049397349,564.5000058487058,889.5000049397349,512.5000058487058,904.5000049397349,512.5000058487058L1035.500004939735,512.5000058487058"></path><path id="kity_path_175" fill="none" stroke="rgb(115, 161, 191)" stroke-width="1" d="M874.5000049397349,564.5000058487058C889.5000049397349,564.5000058487058,889.5000049397349,564.5000058487058,904.5000049397349,564.5000058487058L1035.500004939735,564.5000058487058"></path><path id="kity_path_183" fill="none" stroke="rgb(115, 161, 191)" stroke-width="1" d="M874.5000049397349,564.5000058487058C889.5000049397349,564.5000058487058,889.5000049397349,616.5000058487058,904.5000049397349,616.5000058487058L1040.500004939735,616.5000058487058"></path><path id="kity_path_191" fill="none" stroke="rgb(115, 161, 191)" stroke-width="1" d="M874.5000049397349,564.5000058487058C889.5000049397349,564.5000058487058,889.5000049397349,668.5000058487058,904.5000049397349,668.5000058487058L1021.5000049397349,668.5000058487058"></path></g><g id="minder_node1"><path id="node_outline1" fill="rgb(115, 161, 191)" stroke="rgb(115, 161, 191)" d="M25.500004939734936,387.50000584870577h102a5,5,0,0,1,5,5v30a5,5,0,0,1,-5,5h-102a5,5,0,0,1,-5,-5v-30a5,5,0,0,1,5,-5z" stroke-width="3"></path><g id="node_text1" fill="white"><text id="kity_text_22" text-rendering="inherit" font-size="16" dy=".8em" y="397.100005812943" x="44.500004939734936">独立动作</text></g></g><g id="kity_g_12"><path id="kity_path_13" fill="none" stroke="none" d="M44.500004939734936,407.50000584870577h0v0h0z"></path></g><g id="kity_g_14"><path id="kity_path_15" fill="none" stroke="none" d="M44.500004939734936,407.50000584870577h0v0h0z"></path><path id="kity_path_16" fill="none" stroke="none"></path></g><g id="minder_node2"><g id="node_expander1" style="cursor: pointer;"><path id="kity_path_36" fill="white" stroke="gray" d="M251.50000793486834,407.50000584870577A6,6,0,1,1,239.50000793486834,407.50000584870577A6,6,0,1,1,251.50000793486834,407.50000584870577"></path><path id="kity_path_37" fill="none" stroke="gray" d="M241.00000793486834,407.50000584870577L250.00000793486834,407.50000584870577"></path></g><path id="node_outline2" fill="rgb(238, 243, 246)" stroke="rgb(115, 161, 191)" d="M255.5000083371997,394.50000584870577h147a3,3,0,0,1,3,3v20a3,3,0,0,1,-3,3h-147a3,3,0,0,1,-3,-3v-20a3,3,0,0,1,3,-3z" stroke-width="1"></path><g id="node_text2" fill="black"><text id="kity_text_33" text-rendering="inherit" font-size="14" dy=".8em" y="398.40000581741333" x="272.5000083371997">base\BaseObject</text></g></g><g id="minder_node3"><g id="node_expander2" style="cursor: pointer;"><path id="kity_path_44" fill="white" stroke="gray" d="M445.5000108256936,407.50000584870577A6,6,0,1,1,433.5000108256936,407.50000584870577A6,6,0,1,1,445.5000108256936,407.50000584870577"></path><path id="kity_path_45" fill="none" stroke="gray" d="M435.0000108256936,407.50000584870577L444.0000108256936,407.50000584870577"></path></g><path id="node_outline3" fill="none" stroke="none" d="M450.5000110641122,396.50000584870577h110a5,5,0,0,1,5,5v12a5,5,0,0,1,-5,5h-110a5,5,0,0,1,-5,-5v-12a5,5,0,0,1,5,-5z" stroke-width="3"></path><g id="node_text3" fill="black"><text id="kity_text_41" text-rendering="inherit" font-size="12" dy=".8em" y="399.7000058218837" x="455.5000110641122">base\Component</text></g></g><g id="minder_node4"><g id="node_expander3" style="cursor: pointer;"><path id="kity_path_52" fill="white" stroke="gray" d="M605.5000132098794,407.50000584870577A6,6,0,1,1,593.5000132098794,407.50000584870577A6,6,0,1,1,605.5000132098794,407.50000584870577"></path><path id="kity_path_53" fill="none" stroke="gray" d="M595.0000132098794,407.50000584870577L604.0000132098794,407.50000584870577"></path></g><path id="node_outline4" fill="none" stroke="none" d="M610.500013448298,396.50000584870577h135a5,5,0,0,1,5,5v12a5,5,0,0,1,-5,5h-135a5,5,0,0,1,-5,-5v-12a5,5,0,0,1,5,-5z" stroke-width="3"></path><g id="node_text4" fill="black"><text id="kity_text_49" text-rendering="inherit" font-size="12" dy=".8em" y="399.7000058218837" x="615.500013448298">base\Action[独立动作]</text></g></g><g id="minder_node5"><g id="node_expander4" style="cursor: pointer;"><path id="kity_path_60" fill="white" stroke="gray" d="M790.5000159665942,56.50000061839819A6,6,0,1,1,778.5000159665942,56.50000061839819A6,6,0,1,1,790.5000159665942,56.50000061839819"></path><path id="kity_path_61" fill="none" stroke="gray" d="M780.0000159665942,56.50000061839819L789.0000159665942,56.50000061839819"></path></g><path id="node_outline5" fill="none" stroke="none" d="M795.5000162050128,45.50000061839819h36a5,5,0,0,1,5,5v12a5,5,0,0,1,-5,5h-36a5,5,0,0,1,-5,-5v-12a5,5,0,0,1,5,-5z" stroke-width="3"></path><g id="node_text5" fill="black"><text id="kity_text_57" text-rendering="inherit" font-size="12" dy=".8em" y="48.7000005915761" x="800.5000162050128">属性</text></g></g><g id="minder_node6"><g id="node_expander5" style="cursor: pointer;" display="none"><path id="kity_path_68" fill="white" stroke="gray" d="M876.5000172480941,30.500000230968A6,6,0,1,1,864.5000172480941,30.500000230968A6,6,0,1,1,876.5000172480941,30.500000230968"></path><path id="kity_path_69" fill="none" stroke="gray"></path></g><path id="node_outline6" fill="none" stroke="none" d="M881.5000174865127,19.500000230968h21a5,5,0,0,1,5,5v12a5,5,0,0,1,-5,5h-21a5,5,0,0,1,-5,-5v-12a5,5,0,0,1,5,-5z" stroke-width="3"></path><g id="node_text6" fill="black"><text id="kity_text_65" text-rendering="inherit" font-size="12" dy=".8em" y="22.70000020414591" x="886.5000174865127">id</text></g></g><g id="minder_node7"><g id="node_expander6" style="cursor: pointer;" display="none"><path id="kity_path_76" fill="white" stroke="gray" d="M876.5000172480941,82.50000100582838A6,6,0,1,1,864.5000172480941,82.50000100582838A6,6,0,1,1,876.5000172480941,82.50000100582838"></path><path id="kity_path_77" fill="none" stroke="gray"></path></g><path id="node_outline7" fill="none" stroke="none" d="M881.5000174865127,71.50000100582838h66a5,5,0,0,1,5,5v12a5,5,0,0,1,-5,5h-66a5,5,0,0,1,-5,-5v-12a5,5,0,0,1,5,-5z"></path><g id="node_text7" fill="black"><text id="kity_text_73" text-rendering="inherit" font-size="12" dy=".8em" y="74.70000097900629" x="886.5000174865127">controller</text></g></g><g id="minder_node8"><g id="node_expander7" style="cursor: pointer;"><path id="kity_path_84" fill="white" stroke="gray" d="M790.5000159665942,212.50000294297934A6,6,0,1,1,778.5000159665942,212.50000294297934A6,6,0,1,1,790.5000159665942,212.50000294297934"></path><path id="kity_path_85" fill="none" stroke="gray" d="M780.0000159665942,212.50000294297934L789.0000159665942,212.50000294297934"></path></g><path id="node_outline8" fill="none" stroke="none" d="M795.5000162050128,201.50000294297934h36a5,5,0,0,1,5,5v12a5,5,0,0,1,-5,5h-36a5,5,0,0,1,-5,-5v-12a5,5,0,0,1,5,-5z" stroke-width="3"></path><g id="node_text8" fill="black"><text id="kity_text_81" text-rendering="inherit" font-size="12" dy=".8em" y="204.70000291615725" x="800.5000162050128">方法</text></g></g><g id="minder_node9"><g id="node_expander8" style="cursor: pointer;" display="none"><path id="kity_path_92" fill="white" stroke="gray" d="M876.5000172480941,134.50000178068876A6,6,0,1,1,864.5000172480941,134.50000178068876A6,6,0,1,1,876.5000172480941,134.50000178068876"></path><path id="kity_path_93" fill="none" stroke="gray"></path></g><path id="node_outline9" fill="none" stroke="none" d="M881.5000174865127,123.50000178068876h82a5,5,0,0,1,5,5v12a5,5,0,0,1,-5,5h-82a5,5,0,0,1,-5,-5v-12a5,5,0,0,1,5,-5z"></path><g id="node_text9" fill="black"><text id="kity_text_89" text-rendering="inherit" font-size="12" dy=".8em" y="126.70000175386667" x="886.5000174865127">getUniqueId</text></g></g><g id="minder_node10"><g id="node_expander9" style="cursor: pointer;" display="none"><path id="kity_path_100" fill="white" stroke="gray" d="M876.5000172480941,186.50000255554914A6,6,0,1,1,864.5000172480941,186.50000255554914A6,6,0,1,1,876.5000172480941,186.50000255554914"></path><path id="kity_path_101" fill="none" stroke="gray"></path></g><path id="node_outline10" fill="none" stroke="none" d="M881.5000174865127,175.50000255554914h99a5,5,0,0,1,5,5v12a5,5,0,0,1,-5,5h-99a5,5,0,0,1,-5,-5v-12a5,5,0,0,1,5,-5z"></path><g id="node_text10" fill="black"><text id="kity_text_97" text-rendering="inherit" font-size="12" dy=".8em" y="178.70000252872705" x="886.5000174865127">runWithParams</text></g></g><g id="minder_node11"><g id="node_expander10" style="cursor: pointer;" display="none"><path id="kity_path_108" fill="white" stroke="gray" d="M876.5000172480941,238.50000333040953A6,6,0,1,1,864.5000172480941,238.50000333040953A6,6,0,1,1,876.5000172480941,238.50000333040953"></path><path id="kity_path_109" fill="none" stroke="gray"></path></g><path id="node_outline11" fill="none" stroke="none" d="M881.5000174865127,227.50000333040953h70a5,5,0,0,1,5,5v12a5,5,0,0,1,-5,5h-70a5,5,0,0,1,-5,-5v-12a5,5,0,0,1,5,-5z"></path><g id="node_text11" fill="black"><text id="kity_text_105" text-rendering="inherit" font-size="12" dy=".8em" y="230.70000330358744" x="886.5000174865127">beforeRun</text></g></g><g id="minder_node12"><g id="node_expander11" style="cursor: pointer;" display="none"><path id="kity_path_116" fill="white" stroke="gray" d="M876.5000172480941,290.5000041052699A6,6,0,1,1,864.5000172480941,290.5000041052699A6,6,0,1,1,876.5000172480941,290.5000041052699"></path><path id="kity_path_117" fill="none" stroke="gray"></path></g><path id="node_outline12" fill="none" stroke="none" d="M881.5000174865127,279.5000041052699h59a5,5,0,0,1,5,5v12a5,5,0,0,1,-5,5h-59a5,5,0,0,1,-5,-5v-12a5,5,0,0,1,5,-5z"></path><g id="node_text12" fill="black"><text id="kity_text_113" text-rendering="inherit" font-size="12" dy=".8em" y="282.7000040784478" x="886.5000174865127">afterRun</text></g></g><g id="minder_node13"><g id="node_expander12" style="cursor: pointer;" display="none"><path id="kity_path_124" fill="white" stroke="gray" d="M790.5000159665942,342.5000048801303A6,6,0,1,1,778.5000159665942,342.5000048801303A6,6,0,1,1,790.5000159665942,342.5000048801303"></path><path id="kity_path_125" fill="none" stroke="gray"></path></g><path id="node_outline13" fill="none" stroke="none" d="M795.5000162050128,331.5000048801303h105a5,5,0,0,1,5,5v12a5,5,0,0,1,-5,5h-105a5,5,0,0,1,-5,-5v-12a5,5,0,0,1,5,-5z" stroke-width="3"></path><g id="node_text13" fill="black"><text id="kity_text_121" text-rendering="inherit" font-size="12" dy=".8em" y="334.7000048533082" x="800.5000162050128">web\ViewAction</text></g></g><g id="minder_node14"><g id="node_expander13" style="cursor: pointer;" display="none"><path id="kity_path_132" fill="white" stroke="gray" d="M790.5000159665942,394.5000056549907A6,6,0,1,1,778.5000159665942,394.5000056549907A6,6,0,1,1,790.5000159665942,394.5000056549907"></path><path id="kity_path_133" fill="none" stroke="gray"></path></g><path id="node_outline14" fill="none" stroke="none" d="M795.5000162050128,383.5000056549907h138a5,5,0,0,1,5,5v12a5,5,0,0,1,-5,5h-138a5,5,0,0,1,-5,-5v-12a5,5,0,0,1,5,-5z" stroke-width="3"></path><g id="node_text14" fill="black"><text id="kity_text_129" text-rendering="inherit" font-size="12" dy=".8em" y="386.7000056281686" x="800.5000162050128">captcha\CapthaAction</text></g></g><g id="minder_node15"><g id="node_expander14" style="cursor: pointer;"><path id="kity_path_140" fill="white" stroke="gray" d="M790.5000159665942,550.5000079795718A6,6,0,1,1,778.5000159665942,550.5000079795718A6,6,0,1,1,790.5000159665942,550.5000079795718"></path><path id="kity_path_141" fill="none" stroke="gray" d="M780.0000159665942,550.5000079795718L789.0000159665942,550.5000079795718"></path></g><path id="node_outline15" fill="none" stroke="none" d="M795.5000162050128,539.5000079795718h74a5,5,0,0,1,5,5v12a5,5,0,0,1,-5,5h-74a5,5,0,0,1,-5,-5v-12a5,5,0,0,1,5,-5z" stroke-width="3"></path><g id="node_text15" fill="black"><text id="kity_text_137" text-rendering="inherit" font-size="12" dy=".8em" y="542.7000079527497" x="800.5000162050128">rest\Action</text></g></g><g id="minder_node16"><g id="node_expander15" style="cursor: pointer;" display="none"><path id="kity_path_148" fill="white" stroke="gray" d="M790.5000159665942,706.500010304153A6,6,0,1,1,778.5000159665942,706.500010304153A6,6,0,1,1,790.5000159665942,706.500010304153"></path><path id="kity_path_149" fill="none" stroke="gray"></path></g><path id="node_outline16" fill="none" stroke="none" d="M795.5000162050128,695.500010304153h119a5,5,0,0,1,5,5v12a5,5,0,0,1,-5,5h-119a5,5,0,0,1,-5,-5v-12a5,5,0,0,1,5,-5z" stroke-width="3"></path><g id="node_text16" fill="black"><text id="kity_text_145" text-rendering="inherit" font-size="12" dy=".8em" y="698.7000102773309" x="800.5000162050128">rest\OptionsAction</text></g></g><g id="minder_node17"><g id="node_expander16" style="cursor: pointer;" display="none"><path id="kity_path_156" fill="white" stroke="gray" d="M790.5000159665942,758.5000110790133A6,6,0,1,1,778.5000159665942,758.5000110790133A6,6,0,1,1,790.5000159665942,758.5000110790133"></path><path id="kity_path_157" fill="none" stroke="gray"></path></g><path id="node_outline17" fill="none" stroke="none" d="M795.5000162050128,747.5000110790133h105a5,5,0,0,1,5,5v12a5,5,0,0,1,-5,5h-105a5,5,0,0,1,-5,-5v-12a5,5,0,0,1,5,-5z" stroke-width="3"></path><g id="node_text17" fill="black"><text id="kity_text_153" text-rendering="inherit" font-size="12" dy=".8em" y="750.7000110521913" x="800.5000162050128">web\ErrorAction</text></g></g><g id="minder_node18"><g id="node_expander17" style="cursor: pointer;" display="none"><path id="kity_path_164" fill="white" stroke="gray" d="M914.5000178143382,446.50000642985106A6,6,0,1,1,902.5000178143382,446.50000642985106A6,6,0,1,1,914.5000178143382,446.50000642985106"></path><path id="kity_path_165" fill="none" stroke="gray"></path></g><path id="node_outline18" fill="none" stroke="none" d="M919.5000180527568,435.50000642985106h105a5,5,0,0,1,5,5v12a5,5,0,0,1,-5,5h-105a5,5,0,0,1,-5,-5v-12a5,5,0,0,1,5,-5z" stroke-width="3"></path><g id="node_text18" fill="black"><text id="kity_text_161" text-rendering="inherit" font-size="12" dy=".8em" y="438.70000640302896" x="924.5000180527568">rest\IndexAction</text></g></g><g id="minder_node19"><g id="node_expander18" style="cursor: pointer;" display="none"><path id="kity_path_172" fill="white" stroke="gray" d="M914.5000178143382,498.50000720471144A6,6,0,1,1,902.5000178143382,498.50000720471144A6,6,0,1,1,914.5000178143382,498.50000720471144"></path><path id="kity_path_173" fill="none" stroke="gray"></path></g><path id="node_outline19" fill="none" stroke="none" d="M919.5000180527568,487.50000720471144h111a5,5,0,0,1,5,5v12a5,5,0,0,1,-5,5h-111a5,5,0,0,1,-5,-5v-12a5,5,0,0,1,5,-5z" stroke-width="3"></path><g id="node_text19" fill="black"><text id="kity_text_169" text-rendering="inherit" font-size="12" dy=".8em" y="490.70000717788935" x="924.5000180527568">rest\CreateAction</text></g></g><g id="minder_node20"><g id="node_expander19" style="cursor: pointer;" display="none"><path id="kity_path_180" fill="white" stroke="gray" d="M914.5000178143382,550.5000079795718A6,6,0,1,1,902.5000178143382,550.5000079795718A6,6,0,1,1,914.5000178143382,550.5000079795718"></path><path id="kity_path_181" fill="none" stroke="gray"></path></g><path id="node_outline20" fill="none" stroke="none" d="M919.5000180527568,539.5000079795718h111a5,5,0,0,1,5,5v12a5,5,0,0,1,-5,5h-111a5,5,0,0,1,-5,-5v-12a5,5,0,0,1,5,-5z" stroke-width="3"></path><g id="node_text20" fill="black"><text id="kity_text_177" text-rendering="inherit" font-size="12" dy=".8em" y="542.7000079527497" x="924.5000180527568">rest\DeleteAction</text></g></g><g id="minder_node21"><g id="node_expander20" style="cursor: pointer;" display="none"><path id="kity_path_188" fill="white" stroke="gray" d="M914.5000178143382,602.5000087544322A6,6,0,1,1,902.5000178143382,602.5000087544322A6,6,0,1,1,914.5000178143382,602.5000087544322"></path><path id="kity_path_189" fill="none" stroke="gray"></path></g><path id="node_outline21" fill="none" stroke="none" d="M919.5000180527568,591.5000087544322h116a5,5,0,0,1,5,5v12a5,5,0,0,1,-5,5h-116a5,5,0,0,1,-5,-5v-12a5,5,0,0,1,5,-5z" stroke-width="3"></path><g id="node_text21" fill="black"><text id="kity_text_185" text-rendering="inherit" font-size="12" dy=".8em" y="594.7000087276101" x="924.5000180527568">rest\UpdateAction</text></g></g><g id="minder_node22"><g id="node_expander21" style="cursor: pointer;" display="none"><path id="kity_path_196" fill="white" stroke="gray" d="M914.5000178143382,654.5000095292926A6,6,0,1,1,902.5000178143382,654.5000095292926A6,6,0,1,1,914.5000178143382,654.5000095292926"></path><path id="kity_path_197" fill="none" stroke="gray"></path></g><path id="node_outline22" fill="none" stroke="none" d="M919.5000180527568,643.5000095292926h97a5,5,0,0,1,5,5v12a5,5,0,0,1,-5,5h-97a5,5,0,0,1,-5,-5v-12a5,5,0,0,1,5,-5z" stroke-width="3"></path><g id="node_text22" fill="black"><text id="kity_text_193" text-rendering="inherit" font-size="12" dy=".8em" y="646.7000095024705" x="924.5000180527568">rest\ViewAcion</text></g></g></g></g></svg>