<svg id="kity_svg_6" xmlns="http://www.w3.org/2000/svg" xmlns:xlink="http://www.w3.org/1999/xlink" version="1.1" width="1660" height="1229" style="background: rgb(251, 251, 251); visibility: visible;" viewBox="0 0 1660 1229"><defs id="kity_defs_7"><linearGradient id="kity_linearGradient_17" x1="0" y1="0" x2="0" y2="1"><stop id="kity_stop_18" offset="0" stop-color="rgb(255, 255, 255)"></stop><stop id="kity_stop_19" offset="1" stop-color="rgb(204, 204, 204)"></stop></linearGradient><marker id="kity_marker_2" orient="auto" refX="6" refY="0" viewBox="-7 -7 14 14" markerWidth="7" markerHeight="7" markerUnits="userSpaceOnUse"><path id="kity_path_3" fill="rgb(115, 161, 191)" stroke="none" d="M6,0A6,6,0,1,1,-6,0A6,6,0,1,1,6,0"></path></marker></defs><g id="kity_g_8"><g id="minder1" text-rendering="geometricPrecision"><g id="minder_connect_group1"><path id="kity_path_31" fill="none" stroke="rgb(115, 161, 191)" stroke-width="1" d="M759.0000075176358,498.5000023320317A169.5,250,0,0,1,928.5000075176358,248.50000233203173"></path><path id="kity_path_39" fill="none" stroke="rgb(115, 161, 191)" stroke-width="1" d="M992.5000075176358,248.50000233203173C1007.5000075176358,248.50000233203173,1007.5000075176358,210.50000233203173,1022.5000075176358,210.50000233203173L1089.5000075176358,210.50000233203173"></path><path id="kity_path_47" fill="none" stroke="rgb(115, 161, 191)" stroke-width="1" d="M992.5000075176358,248.50000233203173C1007.5000075176358,248.50000233203173,1007.5000075176358,262.5000023320317,1022.5000075176358,262.5000023320317L1101.5000075176358,262.5000023320317"></path><path id="kity_path_55" fill="none" stroke="rgb(115, 161, 191)" stroke-width="1" d="M992.5000075176358,248.50000233203173C1007.5000075176358,248.50000233203173,1007.5000075176358,314.5000023320317,1022.5000075176358,314.5000023320317L1104.5000075176358,314.5000023320317"></path><path id="kity_path_63" fill="none" stroke="rgb(115, 161, 191)" stroke-width="1" d="M759.0000075176358,498.5000023320317A169.5,84,0,0,1,928.5000075176358,414.5000023320317"></path><path id="kity_path_79" fill="none" stroke="rgb(115, 161, 191)" stroke-width="1" d="M759.0000075176358,498.5000023320317A169.5,251,0,0,0,928.5000075176358,749.5000023320317"></path><path id="kity_path_87" fill="none" stroke="rgb(115, 161, 191)" stroke-width="1" d="M1085.5000075176358,958.5000023320317C1100.5000075176358,958.5000023320317,1100.5000075176358,854.5000023320317,1115.5000075176358,854.5000023320317L1193.5000075176358,854.5000023320317"></path><path id="kity_path_95" fill="none" stroke="rgb(115, 161, 191)" stroke-width="1" d="M1085.5000075176358,958.5000023320317C1100.5000075176358,958.5000023320317,1100.5000075176358,906.5000023320317,1115.5000075176358,906.5000023320317L1205.5000075176358,906.5000023320317"></path><path id="kity_path_103" fill="none" stroke="rgb(115, 161, 191)" stroke-width="1" d="M1085.5000075176358,958.5000023320317C1100.5000075176358,958.5000023320317,1100.5000075176358,984.5000023320317,1115.5000075176358,984.5000023320317L1193.5000075176358,984.5000023320317"></path><path id="kity_path_111" fill="none" stroke="rgb(115, 161, 191)" stroke-width="1" d="M1085.5000075176358,958.5000023320317C1100.5000075176358,958.5000023320317,1100.5000075176358,1062.5000023320317,1115.5000075176358,1062.5000023320317L1205.5000075176358,1062.5000023320317"></path><path id="kity_path_119" fill="none" stroke="rgb(115, 161, 191)" stroke-width="1" d="M999.5000075176358,749.5000023320317C1014.5000075176358,749.5000023320317,1014.5000075176358,568.5000023320317,1029.5000075176358,568.5000023320317L1108.5000075176358,568.5000023320317"></path><path id="kity_path_127" fill="none" stroke="rgb(115, 161, 191)" stroke-width="1" d="M759.0000075176358,498.5000023320317A169.5,325,0,0,0,589.5000075176358,173.50000233203173"></path><path id="kity_path_135" fill="none" stroke="rgb(115, 161, 191)" stroke-width="1" d="M518.5000075176358,173.50000233203173C503.5000075176358,173.50000233203173,503.5000075176358,122.50000233203173,488.5000075176358,122.50000233203173L410.5000075176358,122.50000233203173"></path><path id="kity_path_143" fill="none" stroke="rgb(115, 161, 191)" stroke-width="1" d="M759.0000075176358,498.5000023320317A169.5,146,0,0,0,589.5000075176358,352.5000023320317"></path><path id="kity_path_151" fill="none" stroke="rgb(115, 161, 191)" stroke-width="1" d="M532.5000075176358,352.5000023320317C517.5000075176358,352.5000023320317,517.5000075176358,314.5000023320317,502.5000075176358,314.5000023320317L434.5000075176358,314.5000023320317"></path><path id="kity_path_159" fill="none" stroke="rgb(115, 161, 191)" stroke-width="1" d="M532.5000075176358,352.5000023320317C517.5000075176358,352.5000023320317,517.5000075176358,366.5000023320317,502.5000075176358,366.5000023320317L446.5000075176358,366.5000023320317"></path><path id="kity_path_167" fill="none" stroke="rgb(115, 161, 191)" stroke-width="1" d="M532.5000075176358,352.5000023320317C517.5000075176358,352.5000023320317,517.5000075176358,418.5000023320317,502.5000075176358,418.5000023320317L446.5000075176358,418.5000023320317"></path><path id="kity_path_183" fill="none" stroke="rgb(115, 161, 191)" stroke-width="1" d="M518.5000075176358,173.50000233203173C503.5000075176358,173.50000233203173,503.5000075176358,252.50000233203173,488.5000075176358,252.50000233203173L373.5000075176358,252.50000233203173"></path><path id="kity_path_191" fill="none" stroke="rgb(115, 161, 191)" stroke-width="1" d="M999.5000075176358,749.5000023320317C1014.5000075176358,749.5000023320317,1014.5000075176358,724.5000023320317,1029.5000075176358,724.5000023320317L1168.5000075176358,724.5000023320317"></path><path id="kity_path_199" fill="none" stroke="rgb(115, 161, 191)" stroke-width="1" d="M999.5000075176358,749.5000023320317C1014.5000075176358,749.5000023320317,1014.5000075176358,958.5000023320317,1029.5000075176358,958.5000023320317L1085.5000075176358,958.5000023320317"></path><path id="kity_path_207" fill="none" stroke="rgb(115, 161, 191)" stroke-width="1" d="M1193.5000075176358,854.5000023320317C1208.5000075176358,854.5000023320317,1208.5000075176358,854.5000023320317,1223.5000075176358,854.5000023320317L1374.5000075176358,854.5000023320317"></path><path id="kity_path_215" fill="none" stroke="rgb(115, 161, 191)" stroke-width="1" d="M1205.5000075176358,906.5000023320317C1220.5000075176358,906.5000023320317,1220.5000075176358,906.5000023320317,1235.5000075176358,906.5000023320317L1410.5000075176358,906.5000023320317"></path><path id="kity_path_223" fill="none" stroke="rgb(115, 161, 191)" stroke-width="1" d="M1193.5000075176358,984.5000023320317C1208.5000075176358,984.5000023320317,1208.5000075176358,1010.5000023320317,1223.5000075176358,1010.5000023320317L1614.5000075176358,1010.5000023320317"></path><path id="kity_path_231" fill="none" stroke="rgb(115, 161, 191)" stroke-width="1" d="M1193.5000075176358,984.5000023320317C1208.5000075176358,984.5000023320317,1208.5000075176358,958.5000023320317,1223.5000075176358,958.5000023320317L1518.5000075176358,958.5000023320317"></path><path id="kity_path_247" fill="none" stroke="rgb(115, 161, 191)" stroke-width="1" d="M1168.5000075176358,724.5000023320317C1183.5000075176358,724.5000023320317,1183.5000075176358,646.5000023320317,1198.5000075176358,646.5000023320317L1276.5000075176358,646.5000023320317"></path><path id="kity_path_255" fill="none" stroke="rgb(115, 161, 191)" stroke-width="1" d="M1168.5000075176358,724.5000023320317C1183.5000075176358,724.5000023320317,1183.5000075176358,698.5000023320317,1198.5000075176358,698.5000023320317L1276.5000075176358,698.5000023320317"></path><path id="kity_path_263" fill="none" stroke="rgb(115, 161, 191)" stroke-width="1" d="M1276.5000075176358,646.5000023320317C1291.5000075176358,646.5000023320317,1291.5000075176358,646.5000023320317,1306.5000075176358,646.5000023320317L1372.5000075176358,646.5000023320317"></path><path id="kity_path_271" fill="none" stroke="rgb(115, 161, 191)" stroke-width="1" d="M1276.5000075176358,698.5000023320317C1291.5000075176358,698.5000023320317,1291.5000075176358,698.5000023320317,1306.5000075176358,698.5000023320317L1541.5000075176358,698.5000023320317"></path><path id="kity_path_279" fill="none" stroke="rgb(115, 161, 191)" stroke-width="1" d="M1168.5000075176358,724.5000023320317C1183.5000075176358,724.5000023320317,1183.5000075176358,750.5000023320317,1198.5000075176358,750.5000023320317L1277.5000075176358,750.5000023320317"></path><path id="kity_path_287" fill="none" stroke="rgb(115, 161, 191)" stroke-width="1" d="M1277.5000075176358,750.5000023320317C1292.5000075176358,750.5000023320317,1292.5000075176358,750.5000023320317,1307.5000075176358,750.5000023320317L1639.5000075176358,750.5000023320317"></path><path id="kity_path_295" fill="none" stroke="rgb(115, 161, 191)" stroke-width="1" d="M1168.5000075176358,724.5000023320317C1183.5000075176358,724.5000023320317,1183.5000075176358,802.5000023320317,1198.5000075176358,802.5000023320317L1279.5000075176358,802.5000023320317"></path><path id="kity_path_303" fill="none" stroke="rgb(115, 161, 191)" stroke-width="1" d="M1279.5000075176358,802.5000023320317C1294.5000075176358,802.5000023320317,1294.5000075176358,802.5000023320317,1309.5000075176358,802.5000023320317L1497.5000075176358,802.5000023320317"></path><path id="kity_path_311" fill="none" stroke="rgb(115, 161, 191)" stroke-width="1" d="M1089.5000075176358,210.50000233203173C1104.5000075176358,210.50000233203173,1104.5000075176358,210.50000233203173,1119.5000075176358,210.50000233203173L1538.5000075176358,210.50000233203173"></path><path id="kity_path_319" fill="none" stroke="rgb(115, 161, 191)" stroke-width="1" d="M1101.5000075176358,262.5000023320317C1116.5000075176358,262.5000023320317,1116.5000075176358,262.5000023320317,1131.5000075176358,262.5000023320317L1605.5000075176358,262.5000023320317"></path><path id="kity_path_327" fill="none" stroke="rgb(115, 161, 191)" stroke-width="1" d="M1104.5000075176358,314.5000023320317C1119.5000075176358,314.5000023320317,1119.5000075176358,314.5000023320317,1134.5000075176358,314.5000023320317L1420.5000075176358,314.5000023320317"></path><path id="kity_path_335" fill="none" stroke="rgb(115, 161, 191)" stroke-width="1" d="M410.5000075176358,122.50000233203173C395.5000075176358,122.50000233203173,395.5000075176358,44.50000233203173,380.5000075176358,44.50000233203173L301.5000075176358,44.50000233203173"></path><path id="kity_path_343" fill="none" stroke="rgb(115, 161, 191)" stroke-width="1" d="M410.5000075176358,122.50000233203173C395.5000075176358,122.50000233203173,395.5000075176358,96.50000233203173,380.5000075176358,96.50000233203173L313.5000075176358,96.50000233203173"></path><path id="kity_path_351" fill="none" stroke="rgb(115, 161, 191)" stroke-width="1" d="M313.5000075176358,96.50000233203173C298.5000075176358,96.50000233203173,298.5000075176358,96.50000233203173,283.5000075176358,96.50000233203173L204.50000751763582,96.50000233203173"></path><path id="kity_path_359" fill="none" stroke="rgb(115, 161, 191)" stroke-width="1" d="M410.5000075176358,122.50000233203173C395.5000075176358,122.50000233203173,395.5000075176358,148.50000233203173,380.5000075176358,148.50000233203173L302.5000075176358,148.50000233203173"></path><path id="kity_path_367" fill="none" stroke="rgb(115, 161, 191)" stroke-width="1" d="M302.5000075176358,148.50000233203173C287.5000075176358,148.50000233203173,287.5000075176358,148.50000233203173,272.5000075176358,148.50000233203173L157.50000751763582,148.50000233203173"></path><path id="kity_path_375" fill="none" stroke="rgb(115, 161, 191)" stroke-width="1" d="M410.5000075176358,122.50000233203173C395.5000075176358,122.50000233203173,395.5000075176358,200.50000233203173,380.5000075176358,200.50000233203173L325.5000075176358,200.50000233203173"></path><path id="kity_path_383" fill="none" stroke="rgb(115, 161, 191)" stroke-width="1" d="M325.5000075176358,200.50000233203173C310.5000075176358,200.50000233203173,310.5000075176358,200.50000233203173,295.5000075176358,200.50000233203173L216.50000751763582,200.50000233203173"></path><path id="kity_path_391" fill="none" stroke="rgb(115, 161, 191)" stroke-width="1" d="M373.5000075176358,252.50000233203173C358.5000075176358,252.50000233203173,358.5000075176358,252.50000233203173,343.5000075176358,252.50000233203173L213.50000751763582,252.50000233203173"></path><path id="kity_path_399" fill="none" stroke="rgb(115, 161, 191)" stroke-width="1" d="M434.5000075176358,314.5000023320317C419.5000075176358,314.5000023320317,419.5000075176358,314.5000023320317,404.5000075176358,314.5000023320317L193.50000751763582,314.5000023320317"></path><path id="kity_path_407" fill="none" stroke="rgb(115, 161, 191)" stroke-width="1" d="M446.5000075176358,418.5000023320317C431.5000075176358,418.5000023320317,431.5000075176358,418.5000023320317,416.5000075176358,418.5000023320317L147.50000751763582,418.5000023320317"></path><path id="kity_path_415" fill="none" stroke="rgb(115, 161, 191)" stroke-width="1" d="M446.5000075176358,366.5000023320317C431.5000075176358,366.5000023320317,431.5000075176358,366.5000023320317,416.5000075176358,366.5000023320317L156.50000751763582,366.5000023320317"></path><path id="kity_path_423" fill="none" stroke="rgb(115, 161, 191)" stroke-width="1" d="M759.0000075176358,498.5000023320317A169.5,325,0,0,1,589.5000075176358,823.5000023320317"></path><path id="kity_path_431" fill="none" stroke="rgb(115, 161, 191)" stroke-width="1" d="M517.5000075176358,823.5000023320317C502.5000075176358,823.5000023320317,502.5000075176358,571.5000023320317,487.5000075176358,571.5000023320317L433.5000075176358,571.5000023320317"></path><path id="kity_path_439" fill="none" stroke="rgb(115, 161, 191)" stroke-width="1" d="M433.5000075176358,571.5000023320317C418.5000075176358,571.5000023320317,418.5000075176358,571.5000023320317,403.5000075176358,571.5000023320317L311.5000075176358,571.5000023320317"></path><path id="kity_path_447" fill="none" stroke="rgb(115, 161, 191)" stroke-width="1" d="M311.5000075176358,571.5000023320317C296.5000075176358,571.5000023320317,296.5000075176358,480.5000023320317,281.5000075176358,480.5000023320317L167.50000751763582,480.5000023320317"></path><path id="kity_path_455" fill="none" stroke="rgb(115, 161, 191)" stroke-width="1" d="M311.5000075176358,571.5000023320317C296.5000075176358,571.5000023320317,296.5000075176358,532.5000023320317,281.5000075176358,532.5000023320317L140.50000751763582,532.5000023320317"></path><path id="kity_path_463" fill="none" stroke="rgb(115, 161, 191)" stroke-width="1" d="M311.5000075176358,571.5000023320317C296.5000075176358,571.5000023320317,296.5000075176358,662.5000023320317,281.5000075176358,662.5000023320317L129.50000751763582,662.5000023320317"></path><path id="kity_path_471" fill="none" stroke="rgb(115, 161, 191)" stroke-width="1" d="M129.50000751763582,662.5000023320317C114.50000751763582,662.5000023320317,114.50000751763582,584.5000023320317,99.50000751763582,584.5000023320317L19.500007517635822,584.5000023320317"></path><path id="kity_path_479" fill="none" stroke="rgb(115, 161, 191)" stroke-width="1" d="M517.5000075176358,823.5000023320317C502.5000075176358,823.5000023320317,502.5000075176358,870.5000023320317,487.5000075176358,870.5000023320317L432.5000075176358,870.5000023320317"></path><path id="kity_path_487" fill="none" stroke="rgb(115, 161, 191)" stroke-width="1" d="M432.5000075176358,870.5000023320317C417.5000075176358,870.5000023320317,417.5000075176358,818.5000023320317,402.5000075176358,818.5000023320317L322.5000075176358,818.5000023320317"></path><path id="kity_path_495" fill="none" stroke="rgb(115, 161, 191)" stroke-width="1" d="M322.5000075176358,818.5000023320317C307.5000075176358,818.5000023320317,307.5000075176358,792.5000023320317,292.5000075176358,792.5000023320317L214.50000751763582,792.5000023320317"></path><path id="kity_path_503" fill="none" stroke="rgb(115, 161, 191)" stroke-width="1" d="M322.5000075176358,818.5000023320317C307.5000075176358,818.5000023320317,307.5000075176358,844.5000023320317,292.5000075176358,844.5000023320317L234.50000751763582,844.5000023320317"></path><path id="kity_path_511" fill="none" stroke="rgb(115, 161, 191)" stroke-width="1" d="M517.5000075176358,823.5000023320317C502.5000075176358,823.5000023320317,502.5000075176358,1104.5000023320317,487.5000075176358,1104.5000023320317L408.5000075176358,1104.5000023320317"></path><path id="kity_path_519" fill="none" stroke="rgb(115, 161, 191)" stroke-width="1" d="M408.5000075176358,1104.5000023320317C393.5000075176358,1104.5000023320317,393.5000075176358,1000.5000023320317,378.5000075176358,1000.5000023320317L240.50000751763582,1000.5000023320317"></path><path id="kity_path_527" fill="none" stroke="rgb(115, 161, 191)" stroke-width="1" d="M408.5000075176358,1104.5000023320317C393.5000075176358,1104.5000023320317,393.5000075176358,1052.5000023320317,378.5000075176358,1052.5000023320317L282.5000075176358,1052.5000023320317"></path><path id="kity_path_535" fill="none" stroke="rgb(115, 161, 191)" stroke-width="1" d="M408.5000075176358,1104.5000023320317C393.5000075176358,1104.5000023320317,393.5000075176358,1104.5000023320317,378.5000075176358,1104.5000023320317L263.5000075176358,1104.5000023320317"></path><path id="kity_path_543" fill="none" stroke="rgb(115, 161, 191)" stroke-width="1" d="M408.5000075176358,1104.5000023320317C393.5000075176358,1104.5000023320317,393.5000075176358,1156.5000023320317,378.5000075176358,1156.5000023320317L287.5000075176358,1156.5000023320317"></path><path id="kity_path_551" fill="none" stroke="rgb(115, 161, 191)" stroke-width="1" d="M408.5000075176358,1104.5000023320317C393.5000075176358,1104.5000023320317,393.5000075176358,1208.5000023320317,378.5000075176358,1208.5000023320317L283.5000075176358,1208.5000023320317"></path><path id="kity_path_559" fill="none" stroke="rgb(115, 161, 191)" stroke-width="1" d="M432.5000075176358,870.5000023320317C417.5000075176358,870.5000023320317,417.5000075176358,922.5000023320317,402.5000075176358,922.5000023320317L346.5000075176358,922.5000023320317"></path><path id="kity_path_567" fill="none" stroke="rgb(115, 161, 191)" stroke-width="1" d="M346.5000075176358,922.5000023320317C331.5000075176358,922.5000023320317,331.5000075176358,896.5000023320317,316.5000075176358,896.5000023320317L225.50000751763582,896.5000023320317"></path><path id="kity_path_575" fill="none" stroke="rgb(115, 161, 191)" stroke-width="1" d="M346.5000075176358,922.5000023320317C331.5000075176358,922.5000023320317,331.5000075176358,948.5000023320317,316.5000075176358,948.5000023320317L225.50000751763582,948.5000023320317"></path><path id="kity_path_583" fill="none" stroke="rgb(115, 161, 191)" stroke-width="1" d="M129.50000751763582,662.5000023320317C114.50000751763582,662.5000023320317,114.50000751763582,636.5000023320317,99.50000751763582,636.5000023320317L19.500007517635822,636.5000023320317"></path><path id="kity_path_591" fill="none" stroke="rgb(115, 161, 191)" stroke-width="1" d="M129.50000751763582,662.5000023320317C114.50000751763582,662.5000023320317,114.50000751763582,688.5000023320317,99.50000751763582,688.5000023320317L19.500007517635822,688.5000023320317"></path><path id="kity_path_599" fill="none" stroke="rgb(115, 161, 191)" stroke-width="1" d="M129.50000751763582,662.5000023320317C114.50000751763582,662.5000023320317,114.50000751763582,740.5000023320317,99.50000751763582,740.5000023320317L20.500007517635822,740.5000023320317"></path><path id="kity_path_607" fill="none" stroke="rgb(115, 161, 191)" stroke-width="1" d="M1108.5000075176358,568.5000023320317C1123.5000075176358,568.5000023320317,1123.5000075176358,542.5000023320317,1138.5000075176358,542.5000023320317L1278.5000075176358,542.5000023320317"></path><path id="kity_path_615" fill="none" stroke="rgb(115, 161, 191)" stroke-width="1" d="M1108.5000075176358,568.5000023320317C1123.5000075176358,568.5000023320317,1123.5000075176358,594.5000023320317,1138.5000075176358,594.5000023320317L1265.5000075176358,594.5000023320317"></path><path id="kity_path_623" fill="none" stroke="rgb(115, 161, 191)" stroke-width="1" d="M1045.5000075176358,414.5000023320317C1060.5000075176358,414.5000023320317,1060.5000075176358,376.5000023320317,1075.5000075176358,376.5000023320317L1153.5000075176358,376.5000023320317"></path><path id="kity_path_631" fill="none" stroke="rgb(115, 161, 191)" stroke-width="1" d="M1045.5000075176358,414.5000023320317C1060.5000075176358,414.5000023320317,1060.5000075176358,428.5000023320317,1075.5000075176358,428.5000023320317L1152.5000075176358,428.5000023320317"></path><path id="kity_path_639" fill="none" stroke="rgb(115, 161, 191)" stroke-width="1" d="M1045.5000075176358,414.5000023320317C1060.5000075176358,414.5000023320317,1060.5000075176358,480.5000023320317,1075.5000075176358,480.5000023320317L1157.5000075176358,480.5000023320317"></path></g><g id="minder_node1"><path id="node_outline1" fill="rgb(115, 161, 191)" stroke="rgb(115, 161, 191)" d="M712.5000075176358,478.5000023320317h93a5,5,0,0,1,5,5v30a5,5,0,0,1,-5,5h-93a5,5,0,0,1,-5,-5v-30a5,5,0,0,1,5,-5z" stroke-width="3"></path><g id="node_text1" fill="white"><text id="kity_text_22" text-rendering="inherit" font-size="16" dy=".8em" y="488.10000229626894" x="731.5000075176358">MySQL</text></g></g><g id="kity_g_14" display="none"><path id="kity_path_15" fill="rgba(0, 92, 153, 0.5)" stroke="none" d="M1039.5000075176358,786.5000023320317h128v15h-128z"></path><path id="kity_path_16" fill="none" stroke="rgb(0, 76, 128)" d="M1039.5000075176358,786.5000023320317L1167.5000075176358,786.5000023320317" stroke-width="1"></path></g><g id="minder_node2"><g id="node_expander1" style="cursor: pointer;"><path id="kity_path_36" fill="white" stroke="gray" d="M929.5000103786588,248.49999860674143A6,6,0,1,1,917.5000103786588,248.49999860674143A6,6,0,1,1,929.5000103786588,248.49999860674143"></path><path id="kity_path_37" fill="none" stroke="gray" d="M919.0000103786588,248.49999860674143L928.0000103786588,248.49999860674143"></path></g><path id="node_outline2" fill="rgb(238, 243, 246)" stroke="rgb(115, 161, 191)" d="M933.5000107809901,235.49999860674143h56a3,3,0,0,1,3,3v20a3,3,0,0,1,-3,3h-56a3,3,0,0,1,-3,-3v-20a3,3,0,0,1,3,-3z" stroke-width="1"></path><g id="node_text2" fill="black"><text id="kity_text_33" text-rendering="inherit" font-size="14" dy=".8em" y="239.399998575449" x="950.5000107809901">log</text></g></g><g id="minder_node3"><g id="node_expander2" style="cursor: pointer;"><path id="kity_path_44" fill="white" stroke="gray" d="M1032.5000119134784,196.49999783188105A6,6,0,1,1,1020.5000119134784,196.49999783188105A6,6,0,1,1,1032.5000119134784,196.49999783188105"></path><path id="kity_path_45" fill="none" stroke="gray" d="M1022.0000119134784,196.49999783188105L1031.0000119134784,196.49999783188105"></path></g><path id="node_outline3" fill="none" stroke="none" d="M1037.500012151897,185.49999783188105h47a5,5,0,0,1,5,5v12a5,5,0,0,1,-5,5h-47a5,5,0,0,1,-5,-5v-12a5,5,0,0,1,5,-5z" stroke-width="3"></path><g id="node_text3" fill="black"><text id="kity_text_41" text-rendering="inherit" font-size="12" dy=".8em" y="188.69999780505896" x="1042.500012151897">binlog</text></g></g><g id="minder_node4"><g id="node_expander3" style="cursor: pointer;"><path id="kity_path_52" fill="white" stroke="gray" d="M1032.5000119134784,248.49999860674143A6,6,0,1,1,1020.5000119134784,248.49999860674143A6,6,0,1,1,1032.5000119134784,248.49999860674143"></path><path id="kity_path_53" fill="none" stroke="gray" d="M1022.0000119134784,248.49999860674143L1031.0000119134784,248.49999860674143"></path></g><path id="node_outline4" fill="none" stroke="none" d="M1037.500012151897,237.49999860674143h59a5,5,0,0,1,5,5v12a5,5,0,0,1,-5,5h-59a5,5,0,0,1,-5,-5v-12a5,5,0,0,1,5,-5z" stroke-width="3"></path><g id="node_text4" fill="black"><text id="kity_text_49" text-rendering="inherit" font-size="12" dy=".8em" y="240.69999857991934" x="1042.500012151897">redo log</text></g></g><g id="minder_node5"><g id="node_expander4" style="cursor: pointer;"><path id="kity_path_60" fill="white" stroke="gray" d="M1032.5000119134784,300.4999993816018A6,6,0,1,1,1020.5000119134784,300.4999993816018A6,6,0,1,1,1032.5000119134784,300.4999993816018"></path><path id="kity_path_61" fill="none" stroke="gray" d="M1022.0000119134784,300.4999993816018L1031.0000119134784,300.4999993816018"></path></g><path id="node_outline5" fill="none" stroke="none" d="M1037.500012151897,289.4999993816018h62a5,5,0,0,1,5,5v12a5,5,0,0,1,-5,5h-62a5,5,0,0,1,-5,-5v-12a5,5,0,0,1,5,-5z" stroke-width="3"></path><g id="node_text5" fill="black"><text id="kity_text_57" text-rendering="inherit" font-size="12" dy=".8em" y="292.6999993547797" x="1042.500012151897">undo log</text></g></g><g id="minder_node6"><g id="node_expander5" style="cursor: pointer;"><path id="kity_path_68" fill="white" stroke="gray" d="M929.5000103786588,414.5000010803342A6,6,0,1,1,917.5000103786588,414.5000010803342A6,6,0,1,1,929.5000103786588,414.5000010803342"></path><path id="kity_path_69" fill="none" stroke="gray" d="M919.0000103786588,414.5000010803342L928.0000103786588,414.5000010803342"></path></g><path id="node_outline6" fill="rgb(238, 243, 246)" stroke="rgb(115, 161, 191)" d="M933.5000107809901,401.5000010803342h109a3,3,0,0,1,3,3v20a3,3,0,0,1,-3,3h-109a3,3,0,0,1,-3,-3v-20a3,3,0,0,1,3,-3z" stroke-width="1"></path><g id="node_text6" fill="black"><text id="kity_text_65" text-rendering="inherit" font-size="14" dy=".8em" y="405.40000104904175" x="950.5000107809901">buffer pool</text></g></g><g id="minder_node8"><g id="node_expander7" style="cursor: pointer;"><path id="kity_path_84" fill="white" stroke="gray" d="M929.5000103786588,749.5000060722232A6,6,0,1,1,917.5000103786588,749.5000060722232A6,6,0,1,1,929.5000103786588,749.5000060722232"></path><path id="kity_path_85" fill="none" stroke="gray" d="M919.0000103786588,749.5000060722232L928.0000103786588,749.5000060722232"></path></g><path id="node_outline8" fill="rgb(238, 243, 246)" stroke="rgb(115, 161, 191)" d="M933.5000107809901,736.5000060722232h63a3,3,0,0,1,3,3v20a3,3,0,0,1,-3,3h-63a3,3,0,0,1,-3,-3v-20a3,3,0,0,1,3,-3z" stroke-width="1"></path><g id="node_text8" fill="black"><text id="kity_text_81" text-rendering="inherit" font-size="14" dy=".8em" y="740.4000060409307" x="950.5000107809901">索引</text></g></g><g id="minder_node9" opacity="1"><g id="node_expander8" style="cursor: pointer;"><path id="kity_path_92" fill="white" stroke="gray" d="M1125.5000132992864,840.5000074282289A6,6,0,1,1,1113.5000132992864,840.5000074282289A6,6,0,1,1,1125.5000132992864,840.5000074282289"></path><path id="kity_path_93" fill="none" stroke="gray" d="M1115.0000132992864,840.5000074282289L1124.0000132992864,840.5000074282289"></path></g><path id="node_outline9" fill="none" stroke="none" d="M1130.500013537705,829.5000074282289h58a5,5,0,0,1,5,5v12a5,5,0,0,1,-5,5h-58a5,5,0,0,1,-5,-5v-12a5,5,0,0,1,5,-5z" stroke-width="3"></path><g id="node_text9" fill="black"><text id="kity_text_89" text-rendering="inherit" font-size="12" dy=".8em" y="832.7000074014068" x="1135.500013537705">主键索引</text></g></g><g id="minder_node10" opacity="1"><g id="node_expander9" style="cursor: pointer;"><path id="kity_path_100" fill="white" stroke="gray" d="M1125.5000132992864,892.5000082030892A6,6,0,1,1,1113.5000132992864,892.5000082030892A6,6,0,1,1,1125.5000132992864,892.5000082030892"></path><path id="kity_path_101" fill="none" stroke="gray" d="M1115.0000132992864,892.5000082030892L1124.0000132992864,892.5000082030892"></path></g><path id="node_outline10" fill="none" stroke="none" d="M1130.500013537705,881.5000082030892h70a5,5,0,0,1,5,5v12a5,5,0,0,1,-5,5h-70a5,5,0,0,1,-5,-5v-12a5,5,0,0,1,5,-5z" stroke-width="3"></path><g id="node_text10" fill="black"><text id="kity_text_97" text-rendering="inherit" font-size="12" dy=".8em" y="884.7000081762671" x="1135.500013537705">非主键索引</text></g></g><g id="minder_node11" opacity="1"><g id="node_expander10" style="cursor: pointer;"><path id="kity_path_108" fill="white" stroke="gray" d="M1125.5000132992864,970.5000093653798A6,6,0,1,1,1113.5000132992864,970.5000093653798A6,6,0,1,1,1125.5000132992864,970.5000093653798"></path><path id="kity_path_109" fill="none" stroke="gray" d="M1115.0000132992864,970.5000093653798L1124.0000132992864,970.5000093653798"></path></g><path id="node_outline11" fill="none" stroke="none" d="M1130.500013537705,959.5000093653798h58a5,5,0,0,1,5,5v12a5,5,0,0,1,-5,5h-58a5,5,0,0,1,-5,-5v-12a5,5,0,0,1,5,-5z" stroke-width="3"></path><g id="node_text11" fill="black"><text id="kity_text_105" text-rendering="inherit" font-size="12" dy=".8em" y="962.7000093385577" x="1135.500013537705">唯一索引</text></g></g><g id="minder_node12" opacity="1"><g id="node_expander11" style="cursor: pointer;" display="none"><path id="kity_path_116" fill="white" stroke="gray" d="M1125.5000132992864,1048.5000105276704A6,6,0,1,1,1113.5000132992864,1048.5000105276704A6,6,0,1,1,1125.5000132992864,1048.5000105276704"></path><path id="kity_path_117" fill="none" stroke="gray" d="M1115.0000132992864,1048.5000105276704L1124.0000132992864,1048.5000105276704"></path></g><path id="node_outline12" fill="none" stroke="none" d="M1130.500013537705,1037.5000105276704h70a5,5,0,0,1,5,5v12a5,5,0,0,1,-5,5h-70a5,5,0,0,1,-5,-5v-12a5,5,0,0,1,5,-5z" stroke-width="3"></path><g id="node_text12" fill="black"><text id="kity_text_113" text-rendering="inherit" font-size="12" dy=".8em" y="1040.7000105008483" x="1135.500013537705">非唯一索引</text></g></g><g id="minder_node13"><g id="node_expander12" style="cursor: pointer;"><path id="kity_path_124" fill="white" stroke="gray" d="M1039.5000120177865,554.5000031664968A6,6,0,1,1,1027.5000120177865,554.5000031664968A6,6,0,1,1,1039.5000120177865,554.5000031664968"></path><path id="kity_path_125" fill="none" stroke="gray" d="M1029.0000120177865,554.5000031664968L1038.0000120177865,554.5000031664968"></path></g><path id="node_outline13" fill="none" stroke="none" d="M1044.500012256205,543.5000031664968h59a5,5,0,0,1,5,5v12a5,5,0,0,1,-5,5h-59a5,5,0,0,1,-5,-5v-12a5,5,0,0,1,5,-5z" stroke-width="3"></path><g id="node_text13" fill="black"><text id="kity_text_121" text-rendering="inherit" font-size="12" dy=".8em" y="546.7000031396747" x="1049.500012256205">索引空洞</text></g></g><g id="minder_node14"><g id="node_expander13" style="cursor: pointer;"><path id="kity_path_132" fill="white" stroke="gray" d="M600.5000054761767,173.49999748915434A6,6,0,1,1,588.5000054761767,173.49999748915434A6,6,0,1,1,600.5000054761767,173.49999748915434"></path><path id="kity_path_133" fill="none" stroke="gray" d="M590.0000054761767,173.49999748915434L599.0000054761767,173.49999748915434"></path></g><path id="node_outline14" fill="rgb(238, 243, 246)" stroke="rgb(115, 161, 191)" d="M521.5000046417117,160.49999748915434h63a3,3,0,0,1,3,3v20a3,3,0,0,1,-3,3h-63a3,3,0,0,1,-3,-3v-20a3,3,0,0,1,3,-3z" stroke-width="1"></path><g id="node_text14" fill="black"><text id="kity_text_129" text-rendering="inherit" font-size="14" dy=".8em" y="164.3999974578619" x="538.5000046417117">事务</text></g></g><g id="minder_node15"><g id="node_expander14" style="cursor: pointer;"><path id="kity_path_140" fill="white" stroke="gray" d="M490.500003837049,108.49999652057886A6,6,0,1,1,478.500003837049,108.49999652057886A6,6,0,1,1,490.500003837049,108.49999652057886"></path><path id="kity_path_141" fill="none" stroke="gray" d="M480.000003837049,108.49999652057886L489.000003837049,108.49999652057886"></path></g><path id="node_outline15" fill="none" stroke="none" d="M415.5000028833747,97.49999652057886h58a5,5,0,0,1,5,5v12a5,5,0,0,1,-5,5h-58a5,5,0,0,1,-5,-5v-12a5,5,0,0,1,5,-5z" stroke-width="3"></path><g id="node_text15" fill="black"><text id="kity_text_137" text-rendering="inherit" font-size="12" dy=".8em" y="100.69999649375677" x="420.5000028833747">隔离级别</text></g></g><g id="minder_node16"><g id="node_expander15" style="cursor: pointer;"><path id="kity_path_148" fill="white" stroke="gray" d="M600.5000054761767,352.5000001564622A6,6,0,1,1,588.5000054761767,352.5000001564622A6,6,0,1,1,600.5000054761767,352.5000001564622"></path><path id="kity_path_149" fill="none" stroke="gray" d="M590.0000054761767,352.5000001564622L599.0000054761767,352.5000001564622"></path></g><path id="node_outline16" fill="rgb(238, 243, 246)" stroke="rgb(115, 161, 191)" d="M535.500004850328,339.5000001564622h49a3,3,0,0,1,3,3v20a3,3,0,0,1,-3,3h-49a3,3,0,0,1,-3,-3v-20a3,3,0,0,1,3,-3z" stroke-width="1"></path><g id="node_text16" fill="black"><text id="kity_text_145" text-rendering="inherit" font-size="14" dy=".8em" y="343.40000012516975" x="552.500004850328">锁</text></g></g><g id="minder_node17"><g id="node_expander16" style="cursor: pointer;"><path id="kity_path_156" fill="white" stroke="gray" d="M504.50000404566526,300.4999993816018A6,6,0,1,1,492.50000404566526,300.4999993816018A6,6,0,1,1,504.50000404566526,300.4999993816018"></path><path id="kity_path_157" fill="none" stroke="gray" d="M494.00000404566526,300.4999993816018L503.00000404566526,300.4999993816018"></path></g><path id="node_outline17" fill="none" stroke="none" d="M439.50000324100256,289.4999993816018h48a5,5,0,0,1,5,5v12a5,5,0,0,1,-5,5h-48a5,5,0,0,1,-5,-5v-12a5,5,0,0,1,5,-5z" stroke-width="3"></path><g id="node_text17" fill="black"><text id="kity_text_153" text-rendering="inherit" font-size="12" dy=".8em" y="292.6999993547797" x="444.50000324100256">全局锁</text></g></g><g id="minder_node18"><g id="node_expander17" style="cursor: pointer;"><path id="kity_path_164" fill="white" stroke="gray" d="M504.50000404566526,352.5000001564622A6,6,0,1,1,492.50000404566526,352.5000001564622A6,6,0,1,1,504.50000404566526,352.5000001564622"></path><path id="kity_path_165" fill="none" stroke="gray" d="M494.00000404566526,352.5000001564622L503.00000404566526,352.5000001564622"></path></g><path id="node_outline18" fill="none" stroke="none" d="M451.5000034198165,341.5000001564622h36a5,5,0,0,1,5,5v12a5,5,0,0,1,-5,5h-36a5,5,0,0,1,-5,-5v-12a5,5,0,0,1,5,-5z" stroke-width="3"></path><g id="node_text18" fill="black"><text id="kity_text_161" text-rendering="inherit" font-size="12" dy=".8em" y="344.7000001296401" x="456.5000034198165">表锁</text></g></g><g id="minder_node19"><g id="node_expander18" style="cursor: pointer;"><path id="kity_path_172" fill="white" stroke="gray" d="M504.50000404566526,404.5000009313226A6,6,0,1,1,492.50000404566526,404.5000009313226A6,6,0,1,1,504.50000404566526,404.5000009313226"></path><path id="kity_path_173" fill="none" stroke="gray" d="M494.00000404566526,404.5000009313226L503.00000404566526,404.5000009313226"></path></g><path id="node_outline19" fill="none" stroke="none" d="M451.5000034198165,393.5000009313226h36a5,5,0,0,1,5,5v12a5,5,0,0,1,-5,5h-36a5,5,0,0,1,-5,-5v-12a5,5,0,0,1,5,-5z" stroke-width="3"></path><g id="node_text19" fill="black"><text id="kity_text_169" text-rendering="inherit" font-size="12" dy=".8em" y="396.7000009045005" x="456.5000034198165">行锁</text></g></g><g id="minder_node21"><g id="node_expander20" style="cursor: pointer;"><path id="kity_path_188" fill="white" stroke="gray" d="M490.500003837049,238.49999845772982A6,6,0,1,1,478.500003837049,238.49999845772982A6,6,0,1,1,490.500003837049,238.49999845772982"></path><path id="kity_path_189" fill="none" stroke="gray" d="M480.000003837049,238.49999845772982L489.000003837049,238.49999845772982"></path></g><path id="node_outline21" fill="none" stroke="none" d="M378.5000023320317,227.49999845772982h95a5,5,0,0,1,5,5v12a5,5,0,0,1,-5,5h-95a5,5,0,0,1,-5,-5v-12a5,5,0,0,1,5,-5z" stroke-width="3"></path><g id="node_text21" fill="black"><text id="kity_text_185" text-rendering="inherit" font-size="12" dy=".8em" y="230.69999843090773" x="383.5000023320317">可重复读的实现</text></g></g><g id="minder_node22"><g id="node_expander21" style="cursor: pointer;"><path id="kity_path_196" fill="white" stroke="gray" d="M1039.5000120177865,710.5000054910779A6,6,0,1,1,1027.5000120177865,710.5000054910779A6,6,0,1,1,1039.5000120177865,710.5000054910779"></path><path id="kity_path_197" fill="none" stroke="gray" d="M1029.0000120177865,710.5000054910779L1038.0000120177865,710.5000054910779"></path></g><path id="node_outline22" fill="none" stroke="none" d="M1044.500012256205,699.5000054910779h119a5,5,0,0,1,5,5v12a5,5,0,0,1,-5,5h-119a5,5,0,0,1,-5,-5v-12a5,5,0,0,1,5,-5z" stroke-width="3"></path><g id="node_text22" fill="black"><text id="kity_text_193" text-rendering="inherit" font-size="12" dy=".8em" y="702.7000054642558" x="1049.500012256205">字符串加索引的方式</text></g></g><g id="minder_node23"><g id="node_expander22" style="cursor: pointer;"><path id="kity_path_204" fill="white" stroke="gray" d="M1039.5000120177865,944.5000089779496A6,6,0,1,1,1027.5000120177865,944.5000089779496A6,6,0,1,1,1039.5000120177865,944.5000089779496"></path><path id="kity_path_205" fill="none" stroke="gray" d="M1029.0000120177865,944.5000089779496L1038.0000120177865,944.5000089779496"></path></g><path id="node_outline23" fill="none" stroke="none" d="M1044.500012256205,933.5000089779496h36a5,5,0,0,1,5,5v12a5,5,0,0,1,-5,5h-36a5,5,0,0,1,-5,-5v-12a5,5,0,0,1,5,-5z" stroke-width="3"></path><g id="node_text23" fill="black"><text id="kity_text_201" text-rendering="inherit" font-size="12" dy=".8em" y="936.7000089511275" x="1049.500012256205">分类</text></g></g><g id="kity_g_12" display="none"><path id="kity_path_13" fill="none" stroke="rgb(66, 94, 112)" d="M1044.5000075176358,811.5000023320317h36a5,5,0,0,1,5,5v12a5,5,0,0,1,-5,5h-36a5,5,0,0,1,-5,-5v-12a5,5,0,0,1,5,-5z" stroke-width="5"></path></g><g id="minder_node24"><g id="node_expander23" style="cursor: pointer;" display="none"><path id="kity_path_212" fill="white" stroke="gray" d="M1233.5000149086118,840.5000074282289A6,6,0,1,1,1221.5000149086118,840.5000074282289A6,6,0,1,1,1233.5000149086118,840.5000074282289"></path><path id="kity_path_213" fill="none" stroke="gray"></path></g><path id="node_outline24" fill="none" stroke="none" d="M1238.5000151470304,829.5000074282289h131a5,5,0,0,1,5,5v12a5,5,0,0,1,-5,5h-131a5,5,0,0,1,-5,-5v-12a5,5,0,0,1,5,-5z" stroke-width="3"></path><g id="node_text24" fill="black"><text id="kity_text_209" text-rendering="inherit" font-size="12" dy=".8em" y="832.7000074014068" x="1243.5000151470304">叶子节点存储的是数据</text></g></g><g id="minder_node25"><g id="node_expander24" style="cursor: pointer;" display="none"><path id="kity_path_220" fill="white" stroke="gray" d="M1245.5000150874257,892.5000082030892A6,6,0,1,1,1233.5000150874257,892.5000082030892A6,6,0,1,1,1245.5000150874257,892.5000082030892"></path><path id="kity_path_221" fill="none" stroke="gray"></path></g><path id="node_outline25" fill="none" stroke="none" d="M1250.5000153258443,881.5000082030892h155a5,5,0,0,1,5,5v12a5,5,0,0,1,-5,5h-155a5,5,0,0,1,-5,-5v-12a5,5,0,0,1,5,-5z" stroke-width="3"></path><g id="node_text25" fill="black"><text id="kity_text_217" text-rendering="inherit" font-size="12" dy=".8em" y="884.7000081762671" x="1255.5000153258443">叶子节点存储的是主键的值</text></g></g><g id="minder_node26"><g id="node_expander25" style="cursor: pointer;" display="none"><path id="kity_path_228" fill="white" stroke="gray" d="M1233.5000149086118,996.50000975281A6,6,0,1,1,1221.5000149086118,996.50000975281A6,6,0,1,1,1233.5000149086118,996.50000975281"></path><path id="kity_path_229" fill="none" stroke="gray"></path></g><path id="node_outline26" fill="none" stroke="none" d="M1238.5000151470304,985.50000975281h371a5,5,0,0,1,5,5v12a5,5,0,0,1,-5,5h-371a5,5,0,0,1,-5,-5v-12a5,5,0,0,1,5,-5z" stroke-width="3"></path><g id="node_text26" fill="black"><text id="kity_text_225" text-rendering="inherit" font-size="12" dy=".8em" y="988.7000097259879" x="1243.5000151470304">劣势：插入时需要判等，所以每次插入时需要把所有值都取到内存中</text></g></g><g id="minder_node27"><g id="node_expander26" style="cursor: pointer;" display="none"><path id="kity_path_236" fill="white" stroke="gray" d="M1233.5000149086118,944.5000089779496A6,6,0,1,1,1221.5000149086118,944.5000089779496A6,6,0,1,1,1233.5000149086118,944.5000089779496"></path><path id="kity_path_237" fill="none" stroke="gray"></path></g><path id="node_outline27" fill="none" stroke="none" d="M1238.5000151470304,933.5000089779496h275a5,5,0,0,1,5,5v12a5,5,0,0,1,-5,5h-275a5,5,0,0,1,-5,-5v-12a5,5,0,0,1,5,-5z" stroke-width="3"></path><g id="node_text27" fill="black"><text id="kity_text_233" text-rendering="inherit" font-size="12" dy=".8em" y="936.7000089511275" x="1243.5000151470304">优势：扫描时不需要扫描下一个不满足条件的节点</text></g></g><g id="minder_node29"><g id="node_expander28" style="cursor: pointer;"><path id="kity_path_252" fill="white" stroke="gray" d="M1208.5000145360827,632.5000043287873A6,6,0,1,1,1196.5000145360827,632.5000043287873A6,6,0,1,1,1208.5000145360827,632.5000043287873"></path><path id="kity_path_253" fill="none" stroke="gray" d="M1198.0000145360827,632.5000043287873L1207.0000145360827,632.5000043287873"></path></g><path id="node_outline29" fill="none" stroke="none" d="M1213.5000147745013,621.5000043287873h58a5,5,0,0,1,5,5v12a5,5,0,0,1,-5,5h-58a5,5,0,0,1,-5,-5v-12a5,5,0,0,1,5,-5z" stroke-width="3"></path><g id="node_text29" fill="black"><text id="kity_text_249" text-rendering="inherit" font-size="12" dy=".8em" y="624.7000043019652" x="1218.5000147745013">完整索引</text></g></g><g id="minder_node30"><g id="node_expander29" style="cursor: pointer;"><path id="kity_path_260" fill="white" stroke="gray" d="M1208.5000145360827,684.5000051036477A6,6,0,1,1,1196.5000145360827,684.5000051036477A6,6,0,1,1,1208.5000145360827,684.5000051036477"></path><path id="kity_path_261" fill="none" stroke="gray" d="M1198.0000145360827,684.5000051036477L1207.0000145360827,684.5000051036477"></path></g><path id="node_outline30" fill="none" stroke="none" d="M1213.5000147745013,673.5000051036477h58a5,5,0,0,1,5,5v12a5,5,0,0,1,-5,5h-58a5,5,0,0,1,-5,-5v-12a5,5,0,0,1,5,-5z" stroke-width="3"></path><g id="node_text30" fill="black"><text id="kity_text_257" text-rendering="inherit" font-size="12" dy=".8em" y="676.7000050768256" x="1218.5000147745013">前缀索引</text></g></g><g id="minder_node31"><g id="node_expander30" style="cursor: pointer;" display="none"><path id="kity_path_268" fill="white" stroke="gray" d="M1316.5000161454082,632.5000043287873A6,6,0,1,1,1304.5000161454082,632.5000043287873A6,6,0,1,1,1316.5000161454082,632.5000043287873"></path><path id="kity_path_269" fill="none" stroke="gray"></path></g><path id="node_outline31" fill="none" stroke="none" d="M1321.5000163838267,621.5000043287873h46a5,5,0,0,1,5,5v12a5,5,0,0,1,-5,5h-46a5,5,0,0,1,-5,-5v-12a5,5,0,0,1,5,-5z" stroke-width="3"></path><g id="node_text31" fill="black"><text id="kity_text_265" text-rendering="inherit" font-size="12" dy=".8em" y="624.7000043019652" x="1326.5000163838267">占空间</text></g></g><g id="minder_node32"><g id="node_expander31" style="cursor: pointer;" display="none"><path id="kity_path_276" fill="white" stroke="gray" d="M1316.5000161454082,684.5000051036477A6,6,0,1,1,1304.5000161454082,684.5000051036477A6,6,0,1,1,1316.5000161454082,684.5000051036477"></path><path id="kity_path_277" fill="none" stroke="gray"></path></g><path id="node_outline32" fill="none" stroke="none" d="M1321.5000163838267,673.5000051036477h215a5,5,0,0,1,5,5v12a5,5,0,0,1,-5,5h-215a5,5,0,0,1,-5,-5v-12a5,5,0,0,1,5,-5z" stroke-width="3"></path><g id="node_text32" fill="black"><text id="kity_text_273" text-rendering="inherit" font-size="12" dy=".8em" y="676.7000050768256" x="1326.5000163838267">解决占空间的问题，但是会损失区分度</text></g></g><g id="minder_node33"><g id="node_expander32" style="cursor: pointer;"><path id="kity_path_284" fill="white" stroke="gray" d="M1208.5000145360827,736.5000058785081A6,6,0,1,1,1196.5000145360827,736.5000058785081A6,6,0,1,1,1208.5000145360827,736.5000058785081"></path><path id="kity_path_285" fill="none" stroke="gray" d="M1198.0000145360827,736.5000058785081L1207.0000145360827,736.5000058785081"></path></g><path id="node_outline33" fill="none" stroke="none" d="M1213.5000147745013,725.5000058785081h59a5,5,0,0,1,5,5v12a5,5,0,0,1,-5,5h-59a5,5,0,0,1,-5,-5v-12a5,5,0,0,1,5,-5z" stroke-width="3"></path><g id="node_text33" fill="black"><text id="kity_text_281" text-rendering="inherit" font-size="12" dy=".8em" y="728.700005851686" x="1218.5000147745013">倒序索引</text></g></g><g id="minder_node34"><g id="node_expander33" style="cursor: pointer;" display="none"><path id="kity_path_292" fill="white" stroke="gray" d="M1317.5000161603093,736.5000058785081A6,6,0,1,1,1305.5000161603093,736.5000058785081A6,6,0,1,1,1317.5000161603093,736.5000058785081"></path><path id="kity_path_293" fill="none" stroke="gray"></path></g><path id="node_outline34" fill="none" stroke="none" d="M1322.500016398728,725.5000058785081h312a5,5,0,0,1,5,5v12a5,5,0,0,1,-5,5h-312a5,5,0,0,1,-5,-5v-12a5,5,0,0,1,5,-5z" stroke-width="3"></path><g id="node_text34" fill="black"><text id="kity_text_289" text-rendering="inherit" font-size="12" dy=".8em" y="728.700005851686" x="1327.500016398728">解决字符串前缀区分度不够的问题；但是不支持范围扫描</text></g></g><g id="minder_node35"><g id="node_expander34" style="cursor: pointer;"><path id="kity_path_300" fill="white" stroke="gray" d="M1208.5000145360827,788.5000066533685A6,6,0,1,1,1196.5000145360827,788.5000066533685A6,6,0,1,1,1208.5000145360827,788.5000066533685"></path><path id="kity_path_301" fill="none" stroke="gray" d="M1198.0000145360827,788.5000066533685L1207.0000145360827,788.5000066533685"></path></g><path id="node_outline35" fill="none" stroke="none" d="M1213.5000147745013,777.5000066533685h61a5,5,0,0,1,5,5v12a5,5,0,0,1,-5,5h-61a5,5,0,0,1,-5,-5v-12a5,5,0,0,1,5,-5z" stroke-width="3"></path><g id="node_text35" fill="black"><text id="kity_text_297" text-rendering="inherit" font-size="12" dy=".8em" y="780.7000066265464" x="1218.5000147745013">hash索引</text></g></g><g id="minder_node36"><g id="node_expander35" style="cursor: pointer;" display="none"><path id="kity_path_308" fill="white" stroke="gray" d="M1319.5000161901116,788.5000066533685A6,6,0,1,1,1307.5000161901116,788.5000066533685A6,6,0,1,1,1319.5000161901116,788.5000066533685"></path><path id="kity_path_309" fill="none" stroke="gray"></path></g><path id="node_outline36" fill="none" stroke="none" d="M1324.5000164285302,777.5000066533685h168a5,5,0,0,1,5,5v12a5,5,0,0,1,-5,5h-168a5,5,0,0,1,-5,-5v-12a5,5,0,0,1,5,-5z" stroke-width="3"></path><g id="node_text36" fill="black"><text id="kity_text_305" text-rendering="inherit" font-size="12" dy=".8em" y="780.7000066265464" x="1329.5000164285302">性能稳定；也不支持范围扫描</text></g></g><g id="minder_node37"><g id="node_expander36" style="cursor: pointer;" display="none"><path id="kity_path_316" fill="white" stroke="gray" d="M1129.500013358891,196.49999783188105A6,6,0,1,1,1117.500013358891,196.49999783188105A6,6,0,1,1,1129.500013358891,196.49999783188105"></path><path id="kity_path_317" fill="none" stroke="gray"></path></g><path id="node_outline37" fill="none" stroke="none" d="M1134.5000135973096,185.49999783188105h399a5,5,0,0,1,5,5v12a5,5,0,0,1,-5,5h-399a5,5,0,0,1,-5,-5v-12a5,5,0,0,1,5,-5z" stroke-width="3"></path><g id="node_text37" fill="black"><text id="kity_text_313" text-rendering="inherit" font-size="12" dy=".8em" y="188.69999780505896" x="1139.5000135973096">server层的逻辑日志，用于主从同步等；格式为statement、row、mixed</text></g></g><g id="minder_node38"><g id="node_expander37" style="cursor: pointer;" display="none"><path id="kity_path_324" fill="white" stroke="gray" d="M1141.500013537705,248.49999860674143A6,6,0,1,1,1129.500013537705,248.49999860674143A6,6,0,1,1,1141.500013537705,248.49999860674143"></path><path id="kity_path_325" fill="none" stroke="gray"></path></g><path id="node_outline38" fill="none" stroke="none" d="M1146.5000137761235,237.49999860674143h454a5,5,0,0,1,5,5v12a5,5,0,0,1,-5,5h-454a5,5,0,0,1,-5,-5v-12a5,5,0,0,1,5,-5z" stroke-width="3"></path><g id="node_text38" fill="black"><text id="kity_text_321" text-rendering="inherit" font-size="12" dy=".8em" y="240.69999857991934" x="1151.5000137761235">innodb的物理日志，用于waf、crash-safe；和binlog用x_id定位，两阶段提交配合</text></g></g><g id="minder_node39"><g id="node_expander38" style="cursor: pointer;" display="none"><path id="kity_path_332" fill="white" stroke="gray" d="M1144.5000135824084,300.4999993816018A6,6,0,1,1,1132.5000135824084,300.4999993816018A6,6,0,1,1,1144.5000135824084,300.4999993816018"></path><path id="kity_path_333" fill="none" stroke="gray"></path></g><path id="node_outline39" fill="none" stroke="none" d="M1149.500013820827,289.4999993816018h266a5,5,0,0,1,5,5v12a5,5,0,0,1,-5,5h-266a5,5,0,0,1,-5,-5v-12a5,5,0,0,1,5,-5z" stroke-width="3"></path><g id="node_text39" fill="black"><text id="kity_text_329" text-rendering="inherit" font-size="12" dy=".8em" y="292.6999993547797" x="1154.500013820827">用于实现MVCC，实现RR隔离级别的数据多版本</text></g></g><g id="minder_node40"><g id="node_expander39" style="cursor: pointer;" display="none"><path id="kity_path_340" fill="white" stroke="gray" d="M382.5000022277236,30.499995358288288A6,6,0,1,1,370.5000022277236,30.499995358288288A6,6,0,1,1,382.5000022277236,30.499995358288288"></path><path id="kity_path_341" fill="none" stroke="gray"></path></g><path id="node_outline40" fill="none" stroke="none" d="M306.5000012591481,19.499995358288288h59a5,5,0,0,1,5,5v12a5,5,0,0,1,-5,5h-59a5,5,0,0,1,-5,-5v-12a5,5,0,0,1,5,-5z" stroke-width="3"></path><g id="node_text40" fill="black"><text id="kity_text_337" text-rendering="inherit" font-size="12" dy=".8em" y="22.699995331466198" x="311.5000012591481">读未提交</text></g></g><g id="minder_node41"><g id="node_expander40" style="cursor: pointer;"><path id="kity_path_348" fill="white" stroke="gray" d="M382.5000022277236,82.49999613314867A6,6,0,1,1,370.5000022277236,82.49999613314867A6,6,0,1,1,382.5000022277236,82.49999613314867"></path><path id="kity_path_349" fill="none" stroke="gray" d="M372.0000022277236,82.49999613314867L381.0000022277236,82.49999613314867"></path></g><path id="node_outline41" fill="none" stroke="none" d="M318.50000143796206,71.49999613314867h47a5,5,0,0,1,5,5v12a5,5,0,0,1,-5,5h-47a5,5,0,0,1,-5,-5v-12a5,5,0,0,1,5,-5z" stroke-width="3"></path><g id="node_text41" fill="black"><text id="kity_text_345" text-rendering="inherit" font-size="12" dy=".8em" y="74.69999610632658" x="323.50000143796206">读提交</text></g></g><g id="minder_node42"><g id="node_expander41" style="cursor: pointer;" display="none"><path id="kity_path_356" fill="white" stroke="gray" d="M285.50000078231096,82.49999613314867A6,6,0,1,1,273.50000078231096,82.49999613314867A6,6,0,1,1,285.50000078231096,82.49999613314867"></path><path id="kity_path_357" fill="none" stroke="gray"></path></g><path id="node_outline42" fill="none" stroke="none" d="M209.49999981373549,71.49999613314867h59a5,5,0,0,1,5,5v12a5,5,0,0,1,-5,5h-59a5,5,0,0,1,-5,-5v-12a5,5,0,0,1,5,-5z" stroke-width="3"></path><g id="node_text42" fill="black"><text id="kity_text_353" text-rendering="inherit" font-size="12" dy=".8em" y="74.69999610632658" x="214.49999981373549">解决脏读</text></g></g><g id="minder_node43"><g id="node_expander42" style="cursor: pointer;"><path id="kity_path_364" fill="white" stroke="gray" d="M382.5000022277236,134.49999690800905A6,6,0,1,1,370.5000022277236,134.49999690800905A6,6,0,1,1,382.5000022277236,134.49999690800905"></path><path id="kity_path_365" fill="none" stroke="gray" d="M372.0000022277236,134.49999690800905L381.0000022277236,134.49999690800905"></path></g><path id="node_outline43" fill="none" stroke="none" d="M307.5000012740493,123.49999690800905h58a5,5,0,0,1,5,5v12a5,5,0,0,1,-5,5h-58a5,5,0,0,1,-5,-5v-12a5,5,0,0,1,5,-5z" stroke-width="3"></path><g id="node_text43" fill="black"><text id="kity_text_361" text-rendering="inherit" font-size="12" dy=".8em" y="126.69999688118696" x="312.5000012740493">可重复读</text></g></g><g id="minder_node44"><g id="node_expander43" style="cursor: pointer;" display="none"><path id="kity_path_372" fill="white" stroke="gray" d="M274.5000006183982,134.49999690800905A6,6,0,1,1,262.5000006183982,134.49999690800905A6,6,0,1,1,274.5000006183982,134.49999690800905"></path><path id="kity_path_373" fill="none" stroke="gray"></path></g><path id="node_outline44" fill="none" stroke="none" d="M162.4999991133809,123.49999690800905h95a5,5,0,0,1,5,5v12a5,5,0,0,1,-5,5h-95a5,5,0,0,1,-5,-5v-12a5,5,0,0,1,5,-5z" stroke-width="3"></path><g id="node_text44" fill="black"><text id="kity_text_369" text-rendering="inherit" font-size="12" dy=".8em" y="126.69999688118696" x="167.4999991133809">解决不可重复读</text></g></g><g id="minder_node45"><g id="node_expander44" style="cursor: pointer;"><path id="kity_path_380" fill="white" stroke="gray" d="M382.5000022277236,186.49999768286943A6,6,0,1,1,370.5000022277236,186.49999768286943A6,6,0,1,1,382.5000022277236,186.49999768286943"></path><path id="kity_path_381" fill="none" stroke="gray" d="M372.0000022277236,186.49999768286943L381.0000022277236,186.49999768286943"></path></g><path id="node_outline45" fill="none" stroke="none" d="M330.500001616776,175.49999768286943h35a5,5,0,0,1,5,5v12a5,5,0,0,1,-5,5h-35a5,5,0,0,1,-5,-5v-12a5,5,0,0,1,5,-5z" stroke-width="3"></path><g id="node_text45" fill="black"><text id="kity_text_377" text-rendering="inherit" font-size="12" dy=".8em" y="178.69999765604734" x="335.500001616776">串行</text></g></g><g id="minder_node46"><g id="node_expander45" style="cursor: pointer;" display="none"><path id="kity_path_388" fill="white" stroke="gray" d="M297.5000009611249,186.49999768286943A6,6,0,1,1,285.5000009611249,186.49999768286943A6,6,0,1,1,297.5000009611249,186.49999768286943"></path><path id="kity_path_389" fill="none" stroke="gray"></path></g><path id="node_outline46" fill="none" stroke="none" d="M221.49999999254942,175.49999768286943h59a5,5,0,0,1,5,5v12a5,5,0,0,1,-5,5h-59a5,5,0,0,1,-5,-5v-12a5,5,0,0,1,5,-5z" stroke-width="3"></path><g id="node_text46" fill="black"><text id="kity_text_385" text-rendering="inherit" font-size="12" dy=".8em" y="178.69999765604734" x="226.49999999254942">解决幻读</text></g></g><g id="minder_node47"><g id="node_expander46" style="cursor: pointer;" display="none"><path id="kity_path_396" fill="white" stroke="gray" d="M345.50000167638063,238.49999845772982A6,6,0,1,1,333.50000167638063,238.49999845772982A6,6,0,1,1,345.50000167638063,238.49999845772982"></path><path id="kity_path_397" fill="none" stroke="gray"></path></g><path id="node_outline47" fill="none" stroke="none" d="M218.49999994784594,227.49999845772982h110a5,5,0,0,1,5,5v12a5,5,0,0,1,-5,5h-110a5,5,0,0,1,-5,-5v-12a5,5,0,0,1,5,-5z" stroke-width="3"></path><g id="node_text47" fill="black"><text id="kity_text_393" text-rendering="inherit" font-size="12" dy=".8em" y="230.69999843090773" x="223.49999994784594">trx_id + undo log</text></g></g><g id="minder_node48"><g id="node_expander47" style="cursor: pointer;" display="none"><path id="kity_path_404" fill="white" stroke="gray" d="M406.50000258535147,300.4999993816018A6,6,0,1,1,394.50000258535147,300.4999993816018A6,6,0,1,1,406.50000258535147,300.4999993816018"></path><path id="kity_path_405" fill="none" stroke="gray"></path></g><path id="node_outline48" fill="none" stroke="none" d="M198.4999996498227,289.4999993816018h191a5,5,0,0,1,5,5v12a5,5,0,0,1,-5,5h-191a5,5,0,0,1,-5,-5v-12a5,5,0,0,1,5,-5z" stroke-width="3"></path><g id="node_text48" fill="black"><text id="kity_text_401" text-rendering="inherit" font-size="12" dy=".8em" y="292.6999993547797" x="203.4999996498227">用于给不支持事务的引擎备份数据</text></g></g><g id="minder_node49"><g id="node_expander48" style="cursor: pointer;" display="none"><path id="kity_path_412" fill="white" stroke="gray" d="M418.5000027641654,404.5000009313226A6,6,0,1,1,406.5000027641654,404.5000009313226A6,6,0,1,1,418.5000027641654,404.5000009313226"></path><path id="kity_path_413" fill="none" stroke="gray"></path></g><path id="node_outline49" fill="none" stroke="none" d="M152.4999989643693,393.5000009313226h249a5,5,0,0,1,5,5v12a5,5,0,0,1,-5,5h-249a5,5,0,0,1,-5,-5v-12a5,5,0,0,1,5,-5z" stroke-width="3"></path><g id="node_text49" fill="black"><text id="kity_text_409" text-rendering="inherit" font-size="12" dy=".8em" y="396.7000009045005" x="157.4999989643693">两个“原则”、两个“优化”和一个“bug”</text></g></g><g id="minder_node50"><g id="node_expander49" style="cursor: pointer;" display="none"><path id="kity_path_420" fill="white" stroke="gray" d="M418.5000027641654,352.5000001564622A6,6,0,1,1,406.5000027641654,352.5000001564622A6,6,0,1,1,418.5000027641654,352.5000001564622"></path><path id="kity_path_421" fill="none" stroke="gray"></path></g><path id="node_outline50" fill="none" stroke="none" d="M161.49999909847975,341.5000001564622h240a5,5,0,0,1,5,5v12a5,5,0,0,1,-5,5h-240a5,5,0,0,1,-5,-5v-12a5,5,0,0,1,5,-5z" stroke-width="3"></path><g id="node_text50" fill="black"><text id="kity_text_417" text-rendering="inherit" font-size="12" dy=".8em" y="344.7000001296401" x="166.49999909847975">语句没有用到索引时，会锁表，要尽力避免</text></g></g><g id="minder_node51"><g id="node_expander50" style="cursor: pointer;"><path id="kity_path_428" fill="white" stroke="gray" d="M600.5000054761767,823.5000071749091A6,6,0,1,1,588.5000054761767,823.5000071749091A6,6,0,1,1,600.5000054761767,823.5000071749091"></path><path id="kity_path_429" fill="none" stroke="gray" d="M590.0000054761767,823.5000071749091L599.0000054761767,823.5000071749091"></path></g><path id="node_outline51" fill="rgb(238, 243, 246)" stroke="rgb(115, 161, 191)" d="M520.5000046268106,810.5000071749091h64a3,3,0,0,1,3,3v20a3,3,0,0,1,-3,3h-64a3,3,0,0,1,-3,-3v-20a3,3,0,0,1,3,-3z" stroke-width="1"></path><g id="node_text51" fill="black"><text id="kity_text_425" text-rendering="inherit" font-size="14" dy=".8em" y="814.4000071436167" x="537.5000046268106">集群</text></g></g><g id="minder_node52"><g id="node_expander51" style="cursor: pointer;"><path id="kity_path_436" fill="white" stroke="gray" d="M489.50000382214785,557.5000032112002A6,6,0,1,1,477.50000382214785,557.5000032112002A6,6,0,1,1,489.50000382214785,557.5000032112002"></path><path id="kity_path_437" fill="none" stroke="gray" d="M479.00000382214785,557.5000032112002L488.00000382214785,557.5000032112002"></path></g><path id="node_outline52" fill="none" stroke="none" d="M438.5000032261014,546.5000032112002h34a5,5,0,0,1,5,5v12a5,5,0,0,1,-5,5h-34a5,5,0,0,1,-5,-5v-12a5,5,0,0,1,5,-5z" stroke-width="3"></path><g id="node_text52" fill="black"><text id="kity_text_433" text-rendering="inherit" font-size="12" dy=".8em" y="549.7000031843781" x="443.5000032261014">同步</text></g></g><g id="minder_node53"><g id="node_expander52" style="cursor: pointer;"><path id="kity_path_444" fill="white" stroke="gray" d="M405.5000025704503,557.5000032112002A6,6,0,1,1,393.5000025704503,557.5000032112002A6,6,0,1,1,405.5000025704503,557.5000032112002"></path><path id="kity_path_445" fill="none" stroke="gray" d="M395.0000025704503,557.5000032112002L404.0000025704503,557.5000032112002"></path></g><path id="node_outline53" fill="none" stroke="none" d="M316.50000140815973,546.5000032112002h72a5,5,0,0,1,5,5v12a5,5,0,0,1,-5,5h-72a5,5,0,0,1,-5,-5v-12a5,5,0,0,1,5,-5z" stroke-width="3"></path><g id="node_text53" fill="black"><text id="kity_text_441" text-rendering="inherit" font-size="12" dy=".8em" y="549.7000031843781" x="321.50000140815973">重放binlog</text></g></g><g id="minder_node54"><g id="node_expander53" style="cursor: pointer;" display="none"><path id="kity_path_452" fill="white" stroke="gray" d="M283.50000075250864,466.50000185519457A6,6,0,1,1,271.50000075250864,466.50000185519457A6,6,0,1,1,283.50000075250864,466.50000185519457"></path><path id="kity_path_453" fill="none" stroke="gray"></path></g><path id="node_outline54" fill="none" stroke="none" d="M172.49999926239252,455.50000185519457h94a5,5,0,0,1,5,5v12a5,5,0,0,1,-5,5h-94a5,5,0,0,1,-5,-5v-12a5,5,0,0,1,5,-5z" stroke-width="3"></path><g id="node_text54" fill="black"><text id="kity_text_449" text-rendering="inherit" font-size="12" dy=".8em" y="458.7000018283725" x="177.49999926239252">时间戳保证顺序</text></g></g><g id="minder_node55"><g id="node_expander54" style="cursor: pointer;" display="none"><path id="kity_path_460" fill="white" stroke="gray" d="M283.50000075250864,518.500002630055A6,6,0,1,1,271.50000075250864,518.500002630055A6,6,0,1,1,283.50000075250864,518.500002630055"></path><path id="kity_path_461" fill="none" stroke="gray"></path></g><path id="node_outline55" fill="none" stroke="none" d="M145.49999886006117,507.50000263005495h121a5,5,0,0,1,5,5v12a5,5,0,0,1,-5,5h-121a5,5,0,0,1,-5,-5v-12a5,5,0,0,1,5,-5z" stroke-width="3"></path><g id="node_text55" fill="black"><text id="kity_text_457" text-rendering="inherit" font-size="12" dy=".8em" y="510.70000260323286" x="150.49999886006117">server_id避免循环写</text></g></g><g id="minder_node56"><g id="node_expander55" style="cursor: pointer;"><path id="kity_path_468" fill="white" stroke="gray" d="M283.50000075250864,648.5000045672059A6,6,0,1,1,271.50000075250864,648.5000045672059A6,6,0,1,1,283.50000075250864,648.5000045672059"></path><path id="kity_path_469" fill="none" stroke="gray" d="M273.00000075250864,648.5000045672059L282.00000075250864,648.5000045672059"></path></g><path id="node_outline56" fill="none" stroke="none" d="M134.4999986961484,637.5000045672059h132a5,5,0,0,1,5,5v12a5,5,0,0,1,-5,5h-132a5,5,0,0,1,-5,-5v-12a5,5,0,0,1,5,-5z" stroke-width="3"></path><g id="node_text56" fill="black"><text id="kity_text_465" text-rendering="inherit" font-size="12" dy=".8em" y="640.7000045403838" x="139.4999986961484">并行写入降低主从延迟</text></g></g><g id="minder_node57"><g id="node_expander56" style="cursor: pointer;" display="none"><path id="kity_path_476" fill="white" stroke="gray" d="M101.4999980404973,570.5000034049153A6,6,0,1,1,89.4999980404973,570.5000034049153A6,6,0,1,1,101.4999980404973,570.5000034049153"></path><path id="kity_path_477" fill="none" stroke="gray"></path></g><path id="node_outline57" fill="none" stroke="none" d="M24.499997057020664,559.5000034049153h60a5,5,0,0,1,5,5v12a5,5,0,0,1,-5,5h-60a5,5,0,0,1,-5,-5v-12a5,5,0,0,1,5,-5z" stroke-width="3"></path><g id="node_text57" fill="black"><text id="kity_text_473" text-rendering="inherit" font-size="12" dy=".8em" y="562.7000033780932" x="29.499997057020664">按库分发</text></g></g><g id="minder_node58"><g id="node_expander57" style="cursor: pointer;"><path id="kity_path_484" fill="white" stroke="gray" d="M489.50000382214785,856.5000076666474A6,6,0,1,1,477.50000382214785,856.5000076666474A6,6,0,1,1,489.50000382214785,856.5000076666474"></path><path id="kity_path_485" fill="none" stroke="gray" d="M479.00000382214785,856.5000076666474L488.00000382214785,856.5000076666474"></path></g><path id="node_outline58" fill="none" stroke="none" d="M437.50000321120024,845.5000076666474h35a5,5,0,0,1,5,5v12a5,5,0,0,1,-5,5h-35a5,5,0,0,1,-5,-5v-12a5,5,0,0,1,5,-5z" stroke-width="3"></path><g id="node_text58" fill="black"><text id="kity_text_481" text-rendering="inherit" font-size="12" dy=".8em" y="848.7000076398253" x="442.50000321120024">切换</text></g></g><g id="minder_node59"><g id="node_expander58" style="cursor: pointer;"><path id="kity_path_492" fill="white" stroke="gray" d="M404.50000255554914,804.500006891787A6,6,0,1,1,392.50000255554914,804.500006891787A6,6,0,1,1,404.50000255554914,804.500006891787"></path><path id="kity_path_493" fill="none" stroke="gray" d="M394.00000255554914,804.500006891787L403.00000255554914,804.500006891787"></path></g><path id="node_outline59" fill="none" stroke="none" d="M327.5000015720725,793.500006891787h60a5,5,0,0,1,5,5v12a5,5,0,0,1,-5,5h-60a5,5,0,0,1,-5,-5v-12a5,5,0,0,1,5,-5z" stroke-width="3"></path><g id="node_text59" fill="black"><text id="kity_text_489" text-rendering="inherit" font-size="12" dy=".8em" y="796.700006864965" x="332.5000015720725">从哪继续</text></g></g><g id="minder_node60"><g id="node_expander59" style="cursor: pointer;" display="none"><path id="kity_path_500" fill="white" stroke="gray" d="M294.5000009164214,778.5000065043569A6,6,0,1,1,282.5000009164214,778.5000065043569A6,6,0,1,1,294.5000009164214,778.5000065043569"></path><path id="kity_path_501" fill="none" stroke="gray"></path></g><path id="node_outline60" fill="none" stroke="none" d="M219.4999999627471,767.5000065043569h58a5,5,0,0,1,5,5v12a5,5,0,0,1,-5,5h-58a5,5,0,0,1,-5,-5v-12a5,5,0,0,1,5,-5z" stroke-width="3"></path><g id="node_text60" fill="black"><text id="kity_text_497" text-rendering="inherit" font-size="12" dy=".8em" y="770.7000064775348" x="224.4999999627471">日志位点</text></g></g><g id="minder_node61"><g id="node_expander60" style="cursor: pointer;" display="none"><path id="kity_path_508" fill="white" stroke="gray" d="M294.5000009164214,830.5000072792172A6,6,0,1,1,282.5000009164214,830.5000072792172A6,6,0,1,1,294.5000009164214,830.5000072792172"></path><path id="kity_path_509" fill="none" stroke="gray"></path></g><path id="node_outline61" fill="none" stroke="none" d="M239.50000026077032,819.5000072792172h38a5,5,0,0,1,5,5v12a5,5,0,0,1,-5,5h-38a5,5,0,0,1,-5,-5v-12a5,5,0,0,1,5,-5z" stroke-width="3"></path><g id="node_text61" fill="black"><text id="kity_text_505" text-rendering="inherit" font-size="12" dy=".8em" y="822.7000072523952" x="244.50000026077032">GTID</text></g></g><g id="minder_node62"><g id="node_expander61" style="cursor: pointer;"><path id="kity_path_516" fill="white" stroke="gray" d="M489.50000382214785,1090.5000111535192A6,6,0,1,1,477.50000382214785,1090.5000111535192A6,6,0,1,1,489.50000382214785,1090.5000111535192"></path><path id="kity_path_517" fill="none" stroke="gray" d="M479.00000382214785,1090.5000111535192L488.00000382214785,1090.5000111535192"></path></g><path id="node_outline62" fill="none" stroke="none" d="M413.50000285357237,1079.5000111535192h59a5,5,0,0,1,5,5v12a5,5,0,0,1,-5,5h-59a5,5,0,0,1,-5,-5v-12a5,5,0,0,1,5,-5z" stroke-width="3"></path><g id="node_text62" fill="black"><text id="kity_text_513" text-rendering="inherit" font-size="12" dy=".8em" y="1082.700011126697" x="418.50000285357237">读写分离</text></g></g><g id="minder_node63"><g id="node_expander62" style="cursor: pointer;" display="none"><path id="kity_path_524" fill="white" stroke="gray" d="M380.5000021979213,986.5000096037984A6,6,0,1,1,368.5000021979213,986.5000096037984A6,6,0,1,1,380.5000021979213,986.5000096037984"></path><path id="kity_path_525" fill="none" stroke="gray"></path></g><path id="node_outline63" fill="none" stroke="none" d="M245.5000003501773,975.5000096037984h118a5,5,0,0,1,5,5v12a5,5,0,0,1,-5,5h-118a5,5,0,0,1,-5,-5v-12a5,5,0,0,1,5,-5z" stroke-width="3"></path><g id="node_text63" fill="black"><text id="kity_text_521" text-rendering="inherit" font-size="12" dy=".8em" y="978.7000095769763" x="250.5000003501773">需要最新强制走主库 </text></g></g><g id="minder_node64"><g id="node_expander63" style="cursor: pointer;" display="none"><path id="kity_path_532" fill="white" stroke="gray" d="M380.5000021979213,1038.5000103786588A6,6,0,1,1,368.5000021979213,1038.5000103786588A6,6,0,1,1,380.5000021979213,1038.5000103786588"></path><path id="kity_path_533" fill="none" stroke="gray"></path></g><path id="node_outline64" fill="none" stroke="none" d="M287.50000097602606,1027.5000103786588h76a5,5,0,0,1,5,5v12a5,5,0,0,1,-5,5h-76a5,5,0,0,1,-5,-5v-12a5,5,0,0,1,5,-5z" stroke-width="3"></path><g id="node_text64" fill="black"><text id="kity_text_529" text-rendering="inherit" font-size="12" dy=".8em" y="1030.7000103518367" x="292.50000097602606">sleep等同步</text></g></g><g id="minder_node65"><g id="node_expander64" style="cursor: pointer;" display="none"><path id="kity_path_540" fill="white" stroke="gray" d="M380.5000021979213,1090.5000111535192A6,6,0,1,1,368.5000021979213,1090.5000111535192A6,6,0,1,1,380.5000021979213,1090.5000111535192"></path><path id="kity_path_541" fill="none" stroke="gray"></path></g><path id="node_outline65" fill="none" stroke="none" d="M268.500000692904,1079.5000111535192h95a5,5,0,0,1,5,5v12a5,5,0,0,1,-5,5h-95a5,5,0,0,1,-5,-5v-12a5,5,0,0,1,5,-5z" stroke-width="3"></path><g id="node_text65" fill="black"><text id="kity_text_537" text-rendering="inherit" font-size="12" dy=".8em" y="1082.700011126697" x="273.500000692904">判断主备无延迟</text></g></g><g id="minder_node66"><g id="node_expander65" style="cursor: pointer;" display="none"><path id="kity_path_548" fill="white" stroke="gray" d="M380.5000021979213,1142.5000119283795A6,6,0,1,1,368.5000021979213,1142.5000119283795A6,6,0,1,1,380.5000021979213,1142.5000119283795"></path><path id="kity_path_549" fill="none" stroke="gray"></path></g><path id="node_outline66" fill="none" stroke="none" d="M292.50000105053186,1131.5000119283795h71a5,5,0,0,1,5,5v12a5,5,0,0,1,-5,5h-71a5,5,0,0,1,-5,-5v-12a5,5,0,0,1,5,-5z" stroke-width="3"></path><g id="node_text66" fill="black"><text id="kity_text_545" text-rendering="inherit" font-size="12" dy=".8em" y="1134.7000119015574" x="297.50000105053186">等主库位点</text></g></g><g id="minder_node67"><g id="node_expander66" style="cursor: pointer;" display="none"><path id="kity_path_556" fill="white" stroke="gray" d="M380.5000021979213,1194.50001270324A6,6,0,1,1,368.5000021979213,1194.50001270324A6,6,0,1,1,380.5000021979213,1194.50001270324"></path><path id="kity_path_557" fill="none" stroke="gray"></path></g><path id="node_outline67" fill="none" stroke="none" d="M288.5000009909272,1183.50001270324h75a5,5,0,0,1,5,5v12a5,5,0,0,1,-5,5h-75a5,5,0,0,1,-5,-5v-12a5,5,0,0,1,5,-5z" stroke-width="3"></path><g id="node_text67" fill="black"><text id="kity_text_553" text-rendering="inherit" font-size="12" dy=".8em" y="1186.7000126764178" x="293.5000009909272">等主库GTID</text></g></g><g id="minder_node68"><g id="node_expander67" style="cursor: pointer;"><path id="kity_path_564" fill="white" stroke="gray" d="M404.50000255554914,908.5000084415078A6,6,0,1,1,392.50000255554914,908.5000084415078A6,6,0,1,1,404.50000255554914,908.5000084415078"></path><path id="kity_path_565" fill="none" stroke="gray" d="M394.00000255554914,908.5000084415078L403.00000255554914,908.5000084415078"></path></g><path id="node_outline68" fill="none" stroke="none" d="M351.5000019297004,897.5000084415078h36a5,5,0,0,1,5,5v12a5,5,0,0,1,-5,5h-36a5,5,0,0,1,-5,-5v-12a5,5,0,0,1,5,-5z" stroke-width="3"></path><g id="node_text68" fill="black"><text id="kity_text_561" text-rendering="inherit" font-size="12" dy=".8em" y="900.7000084146857" x="356.5000019297004">策略</text></g></g><g id="minder_node69"><g id="node_expander68" style="cursor: pointer;" display="none"><path id="kity_path_572" fill="white" stroke="gray" d="M318.5000012740493,882.5000080540776A6,6,0,1,1,306.5000012740493,882.5000080540776A6,6,0,1,1,318.5000012740493,882.5000080540776"></path><path id="kity_path_573" fill="none" stroke="gray"></path></g><path id="node_outline69" fill="none" stroke="none" d="M230.50000012665987,871.5000080540776h71a5,5,0,0,1,5,5v12a5,5,0,0,1,-5,5h-71a5,5,0,0,1,-5,-5v-12a5,5,0,0,1,5,-5z" stroke-width="3"></path><g id="node_text69" fill="black"><text id="kity_text_569" text-rendering="inherit" font-size="12" dy=".8em" y="874.7000080272555" x="235.50000012665987">可靠性优先</text></g></g><g id="minder_node70"><g id="node_expander69" style="cursor: pointer;" display="none"><path id="kity_path_580" fill="white" stroke="gray" d="M318.5000012740493,934.500008828938A6,6,0,1,1,306.5000012740493,934.500008828938A6,6,0,1,1,318.5000012740493,934.500008828938"></path><path id="kity_path_581" fill="none" stroke="gray"></path></g><path id="node_outline70" fill="none" stroke="none" d="M230.50000012665987,923.500008828938h71a5,5,0,0,1,5,5v12a5,5,0,0,1,-5,5h-71a5,5,0,0,1,-5,-5v-12a5,5,0,0,1,5,-5z" stroke-width="3"></path><g id="node_text70" fill="black"><text id="kity_text_577" text-rendering="inherit" font-size="12" dy=".8em" y="926.7000088021159" x="235.50000012665987">可用性优先</text></g></g><g id="minder_node71"><g id="node_expander70" style="cursor: pointer;" display="none"><path id="kity_path_588" fill="white" stroke="gray" d="M101.4999980404973,622.5000041797757A6,6,0,1,1,89.4999980404973,622.5000041797757A6,6,0,1,1,101.4999980404973,622.5000041797757"></path><path id="kity_path_589" fill="none" stroke="gray"></path></g><path id="node_outline71" fill="none" stroke="none" d="M24.499997057020664,611.5000041797757h60a5,5,0,0,1,5,5v12a5,5,0,0,1,-5,5h-60a5,5,0,0,1,-5,-5v-12a5,5,0,0,1,5,-5z" stroke-width="3"></path><g id="node_text71" fill="black"><text id="kity_text_585" text-rendering="inherit" font-size="12" dy=".8em" y="614.7000041529536" x="29.499997057020664">按表分发</text></g></g><g id="minder_node72"><g id="node_expander71" style="cursor: pointer;" display="none"><path id="kity_path_596" fill="white" stroke="gray" d="M101.4999980404973,674.5000049546361A6,6,0,1,1,89.4999980404973,674.5000049546361A6,6,0,1,1,101.4999980404973,674.5000049546361"></path><path id="kity_path_597" fill="none" stroke="gray"></path></g><path id="node_outline72" fill="none" stroke="none" d="M24.499997057020664,663.5000049546361h60a5,5,0,0,1,5,5v12a5,5,0,0,1,-5,5h-60a5,5,0,0,1,-5,-5v-12a5,5,0,0,1,5,-5z" stroke-width="3"></path><g id="node_text72" fill="black"><text id="kity_text_593" text-rendering="inherit" font-size="12" dy=".8em" y="666.700004927814" x="29.499997057020664">按行分发</text></g></g><g id="minder_node73"><g id="node_expander72" style="cursor: pointer;" display="none"><path id="kity_path_604" fill="white" stroke="gray" d="M101.4999980404973,726.5000057294965A6,6,0,1,1,89.4999980404973,726.5000057294965A6,6,0,1,1,101.4999980404973,726.5000057294965"></path><path id="kity_path_605" fill="none" stroke="gray"></path></g><path id="node_outline73" fill="none" stroke="none" d="M25.499997071921825,715.5000057294965h59a5,5,0,0,1,5,5v12a5,5,0,0,1,-5,5h-59a5,5,0,0,1,-5,-5v-12a5,5,0,0,1,5,-5z" stroke-width="3"></path><g id="node_text73" fill="black"><text id="kity_text_601" text-rendering="inherit" font-size="12" dy=".8em" y="718.7000057026744" x="30.499997071921825">按事务ID</text></g></g><g id="minder_node74"><g id="node_expander73" style="cursor: pointer;" display="none"><path id="kity_path_612" fill="white" stroke="gray" d="M1148.500013642013,528.5000027790666A6,6,0,1,1,1136.500013642013,528.5000027790666A6,6,0,1,1,1148.500013642013,528.5000027790666"></path><path id="kity_path_613" fill="none" stroke="gray"></path></g><path id="node_outline74" fill="none" stroke="none" d="M1153.5000138804317,517.5000027790666h120a5,5,0,0,1,5,5v12a5,5,0,0,1,-5,5h-120a5,5,0,0,1,-5,-5v-12a5,5,0,0,1,5,-5z" stroke-width="3"></path><g id="node_text74" fill="black"><text id="kity_text_609" text-rendering="inherit" font-size="12" dy=".8em" y="520.7000027522445" x="1158.5000138804317">增加过主键，又回滚</text></g></g><g id="minder_node75"><g id="node_expander74" style="cursor: pointer;" display="none"><path id="kity_path_620" fill="white" stroke="gray" d="M1148.500013642013,580.500003553927A6,6,0,1,1,1136.500013642013,580.500003553927A6,6,0,1,1,1148.500013642013,580.500003553927"></path><path id="kity_path_621" fill="none" stroke="gray"></path></g><path id="node_outline75" fill="none" stroke="none" d="M1153.5000138804317,569.500003553927h107a5,5,0,0,1,5,5v12a5,5,0,0,1,-5,5h-107a5,5,0,0,1,-5,-5v-12a5,5,0,0,1,5,-5z" stroke-width="3"></path><g id="node_text75" fill="black"><text id="kity_text_617" text-rendering="inherit" font-size="12" dy=".8em" y="572.7000035271049" x="1158.5000138804317">删除后会产生空洞</text></g></g><g id="minder_node76"><g id="node_expander75" style="cursor: pointer;" display="none"><path id="kity_path_628" fill="white" stroke="gray" d="M1085.50001270324,362.5000003054738A6,6,0,1,1,1073.50001270324,362.5000003054738A6,6,0,1,1,1085.50001270324,362.5000003054738"></path><path id="kity_path_629" fill="none" stroke="gray"></path></g><path id="node_outline76" fill="none" stroke="none" d="M1090.5000129416585,351.5000003054738h58a5,5,0,0,1,5,5v12a5,5,0,0,1,-5,5h-58a5,5,0,0,1,-5,-5v-12a5,5,0,0,1,5,-5z" stroke-width="3"></path><g id="node_text76" fill="black"><text id="kity_text_625" text-rendering="inherit" font-size="12" dy=".8em" y="354.7000002786517" x="1095.5000129416585">LRU链表</text></g></g><g id="minder_node77"><g id="node_expander76" style="cursor: pointer;" display="none"><path id="kity_path_636" fill="white" stroke="gray" d="M1085.50001270324,414.5000010803342A6,6,0,1,1,1073.50001270324,414.5000010803342A6,6,0,1,1,1085.50001270324,414.5000010803342"></path><path id="kity_path_637" fill="none" stroke="gray"></path></g><path id="node_outline77" fill="none" stroke="none" d="M1090.5000129416585,403.5000010803342h57a5,5,0,0,1,5,5v12a5,5,0,0,1,-5,5h-57a5,5,0,0,1,-5,-5v-12a5,5,0,0,1,5,-5z" stroke-width="3"></path><g id="node_text77" fill="black"><text id="kity_text_633" text-rendering="inherit" font-size="12" dy=".8em" y="406.7000010535121" x="1095.5000129416585">free链表</text></g></g><g id="minder_node78"><g id="node_expander77" style="cursor: pointer;" display="none"><path id="kity_path_644" fill="white" stroke="gray" d="M1085.50001270324,466.50000185519457A6,6,0,1,1,1073.50001270324,466.50000185519457A6,6,0,1,1,1085.50001270324,466.50000185519457"></path><path id="kity_path_645" fill="none" stroke="gray"></path></g><path id="node_outline78" fill="none" stroke="none" d="M1090.5000129416585,455.50000185519457h62a5,5,0,0,1,5,5v12a5,5,0,0,1,-5,5h-62a5,5,0,0,1,-5,-5v-12a5,5,0,0,1,5,-5z" stroke-width="3"></path><g id="node_text78" fill="black"><text id="kity_text_641" text-rendering="inherit" font-size="12" dy=".8em" y="458.7000018283725" x="1095.5000129416585">flush链表</text></g></g></g></g></svg>